<svg xmlns="http://www.w3.org/2000/svg" xmlns:xlink="http://www.w3.org/1999/xlink" width="1080" zoomAndPan="magnify" viewBox="0 0 810 809.999993" height="1080" preserveAspectRatio="xMidYMid meet" version="1.0"><path fill="#e3f2ff" d="M 786.851562 62.828125 C 795.359375 46.375 776.558594 29.578125 749.796875 28.894531 C 749.511719 20.816406 744.980469 12.230469 736.988281 6.261719 C 723.386719 -3.898438 705.414062 -2.277344 698.863281 10.226562 C 679.972656 1.15625 657.601562 9.78125 647.832031 31.023438 C 647.765625 31.097656 647.703125 31.175781 647.640625 31.25 C 632.296875 25.09375 613.71875 31.292969 608.164062 44.40625 C 579.035156 28.550781 531.148438 40.570312 531.148438 63.007812 C 531.148438 82.78125 569.4375 95.5625 600.0625 85.132812 C 611.90625 108.378906 638.585938 113.253906 647.210938 94.257812 C 658.992188 108.191406 676.773438 111.78125 691.628906 104.652344 C 703.640625 110.414062 718.140625 109.367188 729.816406 100.269531 C 758.058594 116.667969 809.792969 106 809.792969 83.882812 C 809.792969 74.890625 800.5625 67.039062 786.851562 62.828125 " fill-opacity="1" fill-rule="nonzero"/><path fill="#ffffff" d="M 788.886719 54.75 C 783.03125 46.625 768.648438 40.78125 751.636719 40.414062 C 751.339844 33.402344 746.695312 25.949219 738.511719 20.769531 C 724.59375 11.960938 706.183594 13.332031 699.433594 24.207031 C 680.027344 16.316406 657.125 23.851562 647.132812 42.269531 C 647.0625 42.332031 647 42.398438 646.933594 42.464844 C 631.480469 37.21875 612.28125 42.285156 606.480469 53.886719 C 582.699219 42.933594 543.875 47.003906 531.253906 61.289062 C 533.746094 39.722656 580.066406 29.117188 608.164062 44.40625 C 613.746094 31.226562 632.386719 25.121094 647.640625 31.253906 C 647.703125 31.175781 647.769531 31.097656 647.832031 31.023438 C 657.648438 9.675781 680.070312 1.199219 698.863281 10.226562 C 705.367188 -2.230469 723.339844 -3.933594 736.988281 6.261719 C 744.980469 12.230469 749.511719 20.820312 749.796875 28.894531 C 771.53125 29.449219 788.886719 40.8125 788.886719 54.75 " fill-opacity="1" fill-rule="nonzero"/><path fill="#b6d5f0" d="M 809.792969 83.882812 C 809.792969 105.789062 758.328125 116.820312 729.820312 100.269531 C 718.132812 109.367188 703.632812 110.414062 691.628906 104.652344 C 676.773438 111.785156 658.988281 108.1875 647.207031 94.257812 C 638.679688 113.078125 612.101562 108.636719 600.0625 85.128906 C 567.925781 96.078125 527.625 81.425781 531.378906 60.363281 C 534.808594 70.8125 572.042969 76.304688 600.0625 71.050781 C 611.921875 83.832031 638.625 86.480469 647.207031 76.0625 C 659.296875 83.914062 677.164062 85.578125 691.628906 81.769531 C 703.738281 84.953125 718.210938 84.328125 729.820312 79.359375 C 738.226562 82.046875 752.757812 90.058594 766.226562 90.058594 C 785.976562 90.058594 801.359375 82.613281 807.21875 75.835938 C 808.882812 78.351562 809.792969 81.058594 809.792969 83.882812 " fill-opacity="1" fill-rule="nonzero"/><path fill="#b6d5f0" d="M 788.882812 54.488281 C 788.882812 54.355469 788.882812 54.226562 788.875 54.101562 C 788.890625 54.214844 788.890625 54.429688 788.882812 54.488281 " fill-opacity="1" fill-rule="nonzero"/><path fill="#b6d5f0" d="M 776.625 97.648438 C 758.246094 99.9375 732.683594 87.457031 723.214844 71.621094 C 737.507812 84.058594 758.015625 94.054688 776.625 97.648438 " fill-opacity="1" fill-rule="nonzero"/><path fill="#b6d5f0" d="M 617.78125 62.144531 C 610.28125 74.886719 591.300781 80.425781 578.160156 73.765625 C 591.75 74.90625 606.964844 70.445312 617.78125 62.144531 " fill-opacity="1" fill-rule="nonzero"/><path fill="#b6d5f0" d="M 713.410156 71.796875 C 702.472656 89.125 682.4375 89.058594 671.5625 71.796875 C 684.449219 80.21875 700.519531 80.21875 713.410156 71.796875 " fill-opacity="1" fill-rule="nonzero"/><path fill="#b6d5f0" d="M 734.335938 36.847656 C 723.394531 54.175781 703.359375 54.113281 692.488281 36.847656 C 705.375 45.273438 721.445312 45.273438 734.335938 36.847656 " fill-opacity="1" fill-rule="nonzero"/><path fill="#e3f2ff" d="M 163.089844 37.097656 C 157.050781 20.488281 132.96875 13.226562 114.972656 22.445312 C 106.609375 0.0234375 81.601562 0.910156 74.199219 23.875 C 58.613281 16.4375 39.328125 25.105469 36.59375 41.132812 C 18.328125 41.199219 3.855469 51.664062 3.886719 64.246094 C 3.921875 78.34375 22.46875 88.832031 42.234375 85.921875 C 51.496094 103.992188 88.589844 107.957031 106.320312 92.613281 C 119.882812 107.910156 152.675781 103.957031 158.300781 86.199219 C 179.765625 93.097656 207.238281 83.03125 207.238281 62.265625 C 207.238281 43.1875 183.933594 32.949219 163.089844 37.097656 " fill-opacity="1" fill-rule="nonzero"/><path fill="#e3f2ff" d="M 163.089844 37.097656 C 157.050781 20.488281 132.96875 13.226562 114.972656 22.445312 C 106.609375 0.0234375 81.601562 0.910156 74.199219 23.875 C 58.613281 16.4375 39.328125 25.105469 36.59375 41.132812 C 18.328125 41.199219 3.855469 51.664062 3.886719 64.246094 C 3.921875 78.34375 22.46875 88.832031 42.234375 85.921875 C 51.496094 103.992188 88.589844 107.957031 106.320312 92.613281 C 119.882812 107.910156 152.675781 103.957031 158.300781 86.199219 C 179.765625 93.097656 207.238281 83.03125 207.238281 62.265625 C 207.238281 43.1875 183.933594 32.949219 163.089844 37.097656 " fill-opacity="1" fill-rule="nonzero"/><path fill="#ffffff" d="M 36.433594 41.136719 C 35.339844 43.183594 34.550781 45.410156 34.136719 47.8125 C 21.222656 47.851562 10.136719 52.832031 4.417969 60.058594 C 7.167969 49.457031 20.320312 41.246094 36.433594 41.136719 " fill-opacity="1" fill-rule="nonzero"/><path fill="#ffffff" d="M 206.320312 55.945312 C 198.320312 45.429688 181.039062 40.59375 165.136719 43.710938 C 158.878906 26.808594 133.945312 19.429688 115.308594 28.800781 C 106.644531 5.996094 80.746094 6.898438 73.082031 30.253906 C 59.484375 23.878906 43.152344 29.144531 36.671875 40.71875 C 39.671875 24.949219 58.753906 16.5 74.203125 23.871094 C 81.605469 0.90625 106.613281 0.0234375 114.976562 22.445312 C 132.972656 13.230469 157.046875 20.492188 163.09375 37.097656 C 181.503906 33.441406 201.828125 40.992188 206.320312 55.945312 " fill-opacity="1" fill-rule="nonzero"/><path fill="#e3f2ff" d="M 36.671875 40.71875 C 36.636719 40.855469 36.613281 40.992188 36.589844 41.136719 L 36.433594 41.136719 C 36.507812 40.992188 36.589844 40.855469 36.671875 40.71875 " fill-opacity="1" fill-rule="nonzero"/><path fill="#b6d5f0" d="M 158.296875 86.195312 C 152.703125 103.90625 119.925781 107.949219 106.316406 92.613281 C 88.566406 107.980469 51.46875 103.960938 42.234375 85.917969 C 20.335938 89.167969 -0.015625 75.867188 4.515625 59.710938 C 7.921875 71.582031 24.714844 79.59375 42.234375 77 C 47.054688 86.414062 60.785156 93.203125 76.96875 93.203125 C 88.988281 93.203125 99.820312 82.621094 106.488281 76.847656 C 111.5625 82.5625 120.300781 93.203125 130.449219 93.203125 C 144.039062 93.203125 155.417969 86.398438 158.296875 77.273438 C 178.105469 83.644531 203.15625 75.570312 206.792969 57.804688 C 211.476562 80.695312 181.972656 93.808594 158.296875 86.195312 " fill-opacity="1" fill-rule="nonzero"/><path fill="#b6d5f0" d="M 188.914062 76.898438 C 175.046875 88.6875 156.210938 83.945312 149.546875 67.09375 C 159.933594 77.09375 175.046875 80.859375 188.914062 76.898438 " fill-opacity="1" fill-rule="nonzero"/><path fill="#b6d5f0" d="M 56.195312 70.945312 C 46.257812 86.1875 26.851562 86.992188 15.667969 72.730469 C 28.464844 79.367188 44.03125 78.679688 56.195312 70.945312 " fill-opacity="1" fill-rule="nonzero"/><path fill="#b6d5f0" d="M 127.378906 69.269531 C 117.4375 84.515625 98.03125 85.320312 86.847656 71.058594 C 99.648438 77.691406 115.210938 77.003906 127.378906 69.269531 " fill-opacity="1" fill-rule="nonzero"/><path fill="#ffffff" d="M 61.425781 54.992188 C 71.367188 39.746094 90.773438 38.941406 101.957031 53.203125 C 89.15625 46.570312 73.59375 47.253906 61.425781 54.992188 " fill-opacity="1" fill-rule="nonzero"/><path fill="#ffffff" d="M 155.816406 49.003906 C 165.757812 33.753906 185.164062 32.949219 196.347656 47.210938 C 183.546875 40.578125 167.984375 41.265625 155.816406 49.003906 " fill-opacity="1" fill-rule="nonzero"/><path fill="#ffffff" d="M 110.777344 33.792969 C 119.5625 17.855469 138.855469 15.617188 151.0625 29.011719 C 137.808594 23.34375 122.335938 25.179688 110.777344 33.792969 " fill-opacity="1" fill-rule="nonzero"/><path fill="#ffffff" d="M 38.703125 35.160156 C 48.496094 19.820312 67.894531 18.824219 79.214844 32.976562 C 66.351562 26.46875 50.792969 27.304688 38.703125 35.160156 " fill-opacity="1" fill-rule="nonzero"/><path fill="#cfe2f0" d="M 249.589844 54.425781 C 245.773438 48.335938 246.421875 40.042969 251.144531 34.542969 C 255.871094 29.042969 264.351562 26.707031 271.484375 28.941406 C 271.464844 23.398438 275.339844 18.019531 280.820312 15.984375 C 286.300781 13.953125 293.035156 15.390625 297.046875 19.453125 C 298.210938 7.496094 313.855469 0.0390625 325.929688 3.929688 C 338 7.824219 345.445312 20.023438 346.242188 32.007812 C 348.332031 27.472656 356.5 28.132812 359.820312 31.960938 C 363.148438 27.902344 369.09375 24.855469 373.964844 27.144531 C 378.839844 29.4375 381.554688 35.167969 380.109375 40.109375 C 391.03125 30.394531 411.761719 34.179688 418.027344 47.039062 C 423.46875 34.027344 438.835938 24.835938 453.453125 27.355469 C 468.070312 29.878906 479.234375 45.144531 474.972656 58.542969 C 481.65625 54.640625 495.875 53.695312 499.816406 61.785156 C 503.449219 69.242188 492.351562 80.632812 472.082031 81.980469 C 471.824219 81.996094 462.09375 96.289062 441.042969 99.066406 C 422.222656 101.550781 404.394531 92.851562 395.808594 81.046875 C 394.816406 91.609375 381.28125 93.382812 375.367188 88.253906 C 366.855469 100.863281 348.921875 107.054688 333.761719 102.617188 C 326.375 109.875 314.230469 112.429688 304.261719 108.820312 C 294.296875 105.214844 287.101562 95.660156 286.785156 85.617188 C 283.480469 89.808594 278.644531 93.285156 273.109375 93.664062 C 267.578125 94.046875 261.605469 90.472656 260.949219 85.289062 C 254.464844 88.691406 246.554688 90.113281 239.480469 87.984375 C 232.410156 85.855469 225.929688 79.761719 226.171875 72.78125 C 226.75 56.222656 249.589844 54.425781 249.589844 54.425781 Z M 249.589844 54.425781 " fill-opacity="1" fill-rule="nonzero"/><path fill="#f2f8fc" d="M 499.933594 62.066406 C 497.785156 66.425781 491.070312 70.070312 484.628906 71.421875 C 476.695312 73.089844 469.59375 71.632812 469.59375 71.632812 C 469.59375 71.632812 458.734375 79.964844 438.898438 82.671875 C 410.832031 86.503906 388.78125 57.675781 388.78125 57.675781 C 388.78125 57.675781 387.527344 66.425781 380.636719 67.675781 C 373.746094 68.925781 368.734375 60.800781 368.734375 60.800781 C 356.832031 83.921875 335.535156 72.046875 335.535156 72.046875 C 314.859375 95.792969 291.054688 70.800781 291.054688 70.800781 C 277.902344 88.921875 268.503906 72.671875 268.503906 72.671875 C 268.503906 72.671875 259.109375 75.171875 257.226562 67.675781 C 255.347656 60.175781 269.128906 55.800781 269.128906 55.800781 C 245.953125 43.304688 271.480469 28.941406 271.480469 28.941406 C 271.480469 28.550781 271.503906 28.160156 271.539062 27.769531 C 272.023438 22.65625 275.726562 17.875 280.820312 15.984375 C 286.300781 13.953125 293.035156 15.390625 297.042969 19.453125 C 298.210938 7.496094 313.855469 0.0390625 325.929688 3.929688 C 338 7.824219 345.445312 20.023438 346.242188 32.007812 C 348.332031 27.472656 356.5 28.132812 359.820312 31.960938 C 363.148438 27.902344 369.089844 24.855469 373.964844 27.144531 C 378.839844 29.4375 381.554688 35.167969 380.105469 40.109375 C 391.03125 30.394531 411.761719 34.179688 418.027344 47.039062 C 423.46875 34.027344 438.835938 24.835938 453.453125 27.355469 C 468.070312 29.878906 479.230469 45.144531 474.972656 58.542969 C 481.65625 54.640625 495.875 53.695312 499.816406 61.785156 C 499.859375 61.878906 499.894531 61.972656 499.933594 62.066406 Z M 499.933594 62.066406 " fill-opacity="1" fill-rule="nonzero"/></svg>