<svg xmlns="http://www.w3.org/2000/svg" xmlns:xlink="http://www.w3.org/1999/xlink" width="1080" zoomAndPan="magnify" viewBox="0 0 810 809.999993" height="1080" preserveAspectRatio="xMidYMid meet" version="1.0"><defs><clipPath id="daf6b4ec7b"><path d="M 0 0 L 64.5 0 L 64.5 27.75 L 0 27.75 Z M 0 0 " clip-rule="nonzero"/></clipPath><clipPath id="05c6d3859f"><path d="M 81 0 L 134.25 0 L 134.25 24 L 81 24 Z M 81 0 " clip-rule="nonzero"/></clipPath><clipPath id="222dd18f36"><path d="M 157 4 L 217 4 L 217 21 L 157 21 Z M 157 4 " clip-rule="nonzero"/></clipPath><clipPath id="86edb5a9c5"><path d="M 151.089844 0 L 226 0 L 226 21 L 151.089844 21 Z M 151.089844 0 " clip-rule="nonzero"/></clipPath></defs><g clip-path="url(#daf6b4ec7b)"><path fill="#000000" d="M 59.1875 3.726562 C 55.074219 3.5 50.152344 5.730469 44.449219 8.3125 C 32.191406 13.867188 18.296875 20.160156 6.074219 5.917969 C 5.671875 5.449219 4.96875 5.398438 4.5 5.804688 C 4.035156 6.207031 3.984375 6.914062 4.386719 7.382812 C 8.621094 12.316406 13.234375 21.9375 18.539062 25.941406 C 20.039062 27.070312 21.597656 27.753906 23.214844 27.753906 C 23.882812 27.753906 24.558594 27.726562 25.242188 27.675781 C 26.582031 27.578125 27.925781 26.984375 29.261719 26.066406 C 34.917969 22.195312 40.464844 12.574219 45.367188 10.355469 C 50.800781 7.890625 55.496094 5.765625 59.0625 5.964844 C 59.679688 6 60.203125 5.527344 60.238281 4.910156 C 60.273438 4.292969 59.800781 3.765625 59.1875 3.726562 Z M 1.03125 6.847656 C 1.078125 6.742188 1.128906 6.640625 1.183594 6.542969 L 1.351562 6.257812 C 1.449219 6.066406 1.585938 5.898438 1.695312 5.722656 C 1.953125 5.390625 2.210938 5.085938 2.5 4.816406 C 2.792969 4.554688 3.09375 4.304688 3.425781 4.101562 C 4.085938 3.691406 4.8125 3.398438 5.628906 3.25 L 5.785156 3.21875 L 5.941406 3.199219 C 6.042969 3.1875 6.152344 3.171875 6.257812 3.160156 C 6.472656 3.152344 6.699219 3.121094 6.925781 3.128906 C 7.15625 3.125 7.386719 3.136719 7.632812 3.15625 C 7.632812 3.15625 7.636719 3.15625 7.636719 3.15625 C 7.925781 3.179688 8.089844 2.828125 7.875 2.632812 C 7.675781 2.449219 7.453125 2.289062 7.214844 2.148438 C 6.976562 2.007812 6.71875 1.910156 6.457031 1.804688 C 6.328125 1.757812 6.191406 1.730469 6.054688 1.695312 L 5.847656 1.640625 C 5.777344 1.628906 5.707031 1.621094 5.636719 1.613281 C 4.511719 1.441406 3.308594 1.71875 2.324219 2.339844 C 1.828125 2.648438 1.398438 3.054688 1.035156 3.503906 C 0.675781 3.964844 0.410156 4.484375 0.226562 5.023438 C 0.1875 5.160156 0.160156 5.300781 0.125 5.4375 C 0.109375 5.503906 0.09375 5.574219 0.0820312 5.644531 C 0.0703125 5.710938 0.0664062 5.78125 0.0546875 5.851562 C 0.0429688 5.992188 0.0234375 6.128906 0.0195312 6.269531 C 0.0195312 6.40625 0.0195312 6.542969 0.03125 6.679688 C 0.046875 6.902344 0.0820312 7.121094 0.136719 7.335938 C 0.21875 7.664062 0.671875 7.699219 0.792969 7.386719 C 0.867188 7.199219 0.945312 7.019531 1.03125 6.847656 Z M 62.519531 7.457031 C 62.539062 7.34375 62.558594 7.234375 62.570312 7.121094 L 62.597656 6.792969 C 62.628906 6.578125 62.613281 6.359375 62.628906 6.15625 C 62.609375 5.738281 62.578125 5.335938 62.5 4.949219 C 62.410156 4.5625 62.3125 4.1875 62.160156 3.828125 C 61.859375 3.109375 61.433594 2.441406 60.855469 1.847656 L 60.75 1.730469 L 60.632812 1.625 C 60.554688 1.554688 60.480469 1.476562 60.398438 1.40625 C 60.226562 1.277344 60.0625 1.121094 59.871094 0.992188 C 59.6875 0.855469 59.492188 0.730469 59.28125 0.605469 C 59.28125 0.601562 59.277344 0.601562 59.277344 0.601562 C 59.027344 0.453125 59.101562 0.0703125 59.386719 0.0351562 C 59.65625 0 59.929688 0 60.207031 0.0273438 C 60.480469 0.0507812 60.746094 0.121094 61.015625 0.1875 C 61.152344 0.226562 61.28125 0.28125 61.414062 0.332031 L 61.609375 0.410156 C 61.675781 0.441406 61.734375 0.476562 61.796875 0.507812 C 62.8125 1.027344 63.632812 1.957031 64.074219 3.035156 C 64.300781 3.578125 64.414062 4.15625 64.449219 4.738281 C 64.476562 5.320312 64.390625 5.898438 64.226562 6.441406 C 64.179688 6.578125 64.125 6.707031 64.070312 6.839844 C 64.042969 6.902344 64.019531 6.96875 63.988281 7.03125 C 63.957031 7.09375 63.921875 7.15625 63.886719 7.21875 C 63.816406 7.339844 63.753906 7.460938 63.675781 7.574219 C 63.597656 7.691406 63.515625 7.800781 63.429688 7.90625 C 63.285156 8.078125 63.128906 8.234375 62.964844 8.378906 C 62.707031 8.597656 62.320312 8.363281 62.398438 8.035156 C 62.449219 7.839844 62.488281 7.648438 62.519531 7.457031 " fill-opacity="1" fill-rule="nonzero"/></g><path fill="#fb2e01" d="M 29.058594 24.25 C 29.191406 24.566406 29.082031 24.933594 28.792969 25.113281 C 27.613281 25.855469 26.425781 26.328125 25.242188 26.417969 C 24.558594 26.46875 23.882812 26.496094 23.214844 26.496094 C 21.757812 26.496094 20.347656 25.9375 18.984375 25 C 18.710938 24.8125 18.613281 24.449219 18.75 24.140625 C 19.636719 22.1875 21.601562 20.828125 23.878906 20.828125 C 26.199219 20.828125 28.191406 22.238281 29.058594 24.25 " fill-opacity="1" fill-rule="nonzero"/><g clip-path="url(#05c6d3859f)"><path fill="#000000" d="M 81.875 4.425781 C 81.894531 4.347656 81.910156 4.269531 81.929688 4.191406 L 81.996094 3.964844 C 82.03125 3.816406 82.097656 3.675781 82.144531 3.535156 C 82.261719 3.261719 82.390625 3.007812 82.539062 2.769531 C 82.699219 2.539062 82.859375 2.316406 83.054688 2.117188 C 83.433594 1.722656 83.882812 1.394531 84.414062 1.152344 L 84.515625 1.101562 L 84.617188 1.0625 C 84.6875 1.039062 84.757812 1.007812 84.828125 0.980469 C 84.972656 0.941406 85.125 0.882812 85.277344 0.847656 C 85.433594 0.804688 85.597656 0.773438 85.765625 0.746094 C 85.765625 0.746094 85.769531 0.746094 85.769531 0.746094 C 85.96875 0.714844 86.023438 0.441406 85.84375 0.34375 C 85.675781 0.25 85.496094 0.175781 85.3125 0.117188 C 85.128906 0.0625 84.9375 0.0390625 84.742188 0.0117188 C 84.644531 0 84.546875 0.00390625 84.445312 0 L 84.296875 0 C 84.246094 0.00390625 84.199219 0.0117188 84.148438 0.015625 C 83.351562 0.0898438 82.578125 0.488281 82.007812 1.085938 C 81.722656 1.382812 81.496094 1.738281 81.324219 2.113281 C 81.15625 2.492188 81.058594 2.898438 81.027344 3.300781 C 81.023438 3.402344 81.023438 3.503906 81.023438 3.605469 C 81.027344 3.65625 81.023438 3.703125 81.027344 3.753906 C 81.035156 3.804688 81.042969 3.855469 81.046875 3.90625 C 81.0625 4.003906 81.070312 4.101562 81.09375 4.199219 C 81.113281 4.292969 81.136719 4.390625 81.167969 4.484375 C 81.21875 4.632812 81.277344 4.78125 81.347656 4.917969 C 81.457031 5.132812 81.773438 5.078125 81.804688 4.839844 C 81.824219 4.699219 81.847656 4.558594 81.875 4.425781 Z M 133.449219 4.839844 C 133.480469 5.078125 133.796875 5.132812 133.90625 4.917969 C 133.976562 4.78125 134.039062 4.632812 134.085938 4.484375 C 134.117188 4.390625 134.140625 4.292969 134.164062 4.199219 C 134.183594 4.101562 134.191406 4.003906 134.207031 3.90625 C 134.214844 3.855469 134.222656 3.804688 134.226562 3.753906 C 134.230469 3.703125 134.226562 3.65625 134.230469 3.605469 C 134.230469 3.503906 134.234375 3.402344 134.226562 3.300781 C 134.195312 2.898438 134.101562 2.492188 133.933594 2.113281 C 133.757812 1.738281 133.535156 1.382812 133.246094 1.085938 C 132.679688 0.488281 131.902344 0.0898438 131.105469 0.015625 C 131.058594 0.0117188 131.007812 0.00390625 130.957031 0 L 130.808594 0 C 130.710938 0.00390625 130.613281 0 130.515625 0.0117188 C 130.320312 0.0390625 130.128906 0.0625 129.941406 0.117188 C 129.757812 0.175781 129.578125 0.25 129.410156 0.34375 C 129.234375 0.441406 129.285156 0.714844 129.484375 0.746094 C 129.488281 0.746094 129.488281 0.746094 129.488281 0.746094 C 129.660156 0.773438 129.820312 0.804688 129.976562 0.847656 C 130.132812 0.882812 130.28125 0.941406 130.425781 0.980469 C 130.496094 1.007812 130.566406 1.039062 130.636719 1.0625 L 130.738281 1.101562 L 130.839844 1.152344 C 131.371094 1.394531 131.820312 1.722656 132.203125 2.117188 C 132.394531 2.316406 132.558594 2.539062 132.714844 2.769531 C 132.867188 3.007812 132.992188 3.261719 133.109375 3.535156 C 133.15625 3.675781 133.222656 3.816406 133.257812 3.964844 L 133.324219 4.191406 C 133.34375 4.269531 133.363281 4.347656 133.378906 4.425781 C 133.40625 4.558594 133.429688 4.699219 133.449219 4.839844 Z M 131.335938 3.949219 C 127.753906 7.222656 123.179688 14.957031 119.992188 17.875 C 116.015625 21.515625 111.6875 24 107.429688 24 C 103.210938 24 98.710938 21.582031 94.972656 17.921875 C 91.910156 14.917969 87.265625 7.335938 83.707031 4.109375 C 83.4375 3.867188 83.414062 3.445312 83.652344 3.171875 C 83.890625 2.898438 84.304688 2.871094 84.574219 3.117188 C 89.167969 7.277344 94.160156 6.558594 99.300781 5.574219 C 101.980469 5.0625 104.703125 4.480469 107.429688 4.480469 C 109.867188 4.480469 112.296875 4.933594 114.699219 5.382812 C 120.210938 6.417969 125.5625 7.4375 130.460938 2.957031 C 130.730469 2.710938 131.144531 2.734375 131.382812 3.007812 C 131.625 3.28125 131.601562 3.703125 131.335938 3.949219 " fill-opacity="1" fill-rule="nonzero"/></g><path fill="#fb2e01" d="M 113.667969 19.941406 C 113.828125 20.320312 113.695312 20.769531 113.351562 20.988281 C 111.945312 21.882812 110.527344 22.457031 109.117188 22.5625 C 108.300781 22.625 107.496094 22.65625 106.703125 22.65625 C 104.960938 22.65625 103.28125 21.984375 101.660156 20.851562 C 101.328125 20.621094 101.214844 20.179688 101.378906 19.808594 C 102.4375 17.441406 104.777344 15.796875 107.492188 15.796875 C 110.261719 15.796875 112.636719 17.503906 113.667969 19.941406 " fill-opacity="1" fill-rule="nonzero"/><path fill="#ffffff" d="M 114.699219 6.914062 L 114.699219 8.625 C 114.699219 8.699219 114.695312 8.769531 114.695312 8.84375 C 114.558594 12.214844 111.191406 14.449219 108.066406 13.335938 L 107 12.953125 L 105.929688 13.335938 C 102.808594 14.449219 99.4375 12.214844 99.304688 8.84375 C 99.300781 8.769531 99.300781 8.699219 99.300781 8.625 L 99.300781 7.105469 C 101.980469 6.59375 104.703125 6.011719 107.429688 6.011719 C 109.867188 6.011719 112.296875 6.464844 114.699219 6.914062 " fill-opacity="1" fill-rule="nonzero"/><path fill="#e32238" d="M 161.535156 9.75 C 161.535156 9.75 179.511719 11.988281 188.539062 11.824219 C 196.371094 11.683594 211.878906 9.183594 211.878906 9.183594 C 211.878906 9.183594 199.566406 18.558594 192.203125 19.1875 C 181.527344 20.101562 161.535156 9.75 161.535156 9.75 Z M 161.535156 9.75 " fill-opacity="1" fill-rule="nonzero"/><g clip-path="url(#222dd18f36)"><path stroke-linecap="butt" transform="matrix(0.0771585, 0, 0, 0.0755124, 149.959918, -0.823065)" fill="none" stroke-linejoin="miter" d="M 150.018888 140.017604 C 150.018888 140.017604 383.001047 169.658846 499.998389 167.486189 C 601.504088 165.623912 802.490436 132.516766 802.490436 132.516766 C 802.490436 132.516766 642.916388 256.668564 547.485843 264.99708 C 409.124209 277.10188 150.018888 140.017604 150.018888 140.017604 Z M 150.018888 140.017604 " stroke="#e32238" stroke-width="10" stroke-opacity="1" stroke-miterlimit="4"/></g><path stroke-linecap="butt" transform="matrix(0.0771585, 0, 0, 0.0755124, 149.959918, -0.823065)" fill-opacity="1" fill="#e32238" fill-rule="nonzero" stroke-linejoin="miter" d="M 150.018888 117.515091 C 150.018888 117.515091 332.222884 54.766703 425.020862 65.009227 C 452.105924 68.009562 499.998389 97.495614 499.998389 97.495614 C 499.998389 97.495614 567.128841 56.422061 604.997302 52.490587 C 685.290588 44.162071 842.4852 99.97865 842.4852 99.97865 C 842.4852 99.97865 584.949293 140.741823 454.991622 142.50064 C 352.97966 143.897348 150.018888 117.515091 150.018888 117.515091 Z M 150.018888 117.515091 " stroke="#e32238" stroke-width="10" stroke-opacity="1" stroke-miterlimit="4"/><g clip-path="url(#86edb5a9c5)"><path fill="#000000" d="M 221.109375 0.00390625 C 221.59375 3.386719 226.070312 4.53125 221.910156 4.953125 C 219.136719 5.59375 215.523438 5.863281 212.785156 3.996094 C 210.238281 3.609375 207.152344 2.238281 204.25 1.742188 C 201.261719 1.230469 198.152344 1.128906 195.175781 1.015625 C 191.378906 0.871094 189.539062 4.128906 188.28125 4.988281 C 184.714844 2.140625 185.25 2.453125 183.375 2.140625 C 174.628906 0.6875 159.496094 8.402344 157.292969 7.289062 C 154.875 7.390625 152.574219 5.199219 155.484375 2.640625 C 151.109375 2.921875 151.140625 8.53125 151.917969 11.535156 C 151.910156 13.640625 152.964844 6.1875 155.460938 7.921875 C 158.085938 8.328125 160.238281 10.324219 162.441406 11.738281 C 171.269531 16.917969 180.519531 21.003906 191.152344 20.316406 C 199.253906 19.796875 206.382812 14.386719 215.992188 7.640625 C 218.835938 7.601562 222.09375 4.703125 224.246094 6.890625 C 224.757812 8.476562 224.007812 9.457031 224.355469 11.917969 C 225.679688 9.578125 226.816406 6.507812 224.800781 4.1875 C 223.941406 2.921875 222.332031 0.9375 221.109375 0.00390625 Z M 199.71875 2.980469 C 203.371094 3.34375 209.816406 5.039062 212.910156 6.796875 C 212.765625 8.191406 209.234375 6.957031 207.757812 7.648438 C 193.816406 10.695312 178.984375 10.890625 164.980469 7.957031 C 163.472656 7.527344 160.898438 8.5 164.039062 7.039062 C 167.882812 6.808594 173.761719 5.136719 178.601562 4.304688 C 179.742188 4.109375 180.921875 3.644531 182.050781 3.902344 C 184.492188 4.457031 184.765625 5.117188 188.359375 7.90625 C 191.402344 5.019531 191.488281 2.761719 199.71875 2.980469 Z M 210.4375 9.089844 C 201.609375 18.503906 190.230469 20.527344 177.65625 16.589844 C 172.609375 15.007812 168.09375 12.265625 163.34375 9.816406 C 179.039062 11.867188 192.394531 13.003906 210.4375 9.089844 Z M 210.4375 9.089844 " fill-opacity="1" fill-rule="evenodd"/></g></svg>