<svg xmlns="http://www.w3.org/2000/svg" xmlns:xlink="http://www.w3.org/1999/xlink" width="1080" zoomAndPan="magnify" viewBox="0 0 810 809.999993" height="1080" preserveAspectRatio="xMidYMid meet" version="1.0"><path fill="#cfe2f0" d="M 23.664062 54.425781 C 19.847656 48.335938 20.5 40.042969 25.222656 34.542969 C 29.949219 29.042969 38.429688 26.707031 45.558594 28.941406 C 45.542969 23.398438 49.417969 18.019531 54.898438 15.984375 C 60.378906 13.953125 67.113281 15.390625 71.121094 19.453125 C 72.289062 7.496094 87.933594 0.0390625 100.003906 3.929688 C 112.078125 7.824219 119.523438 20.023438 120.320312 32.007812 C 122.410156 27.472656 130.578125 28.132812 133.898438 31.960938 C 137.226562 27.902344 143.167969 24.855469 148.042969 27.144531 C 152.917969 29.4375 155.632812 35.167969 154.183594 40.109375 C 165.109375 30.394531 185.839844 34.179688 192.105469 47.039062 C 197.546875 34.027344 212.910156 24.835938 227.527344 27.355469 C 242.144531 29.878906 253.308594 45.144531 249.050781 58.542969 C 255.734375 54.640625 269.949219 53.695312 273.890625 61.785156 C 277.523438 69.242188 266.425781 80.632812 246.15625 81.980469 C 245.902344 81.996094 236.171875 96.289062 215.121094 99.066406 C 196.300781 101.550781 178.46875 92.851562 169.886719 81.046875 C 168.894531 91.609375 155.359375 93.382812 149.441406 88.253906 C 140.929688 100.863281 123 107.054688 107.839844 102.617188 C 100.453125 109.875 88.308594 112.429688 78.339844 108.820312 C 68.371094 105.214844 61.175781 95.660156 60.863281 85.617188 C 57.558594 89.808594 52.722656 93.285156 47.1875 93.664062 C 41.65625 94.046875 35.683594 90.472656 35.023438 85.289062 C 28.539062 88.691406 20.628906 90.113281 13.558594 87.984375 C 6.488281 85.855469 0.0078125 79.761719 0.25 72.78125 C 0.824219 56.222656 23.664062 54.425781 23.664062 54.425781 Z M 23.664062 54.425781 " fill-opacity="1" fill-rule="nonzero"/><path fill="#f2f8fc" d="M 274.011719 62.066406 C 271.859375 66.425781 265.148438 70.070312 258.707031 71.421875 C 250.769531 73.089844 243.671875 71.632812 243.671875 71.632812 C 243.671875 71.632812 232.8125 79.964844 212.976562 82.671875 C 184.90625 86.503906 162.859375 57.675781 162.859375 57.675781 C 162.859375 57.675781 161.605469 66.425781 154.714844 67.675781 C 147.824219 68.925781 142.8125 60.800781 142.8125 60.800781 C 130.910156 83.921875 109.609375 72.046875 109.609375 72.046875 C 88.9375 95.792969 65.132812 70.800781 65.132812 70.800781 C 51.976562 88.921875 42.582031 72.671875 42.582031 72.671875 C 42.582031 72.671875 33.183594 75.171875 31.304688 67.675781 C 29.425781 60.175781 43.207031 55.800781 43.207031 55.800781 C 20.027344 43.304688 45.558594 28.941406 45.558594 28.941406 C 45.558594 28.550781 45.582031 28.160156 45.617188 27.769531 C 46.101562 22.65625 49.804688 17.875 54.898438 15.984375 C 60.378906 13.953125 67.113281 15.390625 71.121094 19.453125 C 72.285156 7.496094 87.933594 0.0390625 100.003906 3.929688 C 112.078125 7.824219 119.523438 20.023438 120.320312 32.007812 C 122.410156 27.472656 130.574219 28.132812 133.894531 31.960938 C 137.226562 27.902344 143.167969 24.855469 148.042969 27.144531 C 152.917969 29.4375 155.632812 35.167969 154.183594 40.109375 C 165.109375 30.394531 185.835938 34.179688 192.105469 47.039062 C 197.546875 34.027344 212.910156 24.835938 227.527344 27.355469 C 242.144531 29.878906 253.308594 45.144531 249.046875 58.542969 C 255.730469 54.640625 269.949219 53.695312 273.890625 61.785156 C 273.9375 61.878906 273.96875 61.972656 274.011719 62.066406 Z M 274.011719 62.066406 " fill-opacity="1" fill-rule="nonzero"/></svg>