<svg xmlns="http://www.w3.org/2000/svg" xmlns:xlink="http://www.w3.org/1999/xlink" width="1080" zoomAndPan="magnify" viewBox="0 0 810 809.999993" height="1080" preserveAspectRatio="xMidYMid meet" version="1.0"><path fill="#e3f2ff" d="M 163.089844 37.097656 C 157.050781 20.488281 132.96875 13.226562 114.972656 22.445312 C 106.609375 0.0234375 81.601562 0.910156 74.199219 23.875 C 58.613281 16.4375 39.328125 25.105469 36.59375 41.132812 C 18.328125 41.199219 3.855469 51.664062 3.886719 64.246094 C 3.921875 78.34375 22.46875 88.832031 42.234375 85.921875 C 51.496094 103.992188 88.589844 107.957031 106.320312 92.613281 C 119.882812 107.910156 152.675781 103.957031 158.300781 86.199219 C 179.765625 93.097656 207.238281 83.03125 207.238281 62.265625 C 207.238281 43.1875 183.933594 32.949219 163.089844 37.097656 " fill-opacity="1" fill-rule="nonzero"/><path fill="#e3f2ff" d="M 163.089844 37.097656 C 157.050781 20.488281 132.96875 13.226562 114.972656 22.445312 C 106.609375 0.0234375 81.601562 0.910156 74.199219 23.875 C 58.613281 16.4375 39.328125 25.105469 36.59375 41.132812 C 18.328125 41.199219 3.855469 51.664062 3.886719 64.246094 C 3.921875 78.34375 22.46875 88.832031 42.234375 85.921875 C 51.496094 103.992188 88.589844 107.957031 106.320312 92.613281 C 119.882812 107.910156 152.675781 103.957031 158.300781 86.199219 C 179.765625 93.097656 207.238281 83.03125 207.238281 62.265625 C 207.238281 43.1875 183.933594 32.949219 163.089844 37.097656 " fill-opacity="1" fill-rule="nonzero"/><path fill="#ffffff" d="M 36.433594 41.136719 C 35.339844 43.183594 34.550781 45.410156 34.136719 47.8125 C 21.222656 47.851562 10.136719 52.832031 4.417969 60.058594 C 7.167969 49.457031 20.320312 41.246094 36.433594 41.136719 " fill-opacity="1" fill-rule="nonzero"/><path fill="#ffffff" d="M 206.320312 55.945312 C 198.320312 45.429688 181.039062 40.59375 165.136719 43.710938 C 158.878906 26.808594 133.945312 19.429688 115.308594 28.800781 C 106.644531 5.996094 80.746094 6.898438 73.082031 30.253906 C 59.484375 23.878906 43.152344 29.144531 36.671875 40.71875 C 39.671875 24.949219 58.753906 16.5 74.203125 23.871094 C 81.605469 0.90625 106.613281 0.0234375 114.976562 22.445312 C 132.972656 13.230469 157.046875 20.492188 163.09375 37.097656 C 181.503906 33.441406 201.828125 40.992188 206.320312 55.945312 " fill-opacity="1" fill-rule="nonzero"/><path fill="#e3f2ff" d="M 36.671875 40.71875 C 36.636719 40.855469 36.613281 40.992188 36.589844 41.136719 L 36.433594 41.136719 C 36.507812 40.992188 36.589844 40.855469 36.671875 40.71875 " fill-opacity="1" fill-rule="nonzero"/><path fill="#b6d5f0" d="M 158.296875 86.195312 C 152.703125 103.90625 119.925781 107.949219 106.316406 92.613281 C 88.566406 107.980469 51.46875 103.960938 42.234375 85.917969 C 20.335938 89.167969 -0.015625 75.867188 4.515625 59.710938 C 7.921875 71.582031 24.714844 79.59375 42.234375 77 C 47.054688 86.414062 60.785156 93.203125 76.96875 93.203125 C 88.988281 93.203125 99.820312 82.621094 106.488281 76.847656 C 111.5625 82.5625 120.300781 93.203125 130.449219 93.203125 C 144.039062 93.203125 155.417969 86.398438 158.296875 77.273438 C 178.105469 83.644531 203.15625 75.570312 206.792969 57.804688 C 211.476562 80.695312 181.972656 93.808594 158.296875 86.195312 " fill-opacity="1" fill-rule="nonzero"/><path fill="#b6d5f0" d="M 188.914062 76.898438 C 175.046875 88.6875 156.210938 83.945312 149.546875 67.09375 C 159.933594 77.09375 175.046875 80.859375 188.914062 76.898438 " fill-opacity="1" fill-rule="nonzero"/><path fill="#b6d5f0" d="M 56.195312 70.945312 C 46.257812 86.1875 26.851562 86.992188 15.667969 72.730469 C 28.464844 79.367188 44.03125 78.679688 56.195312 70.945312 " fill-opacity="1" fill-rule="nonzero"/><path fill="#b6d5f0" d="M 127.378906 69.269531 C 117.4375 84.515625 98.03125 85.320312 86.847656 71.058594 C 99.648438 77.691406 115.210938 77.003906 127.378906 69.269531 " fill-opacity="1" fill-rule="nonzero"/><path fill="#ffffff" d="M 61.425781 54.992188 C 71.367188 39.746094 90.773438 38.941406 101.957031 53.203125 C 89.15625 46.570312 73.59375 47.253906 61.425781 54.992188 " fill-opacity="1" fill-rule="nonzero"/><path fill="#ffffff" d="M 155.816406 49.003906 C 165.757812 33.753906 185.164062 32.949219 196.347656 47.210938 C 183.546875 40.578125 167.984375 41.265625 155.816406 49.003906 " fill-opacity="1" fill-rule="nonzero"/><path fill="#ffffff" d="M 110.777344 33.792969 C 119.5625 17.855469 138.855469 15.617188 151.0625 29.011719 C 137.808594 23.34375 122.335938 25.179688 110.777344 33.792969 " fill-opacity="1" fill-rule="nonzero"/><path fill="#ffffff" d="M 38.703125 35.160156 C 48.496094 19.820312 67.894531 18.824219 79.214844 32.976562 C 66.351562 26.46875 50.792969 27.304688 38.703125 35.160156 " fill-opacity="1" fill-rule="nonzero"/></svg>