<svg xmlns="http://www.w3.org/2000/svg" xmlns:xlink="http://www.w3.org/1999/xlink" width="1080" zoomAndPan="magnify" viewBox="0 0 810 809.999993" height="1080" preserveAspectRatio="xMidYMid meet" version="1.0"><defs><clipPath id="ea622b14f6"><path d="M 3 3 L 282.75 3 L 282.75 113 L 3 113 Z M 3 3 " clip-rule="nonzero"/></clipPath><clipPath id="267e8933ab"><path d="M 3 64 L 282.75 64 L 282.75 113 L 3 113 Z M 3 64 " clip-rule="nonzero"/></clipPath></defs><g clip-path="url(#ea622b14f6)"><path fill="#e3f2ff" d="M 259.492188 66.777344 C 268 50.324219 249.199219 33.527344 222.4375 32.84375 C 222.152344 24.765625 217.621094 16.179688 209.628906 10.210938 C 196.027344 0.0507812 178.054688 1.671875 171.503906 14.175781 C 152.613281 5.105469 130.242188 13.730469 120.472656 34.976562 C 120.40625 35.046875 120.34375 35.125 120.28125 35.199219 C 104.9375 29.042969 86.359375 35.242188 80.808594 48.355469 C 51.675781 32.5 3.789062 44.519531 3.789062 66.957031 C 3.789062 86.730469 42.078125 99.511719 72.703125 89.082031 C 84.546875 112.328125 111.226562 117.203125 119.851562 98.207031 C 131.632812 112.140625 149.414062 115.730469 164.269531 108.601562 C 176.28125 114.363281 190.78125 113.316406 202.457031 104.21875 C 230.699219 120.617188 282.433594 109.949219 282.433594 87.832031 C 282.433594 78.839844 273.207031 70.988281 259.492188 66.777344 " fill-opacity="1" fill-rule="nonzero"/></g><path fill="#ffffff" d="M 261.527344 58.699219 C 255.671875 50.574219 241.289062 44.730469 224.277344 44.363281 C 223.984375 37.351562 219.335938 29.898438 211.152344 24.71875 C 197.234375 15.910156 178.824219 17.28125 172.074219 28.15625 C 152.667969 20.265625 129.765625 27.800781 119.773438 46.21875 C 119.703125 46.28125 119.640625 46.347656 119.574219 46.414062 C 104.121094 41.167969 84.921875 46.234375 79.125 57.835938 C 55.339844 46.882812 16.515625 50.953125 3.894531 65.238281 C 6.386719 43.671875 52.707031 33.066406 80.804688 48.355469 C 86.386719 35.175781 105.027344 29.074219 120.28125 35.203125 C 120.34375 35.125 120.410156 35.046875 120.472656 34.976562 C 130.289062 13.625 152.710938 5.148438 171.503906 14.175781 C 178.011719 1.71875 195.980469 0.015625 209.628906 10.210938 C 217.621094 16.179688 222.152344 24.769531 222.4375 32.84375 C 244.171875 33.398438 261.527344 44.761719 261.527344 58.699219 " fill-opacity="1" fill-rule="nonzero"/><g clip-path="url(#267e8933ab)"><path fill="#b6d5f0" d="M 282.433594 87.832031 C 282.433594 109.738281 230.96875 120.769531 202.460938 104.21875 C 190.773438 113.316406 176.273438 114.363281 164.269531 108.601562 C 149.414062 115.734375 131.628906 112.136719 119.847656 98.207031 C 111.320312 117.027344 84.742188 112.585938 72.703125 89.082031 C 40.570312 100.027344 0.265625 85.375 4.023438 64.3125 C 7.449219 74.761719 44.6875 80.253906 72.703125 75 C 84.5625 87.78125 111.265625 90.429688 119.847656 80.011719 C 131.9375 87.863281 149.808594 89.527344 164.269531 85.71875 C 176.378906 88.902344 190.851562 88.277344 202.460938 83.308594 C 210.867188 85.996094 225.398438 94.007812 238.867188 94.007812 C 258.617188 94.007812 274 86.5625 279.859375 79.785156 C 281.523438 82.300781 282.433594 85.007812 282.433594 87.832031 " fill-opacity="1" fill-rule="nonzero"/></g><path fill="#b6d5f0" d="M 261.523438 58.4375 C 261.523438 58.304688 261.523438 58.175781 261.515625 58.050781 C 261.53125 58.167969 261.53125 58.378906 261.523438 58.4375 " fill-opacity="1" fill-rule="nonzero"/><path fill="#b6d5f0" d="M 249.265625 101.597656 C 230.886719 103.886719 205.324219 91.40625 195.855469 75.570312 C 210.148438 88.007812 230.660156 98.003906 249.265625 101.597656 " fill-opacity="1" fill-rule="nonzero"/><path fill="#b6d5f0" d="M 90.421875 66.09375 C 82.921875 78.835938 63.941406 84.375 50.800781 77.714844 C 64.390625 78.855469 79.605469 74.394531 90.421875 66.09375 " fill-opacity="1" fill-rule="nonzero"/><path fill="#b6d5f0" d="M 186.050781 75.746094 C 175.113281 93.074219 155.078125 93.007812 144.203125 75.746094 C 157.089844 84.167969 173.160156 84.167969 186.050781 75.746094 " fill-opacity="1" fill-rule="nonzero"/><path fill="#b6d5f0" d="M 206.976562 40.796875 C 196.039062 58.125 176 58.0625 165.128906 40.796875 C 178.015625 49.222656 194.085938 49.222656 206.976562 40.796875 " fill-opacity="1" fill-rule="nonzero"/></svg>