<svg xmlns="http://www.w3.org/2000/svg" xmlns:xlink="http://www.w3.org/1999/xlink" width="1080" zoomAndPan="magnify" viewBox="0 0 810 809.999993" height="1080" preserveAspectRatio="xMidYMid meet" version="1.0"><defs><clipPath id="c2c5d4db48"><path d="M 59 40 L 66 40 L 66 45.75 L 59 45.75 Z M 59 40 " clip-rule="nonzero"/></clipPath><clipPath id="f780ddff24"><path d="M 61 40 L 66.75 40 L 66.75 42 L 61 42 Z M 61 40 " clip-rule="nonzero"/></clipPath><clipPath id="4483bc0477"><path d="M 1 40 L 7 40 L 7 45.75 L 1 45.75 Z M 1 40 " clip-rule="nonzero"/></clipPath></defs><path fill="#ffffff" d="M 49.898438 17.632812 C 43.171875 17.632812 37.722656 24.589844 37.722656 33.171875 C 37.722656 35.675781 38.1875 38.039062 39.007812 40.132812 C 40.683594 39.296875 42.289062 38.6875 43.828125 38.265625 C 42.566406 36.867188 41.765625 34.753906 41.765625 32.390625 C 41.765625 28.183594 44.304688 24.769531 47.4375 24.769531 C 50.574219 24.769531 53.113281 28.183594 53.113281 32.390625 C 53.113281 34.394531 52.535156 36.21875 51.589844 37.578125 C 55.28125 37.972656 58.292969 39.359375 60.511719 40.796875 C 61.507812 38.542969 62.078125 35.941406 62.078125 33.171875 C 62.078125 24.589844 56.625 17.632812 49.898438 17.632812 " fill-opacity="1" fill-rule="nonzero"/><path fill="#211c1d" d="M 50.058594 31.054688 C 49.160156 31.054688 48.433594 30.078125 48.433594 28.875 C 48.433594 27.671875 49.160156 26.695312 50.058594 26.695312 C 50.953125 26.695312 51.679688 27.671875 51.679688 28.875 C 51.679688 30.078125 50.953125 31.054688 50.058594 31.054688 Z M 47.4375 24.769531 C 44.304688 24.769531 41.765625 28.183594 41.765625 32.390625 C 41.765625 34.753906 42.566406 36.867188 43.828125 38.265625 C 46.664062 37.480469 49.261719 37.332031 51.589844 37.578125 C 52.535156 36.21875 53.113281 34.394531 53.113281 32.390625 C 53.113281 28.183594 50.574219 24.769531 47.4375 24.769531 " fill-opacity="1" fill-rule="nonzero"/><path fill="#ffffff" d="M 50.058594 26.695312 C 49.160156 26.695312 48.433594 27.671875 48.433594 28.875 C 48.433594 30.078125 49.160156 31.054688 50.058594 31.054688 C 50.953125 31.054688 51.679688 30.078125 51.679688 28.875 C 51.679688 27.671875 50.953125 26.695312 50.058594 26.695312 " fill-opacity="1" fill-rule="nonzero"/><path fill="#211c1d" d="M 49.898438 17 C 49.058594 17.046875 44.578125 18.273438 44.574219 18.273438 C 39.675781 20.730469 36.238281 26.476562 36.238281 33.171875 C 36.238281 35.910156 36.816406 38.488281 37.832031 40.75 C 38.226562 40.53125 38.621094 40.324219 39.007812 40.132812 C 38.1875 38.039062 37.722656 35.675781 37.722656 33.171875 C 37.722656 24.589844 43.171875 17.632812 49.898438 17.632812 C 56.625 17.632812 62.078125 24.589844 62.078125 33.171875 C 62.078125 35.941406 61.507812 38.542969 60.511719 40.796875 C 60.894531 41.042969 61.253906 41.292969 61.589844 41.539062 C 62.839844 39.097656 63.558594 36.234375 63.558594 33.171875 C 63.558594 24.238281 57.441406 17 49.898438 17 " fill-opacity="1" fill-rule="nonzero"/><path fill="#211c1d" d="M 56.277344 16.789062 C 56.277344 16.789062 49.832031 15.46875 44.585938 18.269531 C 44.582031 18.269531 44.582031 18.269531 44.578125 18.269531 C 44.578125 18.273438 44.578125 18.273438 44.574219 18.273438 C 44.578125 18.273438 49.058594 17.046875 49.898438 17 C 49.898438 17 53.273438 16.789062 56.277344 16.789062 " fill-opacity="1" fill-rule="nonzero"/><path fill="#211c1d" d="M 37.832031 40.75 C 37.832031 40.75 44.445312 37.488281 49.007812 37.6875 C 53.570312 37.886719 57.226562 38.773438 61.589844 41.539062 C 61.589844 41.539062 57.230469 37.476562 49.035156 37.476562 C 42.515625 37.476562 37.832031 40.75 37.832031 40.75 " fill-opacity="1" fill-rule="nonzero"/><path fill="#211c1d" d="M 37.832031 40.75 L 36.507812 41.539062 C 36.507812 41.539062 39.207031 40.273438 40.378906 39.644531 C 40.378906 39.644531 38.882812 40.121094 37.832031 40.75 " fill-opacity="1" fill-rule="nonzero"/><g clip-path="url(#c2c5d4db48)"><path fill="#211c1d" d="M 59.773438 40.472656 C 59.773438 40.472656 62.519531 42.191406 65.265625 45.75 C 65.265625 45.75 62.96875 42.488281 61.589844 41.539062 C 61.171875 41.25 60.375 40.558594 59.773438 40.472656 " fill-opacity="1" fill-rule="nonzero"/></g><g clip-path="url(#f780ddff24)"><path fill="#211c1d" d="M 61.589844 41.539062 C 61.589844 41.539062 63.820312 40.980469 66.667969 40.796875 C 66.667969 40.796875 65.214844 40.746094 61.699219 41.320312 C 61.699219 41.320312 61.242188 41.265625 61.589844 41.539062 " fill-opacity="1" fill-rule="nonzero"/></g><path fill="#211c1d" d="M 61.589844 41.539062 L 64.542969 42.574219 C 64.542969 42.574219 63.613281 41.953125 61.589844 41.539062 " fill-opacity="1" fill-rule="nonzero"/><path fill="#211c1d" d="M 40.34375 9.816406 C 40.34375 9.816406 56.523438 1.5 65.261719 18.269531 C 65.261719 18.269531 65.703125 0.00390625 40.464844 6.125 C 40.464844 6.125 38.09375 7.730469 40.34375 9.816406 " fill-opacity="1" fill-rule="nonzero"/><path fill="#ffffff" d="M 16.851562 17.632812 C 23.578125 17.632812 29.027344 24.589844 29.027344 33.171875 C 29.027344 35.675781 28.5625 38.039062 27.742188 40.132812 C 26.066406 39.296875 24.460938 38.6875 22.921875 38.265625 C 24.183594 36.867188 24.984375 34.753906 24.984375 32.390625 C 24.984375 28.183594 22.445312 24.769531 19.3125 24.769531 C 16.175781 24.769531 13.636719 28.183594 13.636719 32.390625 C 13.636719 34.394531 14.214844 36.21875 15.15625 37.578125 C 11.46875 37.972656 8.457031 39.359375 6.238281 40.796875 C 5.242188 38.542969 4.671875 35.941406 4.671875 33.171875 C 4.671875 24.589844 10.125 17.632812 16.851562 17.632812 " fill-opacity="1" fill-rule="nonzero"/><path fill="#211c1d" d="M 15.070312 28.875 C 15.070312 27.671875 15.796875 26.695312 16.691406 26.695312 C 17.589844 26.695312 18.316406 27.671875 18.316406 28.875 C 18.316406 30.078125 17.589844 31.054688 16.691406 31.054688 C 15.796875 31.054688 15.070312 30.078125 15.070312 28.875 Z M 13.636719 32.390625 C 13.636719 34.394531 14.214844 36.21875 15.15625 37.578125 C 17.484375 37.332031 20.085938 37.480469 22.921875 38.265625 C 24.183594 36.867188 24.984375 34.753906 24.984375 32.390625 C 24.984375 28.183594 22.445312 24.769531 19.3125 24.769531 C 16.175781 24.769531 13.636719 28.183594 13.636719 32.390625 " fill-opacity="1" fill-rule="nonzero"/><path fill="#ffffff" d="M 16.691406 26.695312 C 17.589844 26.695312 18.316406 27.671875 18.316406 28.875 C 18.316406 30.078125 17.589844 31.054688 16.691406 31.054688 C 15.796875 31.054688 15.070312 30.078125 15.070312 28.875 C 15.070312 27.671875 15.796875 26.695312 16.691406 26.695312 " fill-opacity="1" fill-rule="nonzero"/><path fill="#211c1d" d="M 16.851562 17 C 17.691406 17.046875 22.171875 18.273438 22.171875 18.273438 C 27.074219 20.730469 30.511719 26.476562 30.511719 33.171875 C 30.511719 35.910156 29.933594 38.488281 28.917969 40.75 C 28.523438 40.53125 28.128906 40.324219 27.742188 40.132812 C 28.5625 38.039062 29.027344 35.675781 29.027344 33.171875 C 29.027344 24.589844 23.578125 17.632812 16.851562 17.632812 C 10.125 17.632812 4.671875 24.589844 4.671875 33.171875 C 4.671875 35.941406 5.242188 38.542969 6.238281 40.796875 C 5.855469 41.042969 5.496094 41.292969 5.160156 41.539062 C 3.910156 39.097656 3.191406 36.234375 3.191406 33.171875 C 3.191406 24.238281 9.308594 17 16.851562 17 " fill-opacity="1" fill-rule="nonzero"/><path fill="#211c1d" d="M 10.472656 16.789062 C 10.472656 16.789062 16.917969 15.46875 22.164062 18.269531 C 22.167969 18.269531 22.167969 18.269531 22.171875 18.269531 C 22.171875 18.273438 22.171875 18.273438 22.171875 18.273438 C 22.171875 18.273438 17.691406 17.046875 16.851562 17 C 16.851562 17 13.476562 16.789062 10.472656 16.789062 " fill-opacity="1" fill-rule="nonzero"/><path fill="#211c1d" d="M 28.917969 40.75 C 28.917969 40.75 22.304688 37.488281 17.742188 37.6875 C 13.179688 37.886719 9.523438 38.773438 5.160156 41.539062 C 5.160156 41.539062 9.519531 37.476562 17.710938 37.476562 C 24.234375 37.476562 28.917969 40.75 28.917969 40.75 " fill-opacity="1" fill-rule="nonzero"/><path fill="#211c1d" d="M 28.917969 40.75 L 30.242188 41.539062 C 30.242188 41.539062 27.542969 40.273438 26.371094 39.644531 C 26.371094 39.644531 27.867188 40.121094 28.917969 40.75 " fill-opacity="1" fill-rule="nonzero"/><g clip-path="url(#4483bc0477)"><path fill="#211c1d" d="M 6.976562 40.472656 C 6.976562 40.472656 4.230469 42.191406 1.484375 45.75 C 1.484375 45.75 3.78125 42.488281 5.160156 41.539062 C 5.578125 41.25 6.375 40.558594 6.976562 40.472656 " fill-opacity="1" fill-rule="nonzero"/></g><path fill="#211c1d" d="M 5.160156 41.539062 C 5.160156 41.539062 2.929688 40.980469 0.0820312 40.796875 C 0.0820312 40.796875 1.535156 40.746094 5.050781 41.320312 C 5.050781 41.320312 5.507812 41.265625 5.160156 41.539062 " fill-opacity="1" fill-rule="nonzero"/><path fill="#211c1d" d="M 5.160156 41.539062 L 2.207031 42.574219 C 2.207031 42.574219 3.136719 41.953125 5.160156 41.539062 " fill-opacity="1" fill-rule="nonzero"/><path fill="#211c1d" d="M 26.40625 9.816406 C 26.40625 9.816406 10.226562 1.5 1.488281 18.269531 C 1.488281 18.269531 1.046875 0.00390625 26.285156 6.125 C 26.285156 6.125 28.65625 7.730469 26.40625 9.816406 " fill-opacity="1" fill-rule="nonzero"/></svg>