<svg xmlns="http://www.w3.org/2000/svg" xmlns:xlink="http://www.w3.org/1999/xlink" width="1080"
  zoomAndPan="magnify" viewBox="0 0 810 809.999993" height="1080"
  preserveAspectRatio="xMidYMid meet" version="1.0">
  <defs>
    <clipPath id="d3b33221a3">
      <path d="M 0 0 L 810 0 L 810 339.472656 L 0 339.472656 Z M 0 0 " clip-rule="nonzero" />
    </clipPath>
  </defs>
  <polygon fill="#7dd95c" points="0,0 810,0 810,340 0,340" />
  <path fill="#12a149" d="M 63.425781 47.296875 L 60.28125 53.589844 " fill-opacity="1"
    fill-rule="nonzero" />
  <path fill="#000000"
    d="M 60.28125 55.015625 C 60.066406 55.015625 59.847656 54.964844 59.644531 54.863281 C 58.941406 54.511719 58.65625 53.65625 59.007812 52.953125 L 62.152344 46.660156 C 62.503906 45.957031 63.359375 45.671875 64.0625 46.023438 C 64.761719 46.375 65.046875 47.230469 64.695312 47.933594 L 61.554688 54.226562 C 61.304688 54.726562 60.800781 55.015625 60.28125 55.015625 Z M 60.28125 55.015625 "
    fill-opacity="1" fill-rule="nonzero" />
  <path fill="#12a149" d="M 73.027344 47.296875 L 69.886719 53.589844 " fill-opacity="1"
    fill-rule="nonzero" />
  <path fill="#000000"
    d="M 69.882812 55.015625 C 69.671875 55.015625 69.453125 54.964844 69.25 54.863281 C 68.546875 54.511719 68.261719 53.65625 68.613281 52.953125 L 71.753906 46.660156 C 72.109375 45.957031 72.964844 45.671875 73.664062 46.023438 C 74.367188 46.375 74.652344 47.230469 74.300781 47.933594 L 71.160156 54.226562 C 70.910156 54.726562 70.40625 55.015625 69.882812 55.015625 Z M 69.882812 55.015625 "
    fill-opacity="1" fill-rule="nonzero" />
  <path fill="#12a149" d="M 53.820312 47.296875 L 50.675781 53.589844 " fill-opacity="1"
    fill-rule="nonzero" />
  <path fill="#000000"
    d="M 50.675781 55.015625 C 50.460938 55.015625 50.246094 54.964844 50.039062 54.863281 C 49.335938 54.511719 49.050781 53.65625 49.402344 52.953125 L 52.546875 46.660156 C 52.898438 45.957031 53.753906 45.671875 54.457031 46.023438 C 55.160156 46.375 55.445312 47.230469 55.09375 47.933594 L 51.949219 54.226562 C 51.699219 54.726562 51.195312 55.015625 50.675781 55.015625 Z M 50.675781 55.015625 "
    fill-opacity="1" fill-rule="nonzero" />
  <path fill="#12a149" d="M 141.199219 84.371094 L 138.054688 90.664062 " fill-opacity="1"
    fill-rule="nonzero" />
  <path fill="#000000"
    d="M 138.054688 92.085938 C 137.839844 92.085938 137.625 92.039062 137.417969 91.9375 C 136.714844 91.585938 136.429688 90.730469 136.78125 90.023438 L 139.925781 83.734375 C 140.277344 83.027344 141.132812 82.742188 141.835938 83.09375 C 142.539062 83.449219 142.824219 84.304688 142.472656 85.007812 L 139.328125 91.300781 C 139.078125 91.796875 138.578125 92.085938 138.054688 92.085938 Z M 138.054688 92.085938 "
    fill-opacity="1" fill-rule="nonzero" />
  <path fill="#12a149" d="M 150.804688 84.371094 L 147.660156 90.664062 " fill-opacity="1"
    fill-rule="nonzero" />
  <path fill="#000000"
    d="M 147.660156 92.085938 C 147.445312 92.085938 147.226562 92.039062 147.023438 91.9375 C 146.320312 91.585938 146.035156 90.730469 146.386719 90.023438 L 149.53125 83.734375 C 149.882812 83.027344 150.738281 82.742188 151.441406 83.09375 C 152.144531 83.449219 152.429688 84.304688 152.078125 85.007812 L 148.933594 91.300781 C 148.683594 91.796875 148.179688 92.085938 147.660156 92.085938 Z M 147.660156 92.085938 "
    fill-opacity="1" fill-rule="nonzero" />
  <path fill="#12a149" d="M 131.59375 84.371094 L 128.453125 90.664062 " fill-opacity="1"
    fill-rule="nonzero" />
  <path fill="#000000"
    d="M 128.449219 92.085938 C 128.238281 92.085938 128.019531 92.039062 127.816406 91.9375 C 127.113281 91.585938 126.828125 90.730469 127.179688 90.023438 L 130.320312 83.734375 C 130.671875 83.027344 131.527344 82.742188 132.230469 83.09375 C 132.933594 83.449219 133.21875 84.304688 132.867188 85.007812 L 129.722656 91.300781 C 129.476562 91.796875 128.972656 92.085938 128.449219 92.085938 Z M 128.449219 92.085938 "
    fill-opacity="1" fill-rule="nonzero" />
  <path fill="#12a149" d="M 294.898438 51.929688 L 291.753906 58.222656 " fill-opacity="1"
    fill-rule="nonzero" />
  <path fill="#000000"
    d="M 291.753906 59.648438 C 291.539062 59.648438 291.320312 59.601562 291.117188 59.496094 C 290.414062 59.144531 290.128906 58.289062 290.480469 57.585938 L 293.625 51.292969 C 293.976562 50.589844 294.832031 50.304688 295.535156 50.65625 C 296.238281 51.007812 296.523438 51.863281 296.171875 52.566406 L 293.027344 58.859375 C 292.777344 59.359375 292.273438 59.648438 291.753906 59.648438 Z M 291.753906 59.648438 "
    fill-opacity="1" fill-rule="nonzero" />
  <path fill="#12a149" d="M 304.503906 51.929688 L 301.359375 58.222656 " fill-opacity="1"
    fill-rule="nonzero" />
  <path fill="#000000"
    d="M 301.355469 59.648438 C 301.144531 59.648438 300.925781 59.601562 300.722656 59.496094 C 300.019531 59.144531 299.734375 58.289062 300.085938 57.585938 L 303.230469 51.292969 C 303.582031 50.589844 304.4375 50.304688 305.136719 50.65625 C 305.839844 51.007812 306.125 51.863281 305.773438 52.566406 L 302.632812 58.859375 C 302.382812 59.359375 301.878906 59.648438 301.355469 59.648438 Z M 301.355469 59.648438 "
    fill-opacity="1" fill-rule="nonzero" />
  <path fill="#12a149" d="M 285.292969 51.929688 L 282.148438 58.222656 " fill-opacity="1"
    fill-rule="nonzero" />
  <path fill="#000000"
    d="M 282.148438 59.648438 C 281.933594 59.648438 281.71875 59.601562 281.511719 59.496094 C 280.808594 59.144531 280.523438 58.289062 280.875 57.585938 L 284.019531 51.292969 C 284.371094 50.589844 285.226562 50.304688 285.929688 50.65625 C 286.632812 51.007812 286.917969 51.863281 286.566406 52.566406 L 283.421875 58.859375 C 283.171875 59.359375 282.671875 59.648438 282.148438 59.648438 Z M 282.148438 59.648438 "
    fill-opacity="1" fill-rule="nonzero" />
  <path fill="#12a149" d="M 468.964844 114.027344 L 465.820312 120.320312 " fill-opacity="1"
    fill-rule="nonzero" />
  <path fill="#000000"
    d="M 465.820312 121.746094 C 465.605469 121.746094 465.390625 121.695312 465.183594 121.59375 C 464.484375 121.242188 464.199219 120.386719 464.546875 119.683594 L 467.691406 113.390625 C 468.042969 112.6875 468.898438 112.402344 469.601562 112.753906 C 470.304688 113.105469 470.589844 113.960938 470.238281 114.664062 L 467.09375 120.957031 C 466.84375 121.457031 466.34375 121.746094 465.820312 121.746094 Z M 465.820312 121.746094 "
    fill-opacity="1" fill-rule="nonzero" />
  <path fill="#12a149" d="M 478.570312 114.027344 L 475.425781 120.320312 " fill-opacity="1"
    fill-rule="nonzero" />
  <path fill="#000000"
    d="M 475.425781 121.746094 C 475.210938 121.746094 474.996094 121.695312 474.789062 121.59375 C 474.085938 121.242188 473.800781 120.386719 474.152344 119.683594 L 477.296875 113.390625 C 477.648438 112.6875 478.503906 112.402344 479.207031 112.753906 C 479.910156 113.105469 480.195312 113.960938 479.84375 114.664062 L 476.699219 120.957031 C 476.449219 121.457031 475.949219 121.746094 475.425781 121.746094 Z M 475.425781 121.746094 "
    fill-opacity="1" fill-rule="nonzero" />
  <path fill="#12a149" d="M 459.359375 114.027344 L 456.21875 120.320312 " fill-opacity="1"
    fill-rule="nonzero" />
  <path fill="#000000"
    d="M 456.214844 121.746094 C 456.003906 121.746094 455.785156 121.695312 455.582031 121.59375 C 454.878906 121.242188 454.59375 120.386719 454.945312 119.683594 L 458.085938 113.390625 C 458.441406 112.6875 459.296875 112.402344 459.996094 112.753906 C 460.699219 113.105469 460.984375 113.960938 460.632812 114.664062 L 457.492188 120.957031 C 457.242188 121.457031 456.738281 121.746094 456.214844 121.746094 Z M 456.214844 121.746094 "
    fill-opacity="1" fill-rule="nonzero" />
  <path fill="#12a149" d="M 359.710938 159.441406 L 356.566406 165.734375 " fill-opacity="1"
    fill-rule="nonzero" />
  <path fill="#000000"
    d="M 356.566406 167.160156 C 356.351562 167.160156 356.132812 167.109375 355.929688 167.007812 C 355.226562 166.65625 354.941406 165.800781 355.292969 165.097656 L 358.4375 158.804688 C 358.789062 158.101562 359.644531 157.816406 360.347656 158.167969 C 361.050781 158.519531 361.335938 159.375 360.984375 160.078125 L 357.839844 166.371094 C 357.589844 166.871094 357.085938 167.160156 356.566406 167.160156 Z M 356.566406 167.160156 "
    fill-opacity="1" fill-rule="nonzero" />
  <path fill="#12a149" d="M 369.3125 159.441406 L 366.171875 165.734375 " fill-opacity="1"
    fill-rule="nonzero" />
  <path fill="#000000"
    d="M 366.171875 167.160156 C 365.957031 167.160156 365.738281 167.109375 365.535156 167.007812 C 364.832031 166.65625 364.546875 165.800781 364.898438 165.097656 L 368.042969 158.804688 C 368.394531 158.101562 369.246094 157.816406 369.949219 158.167969 C 370.652344 158.519531 370.9375 159.375 370.585938 160.078125 L 367.445312 166.371094 C 367.195312 166.871094 366.691406 167.160156 366.171875 167.160156 Z M 366.171875 167.160156 "
    fill-opacity="1" fill-rule="nonzero" />
  <path fill="#12a149" d="M 350.105469 159.441406 L 346.960938 165.734375 " fill-opacity="1"
    fill-rule="nonzero" />
  <path fill="#000000"
    d="M 346.960938 167.160156 C 346.746094 167.160156 346.53125 167.109375 346.324219 167.007812 C 345.621094 166.65625 345.339844 165.800781 345.6875 165.097656 L 348.832031 158.804688 C 349.183594 158.101562 350.039062 157.816406 350.742188 158.167969 C 351.445312 158.519531 351.730469 159.375 351.378906 160.078125 L 348.234375 166.371094 C 347.984375 166.871094 347.484375 167.160156 346.960938 167.160156 Z M 346.960938 167.160156 "
    fill-opacity="1" fill-rule="nonzero" />
  <path fill="#12a149" d="M 682.847656 68.613281 L 679.703125 74.90625 " fill-opacity="1"
    fill-rule="nonzero" />
  <path fill="#000000"
    d="M 679.703125 76.332031 C 679.488281 76.332031 679.269531 76.28125 679.066406 76.179688 C 678.363281 75.828125 678.078125 74.972656 678.429688 74.269531 L 681.574219 67.976562 C 681.925781 67.273438 682.78125 66.988281 683.484375 67.339844 C 684.1875 67.691406 684.472656 68.546875 684.121094 69.25 L 680.976562 75.542969 C 680.726562 76.042969 680.222656 76.332031 679.703125 76.332031 Z M 679.703125 76.332031 "
    fill-opacity="1" fill-rule="nonzero" />
  <path fill="#12a149" d="M 692.449219 68.613281 L 689.308594 74.90625 " fill-opacity="1"
    fill-rule="nonzero" />
  <path fill="#000000"
    d="M 689.304688 76.332031 C 689.09375 76.332031 688.875 76.28125 688.671875 76.179688 C 687.96875 75.828125 687.683594 74.972656 688.035156 74.269531 L 691.179688 67.976562 C 691.53125 67.273438 692.386719 66.988281 693.085938 67.339844 C 693.789062 67.691406 694.074219 68.546875 693.722656 69.25 L 690.582031 75.542969 C 690.332031 76.042969 689.828125 76.332031 689.304688 76.332031 Z M 689.304688 76.332031 "
    fill-opacity="1" fill-rule="nonzero" />
  <path fill="#12a149" d="M 673.242188 68.613281 L 670.097656 74.90625 " fill-opacity="1"
    fill-rule="nonzero" />
  <path fill="#000000"
    d="M 670.097656 76.332031 C 669.882812 76.332031 669.667969 76.28125 669.460938 76.179688 C 668.757812 75.828125 668.472656 74.972656 668.824219 74.269531 L 671.96875 67.976562 C 672.320312 67.273438 673.175781 66.988281 673.878906 67.339844 C 674.582031 67.691406 674.867188 68.546875 674.515625 69.25 L 671.371094 75.542969 C 671.121094 76.042969 670.621094 76.332031 670.097656 76.332031 Z M 670.097656 76.332031 "
    fill-opacity="1" fill-rule="nonzero" />
  <path fill="#12a149" d="M 717.105469 215.976562 L 713.960938 222.269531 " fill-opacity="1"
    fill-rule="nonzero" />
  <path fill="#000000"
    d="M 713.960938 223.695312 C 713.746094 223.695312 713.527344 223.648438 713.324219 223.542969 C 712.621094 223.191406 712.335938 222.335938 712.6875 221.632812 L 715.832031 215.339844 C 716.183594 214.636719 717.039062 214.351562 717.742188 214.703125 C 718.445312 215.054688 718.730469 215.910156 718.378906 216.613281 L 715.234375 222.90625 C 714.984375 223.40625 714.480469 223.695312 713.960938 223.695312 Z M 713.960938 223.695312 "
    fill-opacity="1" fill-rule="nonzero" />
  <path fill="#12a149" d="M 726.707031 215.976562 L 723.566406 222.269531 " fill-opacity="1"
    fill-rule="nonzero" />
  <path fill="#000000"
    d="M 723.566406 223.695312 C 723.351562 223.695312 723.132812 223.648438 722.929688 223.542969 C 722.226562 223.191406 721.941406 222.335938 722.292969 221.632812 L 725.4375 215.339844 C 725.789062 214.636719 726.644531 214.351562 727.34375 214.703125 C 728.046875 215.054688 728.332031 215.910156 727.980469 216.613281 L 724.839844 222.90625 C 724.589844 223.40625 724.085938 223.695312 723.566406 223.695312 Z M 723.566406 223.695312 "
    fill-opacity="1" fill-rule="nonzero" />
  <path fill="#12a149" d="M 707.5 215.976562 L 704.355469 222.269531 " fill-opacity="1"
    fill-rule="nonzero" />
  <path fill="#000000"
    d="M 704.355469 223.695312 C 704.140625 223.695312 703.925781 223.648438 703.71875 223.542969 C 703.015625 223.191406 702.730469 222.335938 703.082031 221.632812 L 706.226562 215.339844 C 706.578125 214.636719 707.433594 214.351562 708.136719 214.703125 C 708.839844 215.054688 709.125 215.910156 708.773438 216.613281 L 705.628906 222.90625 C 705.378906 223.40625 704.878906 223.695312 704.355469 223.695312 Z M 704.355469 223.695312 "
    fill-opacity="1" fill-rule="nonzero" />
  <path fill="#12a149" d="M 565.257812 254.902344 L 562.113281 261.195312 " fill-opacity="1"
    fill-rule="nonzero" />
  <path fill="#000000"
    d="M 562.113281 262.621094 C 561.898438 262.621094 561.683594 262.574219 561.476562 262.472656 C 560.773438 262.121094 560.492188 261.261719 560.839844 260.558594 L 563.984375 254.265625 C 564.335938 253.5625 565.191406 253.277344 565.894531 253.628906 C 566.597656 253.980469 566.882812 254.835938 566.53125 255.542969 L 563.386719 261.835938 C 563.136719 262.332031 562.636719 262.621094 562.113281 262.621094 Z M 562.113281 262.621094 "
    fill-opacity="1" fill-rule="nonzero" />
  <path fill="#12a149" d="M 574.863281 254.902344 L 571.71875 261.195312 " fill-opacity="1"
    fill-rule="nonzero" />
  <path fill="#000000"
    d="M 571.71875 262.621094 C 571.503906 262.621094 571.289062 262.574219 571.082031 262.472656 C 570.378906 262.121094 570.09375 261.261719 570.445312 260.558594 L 573.589844 254.265625 C 573.941406 253.5625 574.796875 253.277344 575.5 253.628906 C 576.203125 253.980469 576.488281 254.835938 576.136719 255.542969 L 572.992188 261.835938 C 572.742188 262.332031 572.238281 262.621094 571.71875 262.621094 Z M 571.71875 262.621094 "
    fill-opacity="1" fill-rule="nonzero" />
  <path fill="#12a149" d="M 555.652344 254.902344 L 552.511719 261.195312 " fill-opacity="1"
    fill-rule="nonzero" />
  <path fill="#000000"
    d="M 552.507812 262.621094 C 552.296875 262.621094 552.078125 262.574219 551.875 262.472656 C 551.171875 262.121094 550.886719 261.261719 551.238281 260.558594 L 554.378906 254.265625 C 554.730469 253.5625 555.585938 253.277344 556.289062 253.628906 C 556.992188 253.980469 557.277344 254.835938 556.925781 255.542969 L 553.785156 261.835938 C 553.535156 262.332031 553.03125 262.621094 552.507812 262.621094 Z M 552.507812 262.621094 "
    fill-opacity="1" fill-rule="nonzero" />
  <path fill="#12a149" d="M 87.496094 120.515625 L 84.355469 126.808594 " fill-opacity="1"
    fill-rule="nonzero" />
  <path fill="#000000"
    d="M 84.351562 128.234375 C 84.140625 128.234375 83.921875 128.183594 83.71875 128.082031 C 83.015625 127.730469 82.730469 126.875 83.082031 126.171875 L 86.222656 119.878906 C 86.578125 119.175781 87.433594 118.890625 88.132812 119.242188 C 88.835938 119.59375 89.121094 120.449219 88.769531 121.152344 L 85.628906 127.445312 C 85.378906 127.945312 84.875 128.234375 84.351562 128.234375 Z M 84.351562 128.234375 "
    fill-opacity="1" fill-rule="nonzero" />
  <path fill="#12a149" d="M 97.101562 120.515625 L 93.957031 126.808594 " fill-opacity="1"
    fill-rule="nonzero" />
  <path fill="#000000"
    d="M 93.957031 128.234375 C 93.742188 128.234375 93.527344 128.183594 93.320312 128.082031 C 92.621094 127.730469 92.335938 126.875 92.6875 126.171875 L 95.828125 119.878906 C 96.179688 119.175781 97.035156 118.890625 97.738281 119.242188 C 98.441406 119.59375 98.726562 120.449219 98.375 121.152344 L 95.230469 127.445312 C 94.980469 127.945312 94.480469 128.234375 93.957031 128.234375 Z M 93.957031 128.234375 "
    fill-opacity="1" fill-rule="nonzero" />
  <path fill="#12a149" d="M 77.894531 120.515625 L 74.75 126.808594 " fill-opacity="1"
    fill-rule="nonzero" />
  <path fill="#000000"
    d="M 74.75 128.234375 C 74.535156 128.234375 74.316406 128.183594 74.113281 128.082031 C 73.410156 127.730469 73.125 126.875 73.476562 126.171875 L 76.621094 119.878906 C 76.972656 119.175781 77.828125 118.890625 78.53125 119.242188 C 79.230469 119.59375 79.515625 120.449219 79.164062 121.152344 L 76.023438 127.445312 C 75.773438 127.945312 75.269531 128.234375 74.75 128.234375 Z M 74.75 128.234375 "
    fill-opacity="1" fill-rule="nonzero" />
  <path fill="#12a149" d="M 217.121094 214.125 L 213.980469 220.417969 " fill-opacity="1"
    fill-rule="nonzero" />
  <path fill="#000000"
    d="M 213.976562 221.84375 C 213.765625 221.84375 213.546875 221.792969 213.34375 221.691406 C 212.640625 221.339844 212.355469 220.484375 212.707031 219.78125 L 215.847656 213.488281 C 216.203125 212.78125 217.058594 212.496094 217.757812 212.851562 C 218.460938 213.203125 218.746094 214.058594 218.394531 214.761719 L 215.253906 221.054688 C 215.003906 221.554688 214.5 221.84375 213.976562 221.84375 Z M 213.976562 221.84375 "
    fill-opacity="1" fill-rule="nonzero" />
  <path fill="#12a149" d="M 226.726562 214.125 L 223.582031 220.417969 " fill-opacity="1"
    fill-rule="nonzero" />
  <path fill="#000000"
    d="M 223.582031 221.84375 C 223.367188 221.84375 223.152344 221.792969 222.945312 221.691406 C 222.246094 221.339844 221.960938 220.484375 222.3125 219.78125 L 225.453125 213.488281 C 225.804688 212.78125 226.660156 212.496094 227.363281 212.851562 C 228.066406 213.203125 228.351562 214.058594 228 214.761719 L 224.855469 221.054688 C 224.605469 221.554688 224.105469 221.84375 223.582031 221.84375 Z M 223.582031 221.84375 "
    fill-opacity="1" fill-rule="nonzero" />
  <path fill="#12a149" d="M 207.519531 214.125 L 204.375 220.417969 " fill-opacity="1"
    fill-rule="nonzero" />
  <path fill="#000000"
    d="M 204.375 221.84375 C 204.160156 221.84375 203.941406 221.792969 203.738281 221.691406 C 203.035156 221.339844 202.75 220.484375 203.101562 219.78125 L 206.246094 213.488281 C 206.597656 212.78125 207.453125 212.496094 208.15625 212.851562 C 208.855469 213.203125 209.140625 214.058594 208.789062 214.761719 L 205.648438 221.054688 C 205.398438 221.554688 204.894531 221.84375 204.375 221.84375 Z M 204.375 221.84375 "
    fill-opacity="1" fill-rule="nonzero" />
</svg>