<svg xmlns="http://www.w3.org/2000/svg" xmlns:xlink="http://www.w3.org/1999/xlink" width="1080"
  zoomAndPan="magnify" viewBox="0 0 810 809.999993" height="1080"
  preserveAspectRatio="none" version="1.0">
  <polygon fill="#7dd95c" points="0,176 810,217 810,500 0,500" />
  <path fill="#000000"
    d="M 808.882812 221.804688 C 808.605469 221.675781 780.46875 208.3125 760.753906 198.1875 C 760.296875 197.6875 737.828125 172.871094 733.859375 171.28125 C 732.046875 170.570312 723.703125 165.613281 714.453125 159.765625 C 704.425781 153.433594 697.507812 148.6875 696.84375 147.679688 C 695.273438 145.316406 668.703125 129.523438 667.539062 128.828125 C 667.261719 128.730469 639.136719 119.140625 635.28125 112.953125 C 634.117188 111.074219 632.320312 108.722656 629.757812 105.757812 C 626.988281 102.519531 623.765625 99.054688 620.65625 95.699219 C 618.5 93.382812 616.476562 91.199219 614.726562 89.238281 C 608.230469 81.933594 593.097656 79.777344 586.8125 85.269531 C 584.253906 87.519531 573.414062 91.375 555.496094 96.445312 C 542.636719 100.074219 530.421875 103.101562 529.351562 103.363281 C 527.925781 102.617188 504.921875 90.710938 503.449219 88.460938 C 501.84375 86.0625 483.617188 78.078125 478.726562 80.054688 C 476.328125 81.023438 471.875 80.035156 466.785156 77.414062 C 460.679688 74.253906 454.34375 69.039062 448.949219 62.71875 C 437.222656 48.96875 410.476562 35.636719 410.214844 35.507812 L 410.136719 35.457031 L 410.054688 35.492188 C 409.8125 35.605469 385.460938 46.585938 376.097656 51.269531 C 372.066406 53.277344 363.480469 58.152344 355.621094 62.65625 C 352.578125 64.40625 349.449219 66.203125 346.40625 67.953125 C 337.136719 73.28125 328.40625 78.320312 325.230469 79.972656 C 323.59375 77.640625 321.957031 75.144531 320.210938 72.503906 C 317.179688 67.886719 314.035156 63.125 310.554688 58.636719 C 308.15625 55.578125 305.9375 53.050781 303.75 50.929688 C 297.414062 44.742188 291.277344 35.945312 285.332031 27.441406 C 275.757812 13.71875 267.496094 1.878906 261.046875 4.859375 C 250.921875 9.523438 235.144531 30.582031 226.332031 47.414062 C 219.1875 61.066406 211.039062 71.953125 200.703125 81.671875 C 199.03125 79.824219 183.511719 62.785156 177.796875 62.625 C 177.195312 62.589844 176.695312 62.785156 176.320312 63.140625 C 172.367188 67.09375 156.574219 82.886719 151.046875 88.394531 C 145.6875 93.757812 127.429688 104.933594 122.730469 105.710938 C 118.148438 106.488281 100.957031 92.492188 100.78125 92.347656 L 100.683594 92.265625 L 100.570312 92.316406 C 100.472656 92.363281 90.121094 97.160156 76.835938 108.109375 C 68.363281 115.089844 60.472656 125.585938 54.125 134.027344 C 50.347656 139.046875 47.078125 143.386719 44.453125 146.011719 C 37.453125 153.011719 0.664062 174.960938 0.292969 175.1875 L 0 175.378906 L 0.226562 175.558594 C 0.339844 175.640625 11.484375 184.273438 22.46875 183.511719 C 33.386719 182.71875 64.769531 190.300781 70.679688 195.078125 C 60.929688 198.769531 54.042969 202.011719 50.785156 204.441406 L 33.355469 214.613281 L 34.410156 214.453125 C 35.21875 214.320312 115.683594 201.816406 122.195312 209.476562 C 145.21875 236.660156 188.066406 231.621094 208.65625 229.207031 C 211.152344 228.917969 213.289062 228.65625 215.105469 228.496094 C 229.828125 227.152344 264.855469 233.742188 283.660156 237.273438 C 286.871094 237.875 289.640625 238.390625 291.648438 238.75 C 296.136719 239.542969 302.535156 239.800781 309.664062 239.800781 C 317.308594 239.800781 325.8125 239.492188 333.769531 239.21875 C 340.476562 238.976562 346.824219 238.75 351.6875 238.75 C 359.234375 238.75 378.691406 235.71875 399.296875 232.496094 C 421.878906 228.980469 445.222656 225.335938 455.105469 225.335938 C 463.820312 225.335938 486.128906 228.203125 509.765625 231.25 C 537.128906 234.765625 568.132812 238.75 582.210938 238.75 C 609.007812 238.75 623.085938 232.609375 634.40625 227.667969 C 658.773438 217.058594 704.894531 216.121094 739.269531 217.203125 C 776.546875 218.386719 808.460938 222.113281 808.785156 222.160156 L 810.015625 222.308594 Z M 760.636719 198.351562 C 760.636719 198.351562 760.621094 198.351562 760.636719 198.351562 Z M 760.636719 198.351562 "
    fill-opacity="1" fill-rule="nonzero" />
  <path fill="#699f80"
    d="M 212.171875 175.121094 C 217.339844 178.78125 222.359375 183.804688 226.945312 190.414062 C 239.566406 208.570312 285.363281 201.476562 294.046875 211.730469 C 302.730469 221.984375 349.304688 195.9375 354.050781 195.9375 C 358.78125 195.9375 402.214844 210.191406 411.675781 214.128906 C 421.152344 218.046875 455.105469 205.414062 464.582031 203.824219 C 474.0625 202.253906 496.953125 197.523438 504.046875 195.144531 C 505.683594 194.609375 508.097656 193.085938 510.964844 191.011719 C 520.652344 184.03125 535.605469 170.730469 543.527344 167.28125 C 553.796875 162.777344 585.371094 180.921875 605.101562 185.667969 C 616.800781 188.46875 632.351562 188.746094 645.214844 186.960938 C 654.089844 185.730469 661.707031 183.511719 665.902344 180.484375 C 676.171875 173.046875 730.636719 181.570312 746.429688 190.71875 C 749.929688 192.761719 754.9375 195.417969 760.605469 198.332031 C 760.621094 198.351562 760.621094 198.351562 760.621094 198.351562 C 780.582031 208.605469 808.785156 221.984375 808.785156 221.984375 C 808.785156 221.984375 681.550781 206.933594 634.3125 227.507812 C 621.917969 232.902344 608.261719 238.570312 582.195312 238.570312 C 556.144531 238.570312 474.042969 225.160156 455.089844 225.160156 C 436.136719 225.160156 367.449219 238.570312 351.667969 238.570312 C 335.875 238.570312 305.09375 240.9375 291.664062 238.570312 C 278.25 236.191406 232.4375 226.714844 215.070312 228.300781 C 197.703125 229.886719 147.972656 239.625 122.328125 209.347656 C 115.667969 201.507812 34.34375 214.242188 34.34375 214.242188 L 50.851562 204.601562 C 54.320312 202.011719 61.738281 198.640625 71.054688 195.125 C 78.085938 192.46875 86.183594 189.730469 94.480469 187.171875 C 115.34375 180.726562 137.359375 175.378906 146.382812 175.378906 C 163.75 175.378906 171.65625 169.078125 185.070312 167.492188 C 193.636719 166.519531 203.132812 168.707031 212.171875 175.121094 Z M 212.171875 175.121094 "
    fill-opacity="1" fill-rule="nonzero" />
  <path fill="#e6f4ff"
    d="M 606.691406 156.445312 C 602.738281 156.429688 569.574219 149.367188 561.6875 147 C 553.796875 144.621094 530.890625 126.460938 521.429688 126.414062 C 524.296875 133.960938 522.125 142.609375 516.359375 150.53125 C 510.609375 158.46875 494.730469 171.460938 500.5 172.15625 C 506.265625 172.886719 520.734375 179.558594 510.980469 190.996094 L 510.980469 191.011719 C 520.667969 184.03125 535.621094 170.730469 543.542969 167.28125 C 553.8125 162.777344 585.386719 180.921875 605.117188 185.667969 C 616.816406 188.46875 632.367188 188.746094 645.230469 186.960938 L 645.230469 186.945312 C 638.75 183.480469 610.625 156.476562 606.691406 156.445312 Z M 606.691406 156.445312 "
    fill-opacity="1" fill-rule="nonzero" />
  <path fill="#e6f4ff"
    d="M 594.945312 113.777344 C 600.710938 119.542969 606.496094 105.210938 606.496094 105.210938 C 606.496094 105.210938 612.261719 107.867188 620.914062 115.15625 C 629.5625 122.429688 629.613281 105.890625 629.613281 105.890625 C 624.929688 100.414062 618.839844 94.160156 614.578125 89.367188 C 608.277344 82.273438 593.277344 79.890625 586.941406 85.414062 C 583.765625 88.199219 569.21875 92.769531 555.546875 96.640625 C 567.566406 99.363281 575.488281 100.804688 581.984375 102.226562 C 588.464844 103.6875 589.195312 108.011719 594.945312 113.777344 Z M 594.945312 113.777344 "
    fill-opacity="1" fill-rule="nonzero" />
  <path fill="#e6f4ff"
    d="M 448.789062 62.851562 C 436.945312 48.984375 410.121094 35.683594 410.121094 35.683594 C 410.121094 35.683594 385.640625 46.734375 376.164062 51.460938 C 372.308594 53.390625 364.304688 57.910156 355.6875 62.851562 C 358.457031 73.410156 375.03125 78.140625 381.527344 71.453125 C 388.007812 64.746094 398.113281 60.386719 405.324219 68.699219 C 412.515625 77.007812 428.683594 83.925781 428.683594 83.925781 C 428.683594 83.925781 432.003906 71.628906 434.871094 71.433594 C 437.757812 71.226562 450.878906 81.039062 466.671875 77.574219 C 461.199219 74.773438 454.796875 69.894531 448.789062 62.851562 Z M 448.789062 62.851562 "
    fill-opacity="1" fill-rule="nonzero" />
  <path fill="#e6f4ff"
    d="M 389.578125 175.121094 C 387.210938 175.625 359.589844 160.429688 357.210938 158.046875 C 354.84375 155.683594 315.367188 133.589844 314.585938 129.003906 C 300.039062 135.402344 297.886719 144.054688 306.535156 153.433594 C 315.1875 162.8125 317.195312 191.011719 317.195312 191.011719 L 333.945312 174.601562 C 333.945312 174.601562 345.480469 166.746094 346.90625 166.585938 C 348.347656 166.40625 380.457031 185.894531 383.695312 186.960938 C 407.800781 194.867188 415.644531 186.476562 415.644531 186.476562 C 415.644531 186.476562 391.941406 174.636719 389.578125 175.121094 Z M 389.578125 175.121094 "
    fill-opacity="1" fill-rule="nonzero" />
  <path fill="#e6f4ff"
    d="M 310.132812 71.453125 L 310.132812 58.945312 L 310.34375 58.785156 C 308.203125 56.046875 305.96875 53.4375 303.554688 51.089844 C 287.03125 34.972656 271.300781 0.339844 261.078125 5.054688 C 260.382812 25.804688 248.121094 55.367188 245.234375 58.980469 C 242.351562 62.589844 258.875 66.898438 261.078125 67.628906 C 262.472656 68.082031 262.101562 74.433594 258.632812 83.648438 C 268.304688 74.109375 271.902344 58.25 275.511719 58.980469 C 279.125 59.691406 290.660156 80.910156 294.273438 83.648438 C 297.886719 86.371094 296.425781 68.339844 300.023438 66.898438 C 303.636719 65.472656 310.132812 71.453125 310.132812 71.453125 Z M 310.132812 71.453125 "
    fill-opacity="1" fill-rule="nonzero" />
  <path fill="#405d84"
    d="M 733.796875 171.460938 C 729.84375 169.890625 698.269531 150.160156 696.679688 147.777344 C 695.109375 145.414062 667.472656 129.003906 667.472656 129.003906 C 667.472656 129.003906 639.042969 119.367188 635.105469 113.050781 C 633.824219 110.992188 631.863281 108.53125 629.613281 105.890625 C 629.613281 105.890625 629.5625 122.429688 620.914062 115.15625 C 612.261719 107.867188 606.496094 105.210938 606.496094 105.210938 C 606.496094 105.210938 600.726562 119.542969 594.945312 113.777344 C 589.195312 108.011719 588.464844 103.6875 581.984375 102.226562 C 575.488281 100.785156 567.566406 99.34375 555.546875 96.640625 C 542.003906 100.460938 529.320312 103.574219 529.320312 103.574219 C 529.320312 103.574219 504.839844 90.953125 503.269531 88.574219 C 501.679688 86.207031 483.519531 78.320312 478.789062 80.246094 C 476.457031 81.203125 472.019531 80.359375 466.671875 77.589844 C 450.878906 81.058594 437.738281 71.242188 434.871094 71.453125 C 431.988281 71.644531 428.683594 83.941406 428.683594 83.941406 C 428.683594 83.941406 412.515625 77.023438 405.324219 68.714844 C 398.113281 60.402344 388.007812 64.746094 381.527344 71.46875 C 375.03125 78.15625 358.457031 73.425781 355.6875 62.867188 C 343.082031 70.089844 329.183594 78.175781 325.148438 80.261719 L 325.132812 80.28125 C 330.933594 88.507812 336.375 94.257812 342.644531 92.574219 C 355.71875 89.058594 361.179688 80.34375 374.253906 86.886719 C 387.324219 93.433594 400.398438 114.132812 421.101562 126.121094 C 441.804688 138.109375 428.683594 126.445312 472.328125 155.554688 L 472.957031 156.460938 C 460.386719 165.320312 449.90625 172.773438 448.011719 173.082031 C 443.28125 173.875 415.644531 186.492188 415.644531 186.492188 C 415.644531 186.492188 407.800781 194.882812 383.695312 186.980469 C 380.457031 185.910156 348.347656 166.421875 346.90625 166.601562 C 345.464844 166.761719 333.945312 174.621094 333.945312 174.621094 L 317.195312 191.027344 C 317.195312 191.027344 315.1875 162.828125 306.535156 153.449219 C 297.886719 144.070312 300.039062 135.417969 314.585938 129.019531 C 313.792969 124.453125 278.265625 124.890625 264.835938 139.113281 C 263.023438 141.023438 260.835938 143 258.390625 144.960938 C 265 122.121094 238.027344 119.542969 249.578125 101.53125 C 253.742188 95.019531 256.671875 88.898438 258.648438 83.664062 C 262.117188 74.449219 262.488281 68.097656 261.09375 67.644531 C 258.890625 66.914062 242.367188 62.605469 245.25 58.996094 C 248.136719 55.382812 260.398438 25.820312 261.09375 5.070312 C 250.855469 9.785156 235.125 31.019531 226.476562 47.542969 C 219.265625 61.3125 210.957031 72.34375 200.652344 81.996094 C 198.578125 83.957031 196.457031 85.835938 194.222656 87.667969 C 180.855469 98.679688 172.207031 110.472656 158.03125 130.933594 C 143.871094 151.390625 118.828125 167.28125 94.445312 186.945312 L 94.527344 187.1875 C 115.394531 180.742188 137.410156 175.398438 146.433594 175.398438 C 163.796875 175.398438 171.703125 169.09375 185.117188 167.507812 C 193.65625 166.503906 203.148438 168.707031 212.1875 175.105469 C 217.355469 178.765625 222.378906 183.789062 226.960938 190.398438 C 239.582031 208.554688 285.378906 201.460938 294.0625 211.714844 C 302.746094 221.96875 349.320312 195.921875 354.066406 195.921875 C 358.8125 195.921875 402.230469 210.175781 411.691406 214.109375 C 421.167969 218.03125 455.121094 205.394531 464.601562 203.808594 C 474.078125 202.238281 496.96875 197.507812 504.0625 195.125 C 505.699219 194.59375 508.113281 193.070312 510.980469 190.996094 L 510.980469 190.980469 C 520.734375 179.542969 506.28125 172.871094 500.5 172.140625 C 494.730469 171.429688 510.609375 158.453125 516.359375 150.515625 C 522.125 142.59375 524.296875 133.945312 521.429688 126.398438 C 530.890625 126.445312 553.796875 144.605469 561.6875 146.984375 C 569.574219 149.351562 602.738281 156.414062 606.691406 156.429688 C 610.644531 156.460938 638.75 183.464844 645.214844 186.929688 L 645.214844 186.945312 C 654.089844 185.714844 661.707031 183.496094 665.902344 180.46875 C 676.171875 173.03125 730.636719 181.550781 746.429688 190.703125 C 749.929688 192.746094 754.9375 195.402344 760.605469 198.316406 C 759.925781 197.554688 737.667969 173.015625 733.796875 171.460938 Z M 733.796875 171.460938 "
    fill-opacity="1" fill-rule="nonzero" />
  <path fill="#aeccec"
    d="M 472.328125 155.519531 C 428.683594 126.414062 441.804688 138.074219 421.101562 126.089844 C 400.382812 114.085938 387.324219 93.398438 374.253906 86.855469 C 361.179688 80.328125 355.71875 89.042969 342.644531 92.542969 C 336.375 94.242188 330.933594 88.476562 325.132812 80.246094 C 320.613281 73.816406 315.867188 65.863281 310.359375 58.785156 L 310.148438 58.945312 L 310.148438 71.453125 C 310.148438 71.453125 303.652344 65.472656 300.039062 66.914062 C 296.425781 68.359375 297.886719 86.386719 294.289062 83.664062 C 290.675781 80.925781 279.140625 59.707031 275.53125 58.996094 C 271.917969 58.265625 268.320312 74.125 258.648438 83.664062 C 256.671875 88.882812 253.742188 95.019531 249.578125 101.53125 C 238.027344 119.542969 265 122.121094 258.390625 144.960938 C 260.851562 142.984375 263.023438 141.007812 264.835938 139.113281 C 278.265625 124.90625 313.792969 124.453125 314.585938 129.019531 C 315.367188 133.589844 354.84375 155.699219 357.210938 158.066406 C 359.589844 160.445312 387.210938 175.640625 389.578125 175.136719 C 391.960938 174.652344 415.644531 186.492188 415.644531 186.492188 C 415.644531 186.492188 443.28125 173.875 448.011719 173.082031 C 449.90625 172.773438 460.402344 165.320312 472.960938 156.460938 Z M 472.328125 155.519531 "
    fill-opacity="1" fill-rule="nonzero" />
  <path fill="#aeccec"
    d="M 176.417969 63.320312 C 172.464844 67.273438 156.671875 83.066406 151.144531 88.574219 C 145.621094 94.097656 127.460938 105.160156 122.714844 105.953125 C 117.984375 106.730469 100.617188 92.558594 100.617188 92.558594 C 100.617188 92.558594 90.347656 97.253906 76.933594 108.320312 C 63.519531 119.382812 51.679688 139.097656 44.566406 146.207031 C 37.46875 153.300781 0.355469 175.414062 0.355469 175.414062 C 0.355469 175.414062 11.421875 184.113281 22.453125 183.316406 C 33.519531 182.523438 65.886719 190.414062 71.070312 195.160156 C 78.101562 192.503906 86.199219 189.765625 94.496094 187.207031 L 94.414062 186.960938 C 118.8125 167.28125 143.855469 151.375 158.015625 130.933594 C 172.171875 110.472656 180.824219 98.679688 194.207031 87.667969 C 196.441406 85.820312 198.5625 83.941406 200.636719 81.996094 L 200.621094 81.980469 C 200.621094 81.980469 180.371094 59.367188 176.417969 63.320312 Z M 176.417969 63.320312 "
    fill-opacity="1" fill-rule="nonzero" />
  <path fill="#000000"
    d="M 808.882812 221.804688 C 808.605469 221.675781 780.46875 208.3125 760.753906 198.1875 C 760.296875 197.6875 737.828125 172.871094 733.859375 171.28125 C 732.046875 170.570312 723.703125 165.613281 714.453125 159.765625 C 704.425781 153.433594 697.507812 148.6875 696.84375 147.679688 C 695.273438 145.316406 668.703125 129.523438 667.539062 128.828125 C 667.261719 128.730469 639.136719 119.140625 635.28125 112.953125 C 634.117188 111.074219 632.320312 108.722656 629.757812 105.757812 C 626.988281 102.519531 623.765625 99.054688 620.65625 95.699219 C 618.5 93.382812 616.476562 91.199219 614.726562 89.238281 C 608.230469 81.933594 593.097656 79.777344 586.8125 85.269531 C 584.253906 87.519531 573.414062 91.375 555.496094 96.445312 C 542.636719 100.074219 530.421875 103.101562 529.351562 103.363281 C 527.925781 102.617188 504.921875 90.710938 503.449219 88.460938 C 501.84375 86.0625 483.617188 78.078125 478.726562 80.054688 C 476.328125 81.023438 471.875 80.035156 466.785156 77.414062 C 460.679688 74.253906 454.34375 69.039062 448.949219 62.71875 C 437.222656 48.96875 410.476562 35.636719 410.214844 35.507812 L 410.136719 35.457031 L 410.054688 35.492188 C 409.8125 35.605469 385.460938 46.585938 376.097656 51.269531 C 372.066406 53.277344 363.480469 58.152344 355.621094 62.65625 C 352.578125 64.40625 349.449219 66.203125 346.40625 67.953125 C 337.136719 73.28125 328.40625 78.320312 325.230469 79.972656 C 323.59375 77.640625 321.957031 75.144531 320.210938 72.503906 C 317.179688 67.886719 314.035156 63.125 310.554688 58.636719 C 308.15625 55.578125 305.9375 53.050781 303.75 50.929688 C 297.414062 44.742188 291.277344 35.945312 285.332031 27.441406 C 275.757812 13.71875 267.496094 1.878906 261.046875 4.859375 C 250.921875 9.523438 235.144531 30.582031 226.332031 47.414062 C 219.1875 61.066406 211.039062 71.953125 200.703125 81.671875 C 199.03125 79.824219 183.511719 62.785156 177.796875 62.625 C 177.195312 62.589844 176.695312 62.785156 176.320312 63.140625 C 172.367188 67.09375 156.574219 82.886719 151.046875 88.394531 C 145.6875 93.757812 127.429688 104.933594 122.730469 105.710938 C 118.148438 106.488281 100.957031 92.492188 100.78125 92.347656 L 100.683594 92.265625 L 100.570312 92.316406 C 100.472656 92.363281 90.121094 97.160156 76.835938 108.109375 C 68.363281 115.089844 60.472656 125.585938 54.125 134.027344 C 50.347656 139.046875 47.078125 143.386719 44.453125 146.011719 C 37.453125 153.011719 0.664062 174.960938 0.292969 175.1875 L 0 175.378906 L 0.226562 175.558594 C 0.339844 175.640625 11.484375 184.273438 22.46875 183.511719 C 33.386719 182.71875 64.769531 190.300781 70.679688 195.078125 C 60.929688 198.769531 54.042969 202.011719 50.785156 204.441406 L 33.355469 214.613281 L 34.410156 214.453125 C 35.21875 214.320312 115.683594 201.816406 122.195312 209.476562 C 145.21875 236.660156 188.066406 231.621094 208.65625 229.207031 C 211.152344 228.917969 213.289062 228.65625 215.105469 228.496094 C 229.828125 227.152344 264.855469 233.742188 283.660156 237.273438 C 286.871094 237.875 289.640625 238.390625 291.648438 238.75 C 296.136719 239.542969 302.535156 239.800781 309.664062 239.800781 C 317.308594 239.800781 325.8125 239.492188 333.769531 239.21875 C 340.476562 238.976562 346.824219 238.75 351.6875 238.75 C 359.234375 238.75 378.691406 235.71875 399.296875 232.496094 C 421.878906 228.980469 445.222656 225.335938 455.105469 225.335938 C 463.820312 225.335938 486.128906 228.203125 509.765625 231.25 C 537.128906 234.765625 568.132812 238.75 582.210938 238.75 C 609.007812 238.75 623.085938 232.609375 634.40625 227.667969 C 658.773438 217.058594 704.894531 216.121094 739.269531 217.203125 C 776.546875 218.386719 808.460938 222.113281 808.785156 222.160156 L 810.015625 222.308594 Z M 587.070312 85.578125 C 593.226562 80.199219 608.050781 82.320312 614.417969 89.496094 C 616.167969 91.457031 618.207031 93.660156 620.347656 95.976562 C 623.441406 99.3125 626.648438 102.746094 629.402344 105.96875 C 629.386719 106.714844 629.191406 115.042969 625.902344 116.5625 C 624.625 117.164062 622.988281 116.628906 621.042969 115.007812 C 612.472656 107.785156 606.640625 105.0625 606.578125 105.03125 L 606.382812 104.949219 L 606.300781 105.144531 C 606.269531 105.242188 602.671875 114.039062 598.460938 114.894531 C 597.292969 115.136719 596.144531 114.71875 595.074219 113.648438 C 593.195312 111.769531 591.851562 110.035156 590.667969 108.496094 C 588.207031 105.324219 586.441406 103.039062 582.015625 102.050781 C 579.441406 101.484375 576.671875 100.917969 573.480469 100.269531 C 568.683594 99.296875 563.242188 98.179688 556.355469 96.640625 C 574.128906 91.570312 584.480469 87.859375 587.070312 85.578125 Z M 376.246094 51.640625 C 385.316406 47.105469 408.484375 36.640625 410.101562 35.914062 C 411.789062 36.753906 437.285156 49.679688 448.625 62.980469 C 453.90625 69.167969 460.097656 74.300781 466.089844 77.492188 C 454.914062 79.730469 445.273438 75.453125 439.472656 72.859375 C 437.304688 71.890625 435.828125 71.242188 434.96875 71.242188 C 434.9375 71.242188 434.890625 71.242188 434.855469 71.242188 C 432.054688 71.433594 429.023438 81.898438 428.539062 83.648438 C 426.609375 82.789062 412.09375 76.230469 405.453125 68.566406 C 402.878906 65.585938 399.785156 64.03125 396.269531 63.953125 C 396.15625 63.953125 396.042969 63.953125 395.929688 63.953125 C 391.179688 63.953125 385.898438 66.625 381.347656 71.320312 C 378.5625 74.1875 373.507812 75.113281 368.175781 73.71875 C 362.054688 72.117188 357.257812 67.886719 355.898438 62.964844 C 363.753906 58.460938 372.242188 53.648438 376.246094 51.640625 Z M 319.835938 72.746094 C 321.617188 75.453125 323.289062 77.996094 324.972656 80.375 C 331.078125 89.027344 336.425781 94.4375 342.695312 92.734375 C 346.890625 91.601562 350.375 89.917969 353.433594 88.425781 C 360.09375 85.1875 365.34375 82.628906 374.15625 87.035156 C 380.199219 90.0625 386.160156 96.039062 393.0625 102.957031 C 400.933594 110.863281 409.875 119.820312 421.003906 126.265625 C 428.441406 130.574219 431.488281 131.808594 434.433594 133.023438 C 439.699219 135.175781 444.253906 137.039062 472.230469 155.683594 L 472.457031 155.34375 C 444.445312 136.667969 439.878906 134.804688 434.597656 132.632812 C 431.664062 131.433594 428.636719 130.203125 421.214844 125.910156 C 410.136719 119.496094 401.226562 110.554688 393.367188 102.664062 C 386.433594 95.714844 380.457031 89.707031 374.351562 86.660156 C 365.359375 82.175781 360.027344 84.765625 353.273438 88.054688 C 350.226562 89.546875 346.761719 91.214844 342.597656 92.332031 C 336.585938 93.949219 331.386719 88.703125 325.441406 80.3125 C 328.664062 78.628906 337.363281 73.621094 346.582031 68.308594 C 349.5625 66.59375 352.609375 64.84375 355.589844 63.125 C 356.742188 67.175781 360.613281 72.082031 368.128906 74.074219 C 373.605469 75.515625 378.789062 74.5625 381.6875 71.582031 C 386.257812 66.851562 391.570312 64.242188 396.300781 64.339844 C 399.703125 64.4375 402.699219 65.945312 405.195312 68.828125 C 412.339844 77.074219 428.472656 84.039062 428.636719 84.101562 L 428.847656 84.199219 L 428.910156 83.972656 C 429.820312 80.585938 432.6875 71.792969 434.921875 71.644531 C 434.953125 71.644531 434.96875 71.644531 435.003906 71.644531 C 435.765625 71.644531 437.269531 72.308594 439.328125 73.234375 C 445.257812 75.875 455.15625 80.296875 466.671875 77.800781 C 471.839844 80.457031 476.394531 81.445312 478.886719 80.425781 C 483.503906 78.5625 501.585938 86.402344 503.125 88.671875 C 504.695312 91.066406 528.25 103.234375 529.253906 103.734375 L 529.320312 103.765625 L 529.398438 103.75 C 529.53125 103.71875 542.199219 100.59375 555.578125 96.835938 C 562.820312 98.46875 568.457031 99.621094 573.429688 100.640625 C 576.640625 101.289062 579.394531 101.855469 581.96875 102.421875 C 586.246094 103.378906 587.996094 105.628906 590.394531 108.722656 C 591.589844 110.261719 592.9375 112.011719 594.832031 113.90625 C 596 115.074219 597.261719 115.527344 598.574219 115.269531 C 602.6875 114.425781 606.042969 106.84375 606.625 105.484375 C 607.695312 106.003906 613.152344 108.835938 620.816406 115.300781 C 622.324219 116.5625 623.667969 117.195312 624.835938 117.195312 C 625.289062 117.195312 625.707031 117.097656 626.097656 116.921875 C 629.289062 115.429688 629.757812 108.449219 629.824219 106.425781 C 632.171875 109.175781 633.859375 111.398438 634.960938 113.144531 C 638.894531 119.449219 666.273438 128.792969 667.390625 129.167969 C 667.667969 129.328125 694.996094 145.574219 696.519531 147.875 C 698.105469 150.257812 729.679688 170.035156 733.714844 171.640625 C 737.019531 172.949219 754.644531 192.03125 759.730469 197.636719 C 754.046875 194.707031 749.605469 192.324219 746.542969 190.527344 C 739.109375 186.21875 722.066406 181.648438 704.132812 179.171875 C 684.804688 176.480469 670.484375 176.917969 665.789062 180.304688 C 661.851562 183.15625 654.578125 185.441406 645.292969 186.734375 C 642.425781 185.179688 635.460938 179.136719 628.074219 172.757812 C 618.695312 164.640625 608.992188 156.25 606.707031 156.234375 C 602.671875 156.21875 569.429688 149.089844 561.765625 146.804688 C 558.65625 145.867188 553.035156 142.367188 547.074219 138.640625 C 537.757812 132.828125 527.195312 126.25 521.445312 126.21875 C 521.445312 126.21875 521.429688 126.21875 521.429688 126.21875 C 515.9375 126.21875 495.316406 140.425781 472.863281 156.265625 L 471.015625 157.5625 C 459.59375 165.613281 449.746094 172.5625 447.996094 172.855469 C 443.378906 173.632812 417.667969 185.328125 415.660156 186.25 C 413.84375 185.34375 391.941406 174.425781 389.546875 174.925781 C 389.511719 174.925781 389.464844 174.941406 389.414062 174.941406 C 386.417969 174.941406 359.574219 160.136719 357.355469 157.917969 C 356.578125 157.140625 352.15625 154.453125 346.03125 150.726562 C 333.800781 143.273438 315.300781 132.015625 314.78125 128.988281 C 314.652344 128.257812 313.808594 127.644531 312.253906 127.175781 C 304.074219 124.710938 276.242188 126.738281 264.675781 138.964844 C 263.023438 140.714844 261.015625 142.546875 258.714844 144.410156 C 261.664062 133.410156 256.769531 127.09375 252.429688 121.503906 C 247.890625 115.671875 243.957031 110.621094 249.722656 101.628906 C 253.496094 95.699219 256.558594 89.691406 258.796875 83.761719 C 263.882812 78.742188 267.347656 71.839844 269.890625 66.800781 C 272.128906 62.363281 273.910156 58.847656 275.464844 59.171875 C 277.425781 59.5625 282.121094 66.707031 286.253906 73.007812 C 289.492188 77.945312 292.554688 82.597656 294.128906 83.792969 C 294.402344 84.003906 294.679688 84.117188 294.9375 84.117188 C 295.050781 84.117188 295.179688 84.101562 295.292969 84.054688 C 296.507812 83.535156 296.914062 80.230469 297.382812 76.390625 C 297.886719 72.328125 298.453125 67.726562 300.074219 67.078125 C 303.507812 65.699219 309.90625 71.515625 309.972656 71.582031 L 310.3125 71.890625 L 310.3125 59.09375 C 313.746094 63.515625 316.839844 68.210938 319.835938 72.746094 Z M 258.503906 145.105469 C 261.015625 143.097656 263.183594 141.121094 264.96875 139.242188 C 276.4375 127.109375 304.027344 125.117188 312.140625 127.5625 C 313.371094 127.933594 314.117188 128.421875 314.3125 128.921875 C 306.730469 132.292969 302.390625 136.34375 301.433594 140.941406 C 300.605469 144.878906 302.277344 149.140625 306.375 153.578125 C 314.878906 162.792969 316.953125 190.753906 316.984375 191.027344 L 317.019531 191.464844 L 334.058594 174.78125 C 337.25 172.59375 345.789062 166.925781 346.9375 166.796875 C 347.78125 166.796875 357.453125 172.398438 366.007812 177.339844 C 374.285156 182.136719 382.09375 186.65625 383.632812 187.15625 C 407.1875 194.882812 415.191406 187.238281 415.757812 186.636719 C 416.617188 186.25 443.425781 174.019531 448.042969 173.257812 C 449.890625 172.96875 459.300781 166.308594 471.242188 157.902344 L 473.089844 156.605469 C 489.921875 144.75 515.273438 126.882812 521.300781 126.65625 C 523.957031 133.832031 522.160156 142.269531 516.195312 150.453125 C 514.203125 153.203125 510.980469 156.574219 507.855469 159.832031 C 502.800781 165.109375 498.441406 169.664062 499.121094 171.558594 C 499.285156 172.027344 499.738281 172.320312 500.464844 172.398438 C 502.152344 172.609375 504.921875 173.386719 507.675781 174.941406 C 509.75 176.109375 512.453125 178.101562 513.554688 180.96875 C 514.738281 184.03125 513.816406 187.382812 510.820312 190.898438 C 507.609375 193.199219 505.441406 194.496094 503.980469 194.980469 C 496.789062 197.394531 473.476562 202.171875 464.550781 203.648438 C 461.75 204.117188 456.773438 205.558594 451.023438 207.226562 C 437.238281 211.226562 418.363281 216.703125 411.753906 213.964844 C 402.878906 210.273438 358.894531 195.757812 354.050781 195.757812 C 352.691406 195.757812 348.203125 197.734375 342.015625 200.488281 C 326.445312 207.371094 300.378906 218.90625 294.207031 211.632812 C 290.449219 207.195312 280.113281 205.980469 268.140625 204.585938 C 252.28125 202.738281 234.300781 200.648438 227.125 190.316406 C 222.765625 184.046875 217.859375 178.945312 212.496094 175.121094 C 214.230469 173.550781 219.265625 170.539062 225.648438 166.746094 C 235.5 160.851562 249.027344 152.800781 258.503906 145.105469 Z M 314.457031 129.28125 C 315.785156 132.746094 333.089844 143.292969 345.804688 151.035156 C 351.667969 154.613281 356.304688 157.433594 357.046875 158.179688 C 359.007812 160.136719 385.980469 175.316406 389.433594 175.316406 C 389.496094 175.316406 389.546875 175.316406 389.59375 175.300781 C 391.472656 174.925781 408.515625 183.140625 415.269531 186.507812 C 414.6875 187.027344 412.644531 188.582031 408.597656 189.472656 C 404.09375 190.476562 396.121094 190.800781 383.730469 186.75 C 382.222656 186.25 374.058594 181.535156 366.167969 176.96875 C 354.796875 170.390625 347.78125 166.375 346.890625 166.375 C 346.875 166.375 346.875 166.375 346.859375 166.375 C 345.417969 166.535156 334.984375 173.613281 333.769531 174.457031 L 317.324219 190.558594 C 317.019531 186.960938 314.667969 161.984375 306.648438 153.300781 C 302.632812 148.960938 301.011719 144.8125 301.804688 141.023438 C 302.761719 136.554688 307.023438 132.601562 314.457031 129.28125 Z M 513.929688 180.789062 C 511.757812 175.1875 503.804688 172.382812 500.515625 171.960938 C 499.949219 171.898438 499.609375 171.703125 499.496094 171.378906 C 498.894531 169.710938 503.59375 164.804688 508.144531 160.074219 C 511.273438 156.800781 514.511719 153.433594 516.519531 150.660156 C 522.515625 142.433594 524.34375 133.929688 521.722656 126.640625 C 527.421875 126.882812 537.726562 133.296875 546.847656 138.984375 C 553.085938 142.871094 558.480469 146.238281 561.636719 147.195312 C 569.316406 149.496094 602.640625 156.621094 606.691406 156.640625 C 608.8125 156.65625 618.90625 165.371094 627.796875 173.0625 C 634.84375 179.15625 641.503906 184.921875 644.628906 186.832031 C 631.234375 188.613281 616.167969 188.097656 605.152344 185.472656 C 597.667969 183.675781 588.351562 179.882812 579.34375 176.238281 C 564.199219 170.082031 549.894531 164.285156 543.460938 167.101562 C 538.148438 169.417969 529.851562 176.011719 521.835938 182.378906 C 518.304688 185.179688 514.980469 187.804688 512.015625 189.992188 C 514.398438 186.769531 515.046875 183.675781 513.929688 180.789062 Z M 284.941406 27.699219 C 290.886719 36.21875 297.042969 45.03125 303.410156 51.234375 C 305.597656 53.359375 307.800781 55.867188 310.179688 58.914062 C 310.199219 58.929688 310.199219 58.945312 310.214844 58.945312 L 309.9375 58.945312 L 309.9375 70.996094 C 308.527344 69.78125 303.214844 65.425781 299.960938 66.722656 C 298.113281 67.464844 297.546875 71.984375 297.011719 76.359375 C 296.589844 79.761719 296.152344 83.261719 295.164062 83.699219 C 294.953125 83.792969 294.710938 83.730469 294.402344 83.503906 C 292.878906 82.335938 289.835938 77.71875 286.609375 72.8125 C 282.21875 66.121094 277.683594 59.222656 275.5625 58.800781 C 273.699219 58.429688 272.046875 61.699219 269.550781 66.640625 C 267.007812 71.695312 263.832031 77.914062 259.167969 82.804688 C 261.890625 75.273438 262.519531 69.703125 261.710938 68.015625 C 261.566406 67.726562 261.371094 67.53125 261.144531 67.449219 C 260.882812 67.371094 260.449219 67.238281 259.863281 67.0625 C 256.074219 65.945312 246.03125 62.964844 245.15625 60.210938 C 245.042969 59.820312 245.105469 59.464844 245.398438 59.125 C 248.460938 55.285156 260.542969 25.691406 261.273438 5.230469 C 267.414062 2.574219 275.917969 14.773438 284.941406 27.699219 Z M 226.636719 47.640625 C 235.335938 31.035156 250.808594 10.320312 260.851562 5.410156 C 260.042969 25.789062 248.101562 55.058594 245.074219 58.867188 C 244.699219 59.320312 244.605469 59.820312 244.765625 60.324219 C 245.59375 62.949219 253.207031 65.507812 259.734375 67.433594 C 260.316406 67.613281 260.753906 67.742188 261.015625 67.824219 C 261.144531 67.855469 261.242188 67.984375 261.339844 68.179688 C 262.132812 69.816406 261.386719 75.777344 258.453125 83.585938 C 256.21875 89.496094 253.171875 95.507812 249.398438 101.417969 C 243.484375 110.652344 247.488281 115.804688 252.121094 121.746094 C 256.476562 127.335938 261.402344 133.6875 258.195312 144.832031 C 248.734375 152.507812 235.273438 160.527344 225.421875 166.390625 C 218.960938 170.246094 213.855469 173.289062 212.140625 174.863281 C 203.601562 168.851562 194.238281 166.246094 185.070312 167.3125 C 179.542969 167.960938 175.039062 169.386719 170.261719 170.894531 C 163.554688 173.015625 156.605469 175.203125 146.398438 175.203125 C 136.921875 175.203125 113.738281 181.050781 94.835938 186.882812 C 100.828125 182.054688 106.902344 177.40625 112.769531 172.933594 C 130.636719 159.296875 147.535156 146.417969 158.160156 131.046875 C 172.902344 109.761719 181.277344 98.550781 194.304688 87.828125 C 196.601562 85.917969 198.726562 84.070312 200.75 82.140625 C 211.214844 72.359375 219.445312 61.390625 226.636719 47.640625 Z M 22.4375 183.105469 C 12.472656 183.835938 2.363281 176.660156 0.710938 175.429688 C 4.035156 173.453125 37.972656 153.074219 44.695312 146.351562 C 47.335938 143.710938 50.609375 139.355469 54.398438 134.316406 C 60.734375 125.894531 68.625 115.414062 77.046875 108.464844 C 89.539062 98.164062 99.417969 93.335938 100.570312 92.785156 C 102.125 94.046875 118.097656 106.925781 122.730469 106.148438 C 127.589844 105.339844 145.71875 94.257812 151.257812 88.71875 C 156.785156 83.210938 172.59375 67.417969 176.53125 63.464844 C 176.824219 63.175781 177.210938 63.042969 177.699219 63.0625 C 183.191406 63.207031 198.855469 80.359375 200.3125 81.980469 C 198.335938 83.84375 196.277344 85.65625 194.027344 87.503906 C 180.953125 98.277344 172.5625 109.484375 157.804688 130.800781 C 147.191406 146.109375 130.34375 158.972656 112.492188 172.59375 C 106.53125 177.144531 100.359375 181.859375 94.25 186.785156 L 94.414062 186.980469 C 94.414062 186.980469 94.398438 186.980469 94.398438 186.980469 C 86.101562 189.539062 78.050781 192.277344 71.070312 194.898438 C 65.59375 190.121094 33.535156 182.328125 22.4375 183.105469 Z M 739.285156 216.832031 C 704.863281 215.746094 658.691406 216.6875 634.246094 227.328125 C 622.953125 232.253906 608.925781 238.375 582.210938 238.375 C 568.167969 238.375 537.175781 234.390625 509.8125 230.875 C 486.179688 227.832031 463.839844 224.964844 455.105469 224.964844 C 445.175781 224.964844 421.816406 228.609375 399.234375 232.140625 C 378.644531 235.347656 359.203125 238.390625 351.6875 238.390625 C 346.808594 238.390625 340.476562 238.621094 333.753906 238.863281 C 318.394531 239.414062 300.980469 240.027344 291.714844 238.390625 C 289.703125 238.035156 286.933594 237.519531 283.726562 236.917969 C 264.902344 233.371094 229.863281 226.777344 215.070312 228.140625 C 213.257812 228.300781 211.101562 228.558594 208.605469 228.851562 C 188.082031 231.265625 145.378906 236.269531 122.503906 209.269531 C 116.1875 201.832031 45.359375 212.410156 35.398438 213.933594 L 50.996094 204.828125 C 54.269531 202.382812 61.234375 199.109375 71.152344 195.386719 C 78.148438 192.746094 86.25 189.992188 94.574219 187.433594 C 113.53125 181.570312 136.90625 175.65625 146.414062 175.65625 C 156.6875 175.65625 163.667969 173.453125 170.40625 171.332031 C 175.15625 169.824219 179.640625 168.414062 185.132812 167.765625 C 194.253906 166.699219 203.570312 169.304688 212.058594 175.332031 C 217.453125 179.136719 222.410156 184.273438 226.785156 190.574219 C 234.074219 201.054688 252.136719 203.160156 268.09375 205.007812 C 279.984375 206.382812 290.238281 207.582031 293.898438 211.90625 C 300.265625 219.425781 326.496094 207.808594 342.175781 200.875 C 348.105469 198.253906 352.789062 196.179688 354.050781 196.179688 C 358.554688 196.179688 401.550781 210.175781 411.59375 214.355469 C 418.347656 217.140625 437.304688 211.648438 451.136719 207.632812 C 456.871094 205.964844 461.828125 204.539062 464.617188 204.066406 C 473.542969 202.59375 496.902344 197.800781 504.113281 195.386719 C 505.617188 194.898438 507.835938 193.570312 511.09375 191.238281 C 514.316406 188.90625 518.09375 185.910156 522.078125 182.75 C 530.082031 176.402344 538.359375 169.824219 543.605469 167.523438 C 549.894531 164.769531 564.78125 170.8125 579.183594 176.660156 C 588.207031 180.320312 597.519531 184.113281 605.054688 185.925781 C 616.246094 188.597656 631.652344 189.101562 645.246094 187.222656 C 654.640625 185.925781 662.011719 183.609375 666.015625 180.710938 C 670.550781 177.421875 685.128906 177.015625 704.066406 179.640625 C 721.953125 182.121094 738.945312 186.671875 746.335938 190.949219 C 749.574219 192.84375 754.351562 195.402344 760.523438 198.5625 L 760.589844 198.429688 L 760.636719 198.382812 L 760.542969 198.578125 C 778.054688 207.582031 802.222656 219.132812 807.617188 221.691406 C 801.460938 220.964844 772.496094 217.886719 739.285156 216.832031 Z M 739.285156 216.832031 "
    fill-opacity="1" fill-rule="nonzero" />
</svg>