<svg xmlns="http://www.w3.org/2000/svg" xmlns:xlink="http://www.w3.org/1999/xlink" width="1080" zoomAndPan="magnify" viewBox="0 0 810 809.999993" height="1080" preserveAspectRatio="xMidYMid meet" version="1.0"><defs><clipPath id="320d23611d"><path d="M 0 0 L 64.5 0 L 64.5 27.75 L 0 27.75 Z M 0 0 " clip-rule="nonzero"/></clipPath></defs><g clip-path="url(#320d23611d)"><path fill="#000000" d="M 59.1875 3.726562 C 55.074219 3.5 50.152344 5.730469 44.449219 8.3125 C 32.191406 13.867188 18.296875 20.160156 6.074219 5.917969 C 5.671875 5.449219 4.96875 5.398438 4.5 5.804688 C 4.035156 6.207031 3.984375 6.914062 4.386719 7.382812 C 8.621094 12.316406 13.234375 21.9375 18.539062 25.941406 C 20.039062 27.070312 21.597656 27.753906 23.214844 27.753906 C 23.882812 27.753906 24.558594 27.726562 25.242188 27.675781 C 26.582031 27.578125 27.925781 26.984375 29.261719 26.066406 C 34.917969 22.195312 40.464844 12.574219 45.367188 10.355469 C 50.800781 7.890625 55.496094 5.765625 59.0625 5.964844 C 59.679688 6 60.203125 5.527344 60.238281 4.910156 C 60.273438 4.292969 59.800781 3.765625 59.1875 3.726562 Z M 1.03125 6.847656 C 1.078125 6.742188 1.128906 6.640625 1.183594 6.542969 L 1.351562 6.257812 C 1.449219 6.066406 1.585938 5.898438 1.695312 5.722656 C 1.953125 5.390625 2.210938 5.085938 2.5 4.816406 C 2.792969 4.554688 3.09375 4.304688 3.425781 4.101562 C 4.085938 3.691406 4.8125 3.398438 5.628906 3.25 L 5.785156 3.21875 L 5.941406 3.199219 C 6.042969 3.1875 6.152344 3.171875 6.257812 3.160156 C 6.472656 3.152344 6.699219 3.121094 6.925781 3.128906 C 7.15625 3.125 7.386719 3.136719 7.632812 3.15625 C 7.632812 3.15625 7.636719 3.15625 7.636719 3.15625 C 7.925781 3.179688 8.089844 2.828125 7.875 2.632812 C 7.675781 2.449219 7.453125 2.289062 7.214844 2.148438 C 6.976562 2.007812 6.71875 1.910156 6.457031 1.804688 C 6.328125 1.757812 6.191406 1.730469 6.054688 1.695312 L 5.847656 1.640625 C 5.777344 1.628906 5.707031 1.621094 5.636719 1.613281 C 4.511719 1.441406 3.308594 1.71875 2.324219 2.339844 C 1.828125 2.648438 1.398438 3.054688 1.035156 3.503906 C 0.675781 3.964844 0.410156 4.484375 0.226562 5.023438 C 0.1875 5.160156 0.160156 5.300781 0.125 5.4375 C 0.109375 5.503906 0.09375 5.574219 0.0820312 5.644531 C 0.0703125 5.710938 0.0664062 5.78125 0.0546875 5.851562 C 0.0429688 5.992188 0.0234375 6.128906 0.0195312 6.269531 C 0.0195312 6.40625 0.0195312 6.542969 0.03125 6.679688 C 0.046875 6.902344 0.0820312 7.121094 0.136719 7.335938 C 0.21875 7.664062 0.671875 7.699219 0.792969 7.386719 C 0.867188 7.199219 0.945312 7.019531 1.03125 6.847656 Z M 62.519531 7.457031 C 62.539062 7.34375 62.558594 7.234375 62.570312 7.121094 L 62.597656 6.792969 C 62.628906 6.578125 62.613281 6.359375 62.628906 6.15625 C 62.609375 5.738281 62.578125 5.335938 62.5 4.949219 C 62.410156 4.5625 62.3125 4.1875 62.160156 3.828125 C 61.859375 3.109375 61.433594 2.441406 60.855469 1.847656 L 60.75 1.730469 L 60.632812 1.625 C 60.554688 1.554688 60.480469 1.476562 60.398438 1.40625 C 60.226562 1.277344 60.0625 1.121094 59.871094 0.992188 C 59.6875 0.855469 59.492188 0.730469 59.28125 0.605469 C 59.28125 0.601562 59.277344 0.601562 59.277344 0.601562 C 59.027344 0.453125 59.101562 0.0703125 59.386719 0.0351562 C 59.65625 0 59.929688 0 60.207031 0.0273438 C 60.480469 0.0507812 60.746094 0.121094 61.015625 0.1875 C 61.152344 0.226562 61.28125 0.28125 61.414062 0.332031 L 61.609375 0.410156 C 61.675781 0.441406 61.734375 0.476562 61.796875 0.507812 C 62.8125 1.027344 63.632812 1.957031 64.074219 3.035156 C 64.300781 3.578125 64.414062 4.15625 64.449219 4.738281 C 64.476562 5.320312 64.390625 5.898438 64.226562 6.441406 C 64.179688 6.578125 64.125 6.707031 64.070312 6.839844 C 64.042969 6.902344 64.019531 6.96875 63.988281 7.03125 C 63.957031 7.09375 63.921875 7.15625 63.886719 7.21875 C 63.816406 7.339844 63.753906 7.460938 63.675781 7.574219 C 63.597656 7.691406 63.515625 7.800781 63.429688 7.90625 C 63.285156 8.078125 63.128906 8.234375 62.964844 8.378906 C 62.707031 8.597656 62.320312 8.363281 62.398438 8.035156 C 62.449219 7.839844 62.488281 7.648438 62.519531 7.457031 " fill-opacity="1" fill-rule="nonzero"/></g><path fill="#fb2e01" d="M 29.058594 24.25 C 29.191406 24.566406 29.082031 24.933594 28.792969 25.113281 C 27.613281 25.855469 26.425781 26.328125 25.242188 26.417969 C 24.558594 26.46875 23.882812 26.496094 23.214844 26.496094 C 21.757812 26.496094 20.347656 25.9375 18.984375 25 C 18.710938 24.8125 18.613281 24.449219 18.75 24.140625 C 19.636719 22.1875 21.601562 20.828125 23.878906 20.828125 C 26.199219 20.828125 28.191406 22.238281 29.058594 24.25 " fill-opacity="1" fill-rule="nonzero"/></svg>