<svg xmlns="http://www.w3.org/2000/svg" xmlns:xlink="http://www.w3.org/1999/xlink" width="1080" zoomAndPan="magnify" viewBox="0 0 810 809.999993" height="1080" preserveAspectRatio="xMidYMid meet" version="1.0"><defs><clipPath id="23a9861d68"><path d="M 0 0 L 149 0 L 149 135.75 L 0 135.75 Z M 0 0 " clip-rule="nonzero"/></clipPath><clipPath id="6b06a10659"><path d="M 22 0 L 136 0 L 136 135.75 L 22 135.75 Z M 22 0 " clip-rule="nonzero"/></clipPath><clipPath id="656f282748"><path d="M 0 0 L 149 0 L 149 135.75 L 0 135.75 Z M 0 0 " clip-rule="nonzero"/></clipPath></defs><g clip-path="url(#23a9861d68)"><path fill="#5b3018" d="M 146.269531 77.089844 C 146.175781 76.953125 146.015625 76.875 145.851562 76.894531 C 145.6875 76.910156 145.546875 77.019531 145.488281 77.175781 L 144.808594 78.949219 C 144.578125 78.179688 144.320312 77.363281 144.050781 76.527344 C 142.957031 73.085938 141.714844 69.1875 142.117188 67.207031 C 142.144531 67.066406 142.101562 66.917969 142 66.8125 C 141.898438 66.710938 141.753906 66.660156 141.609375 66.683594 C 138.078125 67.265625 135.429688 68.433594 134.132812 69.945312 C 128.011719 52.421875 108.851562 47.8125 100.800781 46.640625 C 88.609375 44.863281 73.738281 48.761719 66.5625 55.539062 C 65.789062 54.164062 64.804688 52.765625 63.507812 51.199219 C 64.339844 47.671875 68.410156 42.578125 72.007812 38.074219 C 74.414062 35.0625 76.683594 32.21875 77.921875 29.984375 C 81.199219 24.042969 79.589844 8.433594 76.019531 0.296875 C 75.9375 0.113281 75.746094 0.0078125 75.546875 0.0390625 C 67.320312 1.3125 60.34375 6.316406 55.367188 14.503906 C 50.890625 21.878906 48.171875 31.460938 47.503906 42.238281 C 46.589844 42.433594 45.765625 42.632812 44.996094 42.835938 C 43.78125 39.824219 37.890625 28.25 34.148438 22.742188 C 31.984375 19.558594 24.789062 14.792969 18.785156 11.394531 C 12.820312 8.015625 4.910156 4.210938 0.601562 3.667969 C 0.417969 3.644531 0.242188 3.738281 0.15625 3.902344 C 0.0703125 4.066406 0.0976562 4.265625 0.222656 4.402344 C 5 9.621094 9.132812 16.753906 12.457031 22.480469 C 13.730469 24.675781 14.933594 26.75 16.007812 28.433594 C 17.464844 30.710938 20.042969 33.15625 22.769531 35.738281 C 27.289062 40.019531 31.957031 44.441406 32.117188 48.597656 C 27.613281 52.039062 25.121094 59.285156 25.121094 63.058594 C 25.121094 66.902344 24.652344 68.277344 23.582031 71.007812 C 23.042969 72.382812 22.425781 75.730469 22.070312 79.144531 C 21.835938 81.445312 21.550781 85.46875 22.300781 86.550781 C 23.242188 87.917969 25.1875 90.730469 29.214844 89.921875 C 31.066406 91.234375 32.953125 91.882812 34.925781 91.882812 C 35.660156 91.882812 36.402344 91.789062 37.15625 91.609375 C 38.515625 95.328125 40.890625 99.519531 43.722656 103.210938 L 43.699219 103.210938 C 43.699219 103.398438 43.703125 103.617188 43.707031 103.851562 C 43.789062 111.300781 43.117188 115.234375 41.710938 115.558594 C 39.21875 116.132812 34.039062 117.324219 32.332031 120.144531 C 31.113281 122.164062 30.609375 124.289062 31.050781 125.554688 C 31.242188 126.101562 31.601562 126.488281 32.09375 126.667969 C 32.910156 126.972656 35.941406 127.003906 37.210938 127.003906 C 37.230469 127.003906 37.25 127.003906 37.269531 127.003906 C 41.644531 127.003906 47.214844 126.679688 49.847656 125.953125 C 52.128906 125.324219 53.007812 123.003906 53.941406 120.550781 C 54.863281 118.121094 55.820312 115.609375 58.152344 114.183594 C 58.414062 114.242188 58.683594 114.296875 58.960938 114.335938 C 58.230469 116.667969 57.304688 119.085938 56.40625 121.4375 C 55.292969 124.347656 54.242188 127.09375 53.769531 129.171875 C 53.3125 131.199219 53.398438 132.605469 54.039062 133.597656 C 54.609375 134.480469 55.617188 135.039062 57.207031 135.355469 C 58.738281 135.660156 60.789062 135.734375 62.777344 135.769531 C 62.90625 135.769531 63.035156 135.769531 63.160156 135.769531 C 64.257812 135.769531 65.289062 135.691406 66.230469 135.53125 C 70.003906 134.917969 73.6875 132.664062 73.507812 129.003906 C 73.863281 128.339844 75.75 124.820312 76.925781 123.105469 C 77.285156 122.582031 77.898438 121.460938 78.742188 119.90625 C 79.085938 119.273438 79.46875 118.578125 79.871094 117.847656 C 80.710938 118.109375 82.617188 118.210938 85.074219 118.210938 C 90.300781 118.210938 98.03125 117.75 103.277344 117.390625 C 100.3125 118.824219 98.464844 120.480469 97.78125 122.339844 C 96.839844 124.898438 96.292969 126.527344 96.964844 127.703125 C 97.699219 129 99.660156 129.46875 104.28125 130.308594 C 105.015625 130.441406 105.820312 130.539062 106.671875 130.597656 C 107.246094 130.636719 107.84375 130.652344 108.445312 130.652344 C 116.335938 130.652344 126.273438 127.582031 130.167969 123.78125 C 133.226562 120.800781 132.804688 118.761719 132.222656 115.933594 C 131.90625 114.390625 131.546875 112.640625 131.632812 110.28125 C 131.703125 108.304688 132.230469 106.90625 132.921875 105.230469 C 133.542969 105.410156 134.179688 105.507812 134.832031 105.507812 C 138.03125 105.507812 141.59375 103.3125 145.644531 98.871094 C 145.777344 98.726562 145.796875 98.507812 145.691406 98.339844 C 145.589844 98.167969 145.382812 98.09375 145.191406 98.148438 L 143.574219 98.625 C 145.4375 96.410156 146.964844 93 147.710938 89.289062 C 148.703125 84.410156 148.175781 79.964844 146.269531 77.089844 Z M 146.269531 77.089844 " fill-opacity="1" fill-rule="nonzero"/></g><path fill="#d1ab93" d="M 145.902344 77.332031 C 149.925781 83.40625 146.859375 95.5 142.070312 99.53125 L 145.328125 98.570312 C 141.300781 102.984375 136.894531 106.191406 132.679688 104.683594 C 134.269531 100.847656 136.449219 95.554688 135.554688 79.640625 C 135.371094 76.441406 134.828125 73.542969 133.996094 70.921875 C 134.980469 69.015625 138.046875 67.722656 141.683594 67.121094 C 141.109375 69.976562 143.601562 76.117188 144.75 80.339844 Z M 145.902344 77.332031 " fill-opacity="1" fill-rule="nonzero"/><g clip-path="url(#6b06a10659)"><path fill="#d1ab93" d="M 43.613281 69.234375 C 46.355469 71.039062 49.160156 69.929688 50.382812 68.042969 C 51.613281 66.15625 51.375 61.917969 49.039062 60.394531 C 44.894531 61.34375 43.550781 64.808594 43.613281 69.234375 Z M 59.542969 113.972656 C 59.050781 113.917969 58.5625 113.828125 58.070312 113.710938 C 53.105469 112.515625 48.144531 108.199219 44.226562 103.140625 C 41.167969 99.195312 38.742188 94.800781 37.4375 91.082031 C 34.949219 91.769531 32.277344 91.605469 29.3125 89.441406 C 25.5625 90.289062 23.75 87.867188 22.660156 86.292969 C 21.574219 84.71875 22.902344 73.945312 23.992188 71.160156 C 25.078125 68.378906 25.5625 66.925781 25.5625 63.050781 C 25.5625 59.484375 28.023438 52.121094 32.566406 48.804688 C 32.953125 48.519531 33.359375 48.261719 33.785156 48.042969 C 38.097656 45.785156 40.585938 44.480469 44.726562 43.355469 C 45.6875 43.09375 46.738281 42.84375 47.925781 42.59375 C 49.136719 21.773438 58.347656 3.144531 75.617188 0.46875 C 79.234375 8.699219 80.679688 24.074219 77.539062 29.761719 C 74.394531 35.453125 64.242188 45.378906 63.035156 51.308594 C 64.3125 52.84375 65.515625 54.46875 66.457031 56.253906 C 73.183594 49.496094 88.292969 45.257812 100.738281 47.074219 C 111.503906 48.644531 128.675781 54.191406 133.992188 70.917969 C 134.824219 73.542969 135.367188 76.441406 135.550781 79.636719 C 136.445312 95.550781 134.265625 100.84375 132.675781 104.679688 C 131.910156 106.535156 131.277344 108.050781 131.199219 110.261719 C 130.957031 117.039062 134.339844 119.097656 129.867188 123.457031 C 125.8125 127.410156 114.691406 130.664062 106.707031 130.148438 C 105.890625 130.097656 105.105469 130.003906 104.367188 129.871094 C 96.390625 128.417969 96.152344 128.058594 98.203125 122.488281 C 99.171875 119.871094 102.566406 118 105.894531 116.757812 C 100.378906 117.160156 82.734375 118.375 79.957031 117.40625 L 79.699219 117.261719 C 78.234375 119.902344 77.085938 122.101562 76.570312 122.851562 C 75.242188 124.789062 73.066406 128.90625 73.066406 128.90625 C 73.265625 131.609375 70.988281 134.308594 66.167969 135.089844 C 65.152344 135.261719 64.027344 135.339844 62.792969 135.324219 C 60.515625 135.285156 58.691406 135.195312 57.304688 134.917969 C 54.359375 134.332031 53.390625 132.890625 54.210938 129.269531 C 55.070312 125.46875 57.90625 119.386719 59.542969 113.972656 Z M 73.066406 30.007812 C 74.761719 26.742188 78.8125 3.777344 74.394531 2.890625 C 69.976562 2.007812 61.097656 8.578125 56.871094 18.628906 C 52.644531 28.679688 57.140625 42.296875 59.542969 45.957031 C 61.703125 39.328125 71.371094 33.277344 73.066406 30.007812 Z M 73.066406 30.007812 " fill-opacity="1" fill-rule="nonzero"/></g><path fill="#e5e0de" d="M 74.394531 2.890625 C 78.8125 3.777344 74.757812 26.742188 73.066406 30.007812 C 71.371094 33.277344 61.703125 39.328125 59.542969 45.957031 C 57.140625 42.296875 52.640625 28.679688 56.867188 18.628906 C 61.097656 8.582031 69.976562 2.007812 74.394531 2.890625 Z M 74.394531 2.890625 " fill-opacity="1" fill-rule="nonzero"/><path fill="#d1ab93" d="M 37.214844 126.558594 C 34.746094 126.558594 32.789062 126.449219 32.253906 126.253906 C 30.8125 125.71875 31.148438 122.964844 32.71875 120.375 C 34.285156 117.78125 39.175781 116.597656 41.816406 115.988281 C 44.457031 115.382812 44.164062 106.011719 44.148438 103.207031 L 44.230469 103.140625 C 48.144531 108.199219 53.109375 112.515625 58.074219 113.710938 L 58.074219 113.714844 C 53.003906 116.652344 53.917969 124.375 49.738281 125.527344 C 47.105469 126.25 41.417969 126.5625 37.214844 126.558594 Z M 37.214844 126.558594 " fill-opacity="1" fill-rule="nonzero"/><path fill="#3d2417" d="M 49.039062 60.394531 C 51.375 61.921875 51.613281 66.15625 50.382812 68.042969 C 49.15625 69.929688 46.355469 71.039062 43.613281 69.234375 C 43.550781 64.808594 44.894531 61.34375 49.039062 60.394531 Z M 50.144531 64.164062 C 50.144531 63.550781 49.648438 63.054688 49.039062 63.054688 C 48.425781 63.054688 47.933594 63.550781 47.933594 64.164062 C 47.933594 64.773438 48.425781 65.269531 49.039062 65.269531 C 49.648438 65.269531 50.144531 64.773438 50.144531 64.164062 Z M 50.144531 64.164062 " fill-opacity="1" fill-rule="nonzero"/><path fill="#e5e0de" d="M 49.039062 63.054688 C 49.652344 63.054688 50.144531 63.550781 50.144531 64.164062 C 50.144531 64.773438 49.652344 65.269531 49.039062 65.269531 C 48.429688 65.269531 47.9375 64.773438 47.9375 64.164062 C 47.9375 63.550781 48.429688 63.054688 49.039062 63.054688 Z M 49.039062 63.054688 " fill-opacity="1" fill-rule="nonzero"/><path fill="#d1ab93" d="M 44.726562 43.359375 C 40.585938 44.484375 38.097656 45.785156 33.785156 48.046875 C 33.90625 45.140625 32.210938 36.667969 29.070312 29.765625 C 25.929688 22.867188 19.402344 18.628906 15.773438 16.210938 C 12.148438 13.789062 7.675781 7.492188 0.546875 4.105469 C 8.160156 5.074219 29.914062 17.296875 33.785156 22.984375 C 37.652344 28.679688 43.945312 41.097656 44.726562 43.359375 Z M 44.726562 43.359375 " fill-opacity="1" fill-rule="nonzero"/><path fill="#e5e0de" d="M 29.070312 29.765625 C 32.214844 36.667969 33.90625 45.140625 33.785156 48.046875 C 33.363281 48.269531 32.957031 48.519531 32.566406 48.804688 C 32.558594 41.820312 20.242188 34.246094 16.378906 28.195312 C 12.511719 22.140625 7.195312 11.367188 0.546875 4.105469 C 7.679688 7.492188 12.148438 13.789062 15.773438 16.210938 C 19.402344 18.628906 25.929688 22.867188 29.070312 29.765625 Z M 29.070312 29.765625 " fill-opacity="1" fill-rule="nonzero"/><path fill="#5b3018" d="M 68.859375 35.117188 C 70.960938 33.183594 72.78125 31.515625 73.457031 30.210938 C 74.277344 28.625 75.484375 23.167969 76.195312 17.789062 C 76.722656 13.828125 77.398438 6.742188 76 3.828125 C 75.625 3.046875 75.117188 2.585938 74.480469 2.460938 C 72.136719 1.988281 68.695312 3.433594 65.277344 6.324219 C 61.566406 9.460938 58.4375 13.769531 56.460938 18.460938 C 52.207031 28.570312 56.675781 42.402344 59.171875 46.203125 C 59.253906 46.324219 59.394531 46.398438 59.542969 46.398438 C 59.5625 46.398438 59.578125 46.398438 59.601562 46.398438 C 59.769531 46.375 59.910156 46.257812 59.960938 46.09375 C 61.269531 42.082031 65.480469 38.21875 68.859375 35.117188 Z M 59.453125 44.941406 C 56.992188 40.414062 53.402344 28.011719 57.273438 18.800781 C 59.199219 14.238281 62.238281 10.042969 65.847656 7 C 68.652344 4.628906 71.515625 3.253906 73.558594 3.253906 C 73.824219 3.253906 74.074219 3.277344 74.308594 3.324219 C 74.65625 3.394531 74.957031 3.695312 75.207031 4.210938 C 77.347656 8.675781 74.234375 26.789062 72.675781 29.804688 C 72.070312 30.972656 70.308594 32.589844 68.265625 34.464844 C 65.046875 37.417969 61.097656 41.039062 59.453125 44.941406 Z M 59.453125 44.941406 " fill-opacity="1" fill-rule="nonzero"/><path fill="#5b3018" d="M 50.789062 60.59375 L 50.734375 59.707031 C 50.089844 59.746094 49.480469 59.832031 48.9375 59.960938 C 45.039062 60.855469 43.097656 63.976562 43.171875 69.230469 C 43.171875 69.234375 43.171875 69.234375 43.171875 69.238281 C 43.175781 69.769531 43.203125 70.347656 43.253906 70.957031 L 44.132812 70.886719 C 44.109375 70.582031 44.089844 70.289062 44.078125 70.007812 C 44.859375 70.398438 45.671875 70.59375 46.484375 70.59375 C 46.832031 70.59375 47.175781 70.558594 47.519531 70.484375 C 48.84375 70.210938 50.019531 69.40625 50.75 68.285156 C 51.894531 66.519531 51.894531 62.679688 50.03125 60.664062 C 50.277344 60.632812 50.527344 60.605469 50.789062 60.59375 Z M 50.011719 67.804688 C 49.410156 68.730469 48.4375 69.390625 47.34375 69.621094 C 46.25 69.847656 45.117188 69.625 44.058594 68.984375 C 44.050781 64.378906 45.648438 61.722656 48.945312 60.875 C 50.964844 62.375 51.0625 66.191406 50.011719 67.804688 Z M 50.011719 67.804688 " fill-opacity="1" fill-rule="nonzero"/><path fill="#5b3018" d="M 65.082031 79.34375 L 65.964844 79.34375 C 65.964844 78.664062 65.925781 77.988281 65.882812 77.332031 C 65.839844 76.671875 65.800781 75.988281 65.804688 75.324219 L 64.921875 75.320312 C 64.917969 76.015625 64.957031 76.710938 65 77.386719 C 65.042969 78.03125 65.082031 78.695312 65.082031 79.34375 Z M 65.082031 79.34375 " fill-opacity="1" fill-rule="nonzero"/><path fill="#5b3018" d="M 66.527344 75.144531 L 67.410156 75.179688 C 67.445312 74.316406 67.394531 73.464844 67.269531 72.628906 L 68.03125 72.886719 C 68.554688 71.300781 68.4375 68.550781 67.335938 66.871094 L 66.597656 67.359375 C 67.394531 68.574219 67.679688 70.902344 67.238281 72.445312 C 67.097656 71.617188 66.878906 70.804688 66.574219 70.015625 L 65.753906 70.332031 C 66.335938 71.851562 66.597656 73.472656 66.527344 75.144531 Z M 66.527344 75.144531 " fill-opacity="1" fill-rule="nonzero"/><path fill="#5b3018" d="M 28.339844 86.261719 L 29.195312 86.472656 C 29.445312 85.457031 31.171875 84.195312 32.226562 84.261719 L 32.277344 83.378906 C 30.828125 83.289062 28.6875 84.851562 28.339844 86.261719 Z M 28.339844 86.261719 " fill-opacity="1" fill-rule="nonzero"/><path fill="#5b3018" d="M 24.4375 83.34375 L 24.09375 84.160156 C 25.257812 84.652344 26.015625 86.226562 26.304688 87.421875 L 27.164062 87.210938 C 26.804688 85.75 25.902344 83.964844 24.4375 83.34375 Z M 24.4375 83.34375 " fill-opacity="1" fill-rule="nonzero"/><path fill="#5b3018" d="M 57.875 126.578125 L 58.234375 127.382812 C 62.394531 125.53125 68.507812 125.496094 70.578125 127.3125 L 71.160156 126.648438 C 68.832031 124.609375 62.378906 124.570312 57.875 126.578125 Z M 57.875 126.578125 " fill-opacity="1" fill-rule="nonzero"/><path fill="#5b3018" d="M 47.496094 64.164062 C 47.496094 65.019531 48.1875 65.710938 49.039062 65.710938 C 49.894531 65.710938 50.585938 65.019531 50.585938 64.164062 C 50.585938 63.308594 49.894531 62.613281 49.039062 62.613281 C 48.1875 62.613281 47.496094 63.308594 47.496094 64.164062 Z M 49.703125 64.164062 C 49.703125 64.527344 49.40625 64.828125 49.039062 64.828125 C 48.671875 64.828125 48.375 64.53125 48.375 64.164062 C 48.375 63.796875 48.671875 63.496094 49.039062 63.496094 C 49.40625 63.496094 49.703125 63.796875 49.703125 64.164062 Z M 49.703125 64.164062 " fill-opacity="1" fill-rule="nonzero"/><g clip-path="url(#656f282748)"><path fill="#5b3018" d="M 146.269531 77.089844 C 146.175781 76.953125 146.015625 76.875 145.851562 76.894531 C 145.6875 76.910156 145.546875 77.019531 145.488281 77.175781 L 144.808594 78.949219 C 144.578125 78.179688 144.320312 77.363281 144.050781 76.527344 C 142.957031 73.085938 141.714844 69.1875 142.117188 67.207031 C 142.144531 67.066406 142.101562 66.917969 142 66.8125 C 141.898438 66.710938 141.753906 66.660156 141.609375 66.683594 C 138.078125 67.265625 135.429688 68.433594 134.132812 69.945312 C 128.011719 52.421875 108.851562 47.8125 100.800781 46.640625 C 88.609375 44.863281 73.738281 48.761719 66.5625 55.539062 C 65.789062 54.164062 64.804688 52.765625 63.507812 51.199219 C 64.339844 47.671875 68.410156 42.578125 72.007812 38.074219 C 74.414062 35.0625 76.683594 32.21875 77.921875 29.984375 C 81.199219 24.042969 79.589844 8.433594 76.019531 0.296875 C 75.9375 0.113281 75.746094 0.0078125 75.546875 0.0390625 C 67.320312 1.3125 60.34375 6.316406 55.367188 14.503906 C 50.890625 21.878906 48.171875 31.460938 47.503906 42.238281 C 46.589844 42.433594 45.765625 42.632812 44.996094 42.835938 C 43.78125 39.824219 37.890625 28.25 34.148438 22.742188 C 31.984375 19.558594 24.789062 14.792969 18.785156 11.394531 C 12.820312 8.015625 4.910156 4.210938 0.601562 3.667969 C 0.417969 3.644531 0.242188 3.738281 0.15625 3.902344 C 0.0703125 4.066406 0.0976562 4.265625 0.222656 4.402344 C 5 9.621094 9.132812 16.753906 12.457031 22.480469 C 13.730469 24.675781 14.933594 26.75 16.007812 28.433594 C 17.464844 30.710938 20.042969 33.15625 22.769531 35.738281 C 27.289062 40.019531 31.957031 44.441406 32.117188 48.597656 C 27.613281 52.039062 25.121094 59.285156 25.121094 63.058594 C 25.121094 66.902344 24.652344 68.277344 23.582031 71.007812 C 23.042969 72.382812 22.425781 75.730469 22.070312 79.144531 C 21.835938 81.445312 21.550781 85.46875 22.300781 86.550781 C 23.242188 87.917969 25.1875 90.730469 29.214844 89.921875 C 31.066406 91.234375 32.953125 91.882812 34.925781 91.882812 C 35.660156 91.882812 36.402344 91.789062 37.15625 91.609375 C 38.515625 95.328125 40.890625 99.519531 43.722656 103.210938 L 43.699219 103.210938 C 43.699219 103.398438 43.703125 103.617188 43.707031 103.851562 C 43.789062 111.300781 43.117188 115.234375 41.710938 115.558594 C 39.21875 116.132812 34.039062 117.324219 32.332031 120.144531 C 31.113281 122.164062 30.609375 124.289062 31.050781 125.554688 C 31.242188 126.101562 31.601562 126.488281 32.09375 126.667969 C 32.910156 126.972656 35.941406 127.003906 37.210938 127.003906 C 37.230469 127.003906 37.25 127.003906 37.269531 127.003906 C 41.644531 127.003906 47.214844 126.679688 49.847656 125.953125 C 52.128906 125.324219 53.007812 123.003906 53.941406 120.550781 C 54.863281 118.121094 55.820312 115.609375 58.152344 114.183594 C 58.414062 114.242188 58.683594 114.296875 58.960938 114.335938 C 58.230469 116.667969 57.304688 119.085938 56.40625 121.4375 C 55.292969 124.347656 54.242188 127.09375 53.769531 129.171875 C 53.3125 131.199219 53.398438 132.605469 54.039062 133.597656 C 54.609375 134.480469 55.617188 135.039062 57.207031 135.355469 C 58.738281 135.660156 60.789062 135.734375 62.777344 135.769531 C 62.90625 135.769531 63.035156 135.769531 63.160156 135.769531 C 64.257812 135.769531 65.289062 135.691406 66.230469 135.53125 C 70.003906 134.917969 73.6875 132.664062 73.507812 129.003906 C 73.863281 128.339844 75.75 124.820312 76.925781 123.105469 C 77.285156 122.582031 77.898438 121.460938 78.742188 119.90625 C 79.085938 119.273438 79.46875 118.578125 79.871094 117.847656 C 80.710938 118.109375 82.617188 118.210938 85.074219 118.210938 C 90.300781 118.210938 98.03125 117.75 103.277344 117.390625 C 100.3125 118.824219 98.464844 120.480469 97.78125 122.339844 C 96.839844 124.898438 96.292969 126.527344 96.964844 127.703125 C 97.699219 129 99.660156 129.46875 104.28125 130.308594 C 105.015625 130.441406 105.820312 130.539062 106.671875 130.597656 C 107.246094 130.636719 107.84375 130.652344 108.445312 130.652344 C 116.335938 130.652344 126.273438 127.582031 130.167969 123.78125 C 133.226562 120.800781 132.804688 118.761719 132.222656 115.933594 C 131.90625 114.390625 131.546875 112.640625 131.632812 110.28125 C 131.703125 108.304688 132.230469 106.90625 132.921875 105.230469 C 133.542969 105.410156 134.179688 105.507812 134.832031 105.507812 C 138.03125 105.507812 141.59375 103.3125 145.644531 98.871094 C 145.777344 98.726562 145.796875 98.507812 145.691406 98.339844 C 145.589844 98.167969 145.382812 98.09375 145.191406 98.148438 L 143.574219 98.625 C 145.4375 96.410156 146.964844 93 147.710938 89.289062 C 148.703125 84.410156 148.175781 79.964844 146.269531 77.089844 Z M 33.417969 23.234375 C 37.105469 28.660156 42.886719 40 44.136719 43.066406 C 40.4375 44.117188 37.960938 45.363281 34.222656 47.316406 C 34.09375 43.769531 32.378906 35.972656 29.46875 29.582031 C 26.355469 22.730469 20.046875 18.527344 16.285156 16.015625 L 16.019531 15.839844 C 14.757812 15 13.382812 13.664062 11.785156 12.117188 C 9.546875 9.945312 6.871094 7.363281 3.578125 5.28125 C 12.792969 8.199219 30.109375 18.367188 33.417969 23.234375 Z M 23.378906 35.089844 C 20.691406 32.546875 18.152344 30.144531 16.753906 27.953125 C 15.6875 26.285156 14.492188 24.222656 13.222656 22.03125 C 10.246094 16.910156 6.625 10.667969 2.453125 5.628906 C 5.972656 7.726562 8.816406 10.472656 11.171875 12.753906 C 12.796875 14.328125 14.203125 15.691406 15.527344 16.578125 L 15.792969 16.753906 C 19.480469 19.210938 25.652344 23.324219 28.667969 29.949219 C 31.625 36.441406 33.371094 44.664062 33.347656 47.785156 C 33.21875 47.859375 33.085938 47.929688 32.960938 48.007812 C 32.4375 43.671875 27.839844 39.316406 23.378906 35.089844 Z M 53.121094 120.230469 C 52.234375 122.570312 51.464844 124.589844 49.621094 125.101562 C 47.152344 125.78125 41.789062 126.101562 37.65625 126.117188 C 37.71875 123.335938 39.226562 121.21875 40.3125 120.785156 L 39.984375 119.964844 C 38.433594 120.578125 36.839844 123.152344 36.773438 126.121094 C 34.238281 126.105469 32.757812 125.976562 32.402344 125.839844 C 32.160156 125.753906 31.988281 125.5625 31.882812 125.261719 C 31.53125 124.25 32.015625 122.378906 33.089844 120.605469 C 34.601562 118.105469 39.722656 116.925781 41.910156 116.421875 C 43.277344 116.109375 44.660156 114.40625 44.59375 104.316406 C 48.597656 109.246094 52.957031 112.597656 57.03125 113.882812 C 54.921875 115.507812 53.96875 118 53.121094 120.230469 Z M 130.761719 110.246094 C 130.671875 112.707031 131.058594 114.59375 131.371094 116.109375 C 131.933594 118.847656 132.273438 120.5 129.5625 123.140625 C 125.664062 126.941406 114.933594 130.082031 107.207031 129.734375 C 107.480469 127.585938 108.007812 124.296875 110.699219 122.863281 L 110.285156 122.082031 C 107.171875 123.742188 106.613281 127.359375 106.320312 129.675781 C 105.660156 129.621094 105.027344 129.542969 104.449219 129.4375 C 101.5625 128.910156 99.710938 128.53125 98.667969 128.023438 C 98.578125 126.0625 100.382812 123.089844 102.269531 122.191406 L 101.890625 121.390625 C 99.917969 122.328125 98.082031 125.140625 97.8125 127.371094 C 97.785156 127.332031 97.761719 127.296875 97.738281 127.261719 C 97.273438 126.445312 97.761719 124.972656 98.621094 122.644531 C 99.375 120.601562 101.941406 118.710938 106.050781 117.175781 C 109.035156 116.058594 111.992188 115.445312 113.019531 115.25 C 114.671875 116.039062 116.496094 116.4375 118.386719 116.4375 C 119.132812 116.4375 119.882812 116.375 120.644531 116.25 L 120.503906 115.378906 C 117.945312 115.796875 115.441406 115.457031 113.269531 114.390625 C 113.265625 114.386719 113.261719 114.386719 113.257812 114.386719 L 113.246094 114.308594 C 113.246094 114.308594 113.210938 114.3125 113.148438 114.324219 C 105.847656 110.644531 106.253906 101.492188 109.089844 94.125 L 108.265625 93.804688 C 104.019531 104.851562 107.15625 111.644531 111.824219 114.59375 C 110.410156 114.898438 108.125 115.464844 105.8125 116.324219 C 92.027344 117.332031 82.601562 117.601562 80.332031 117.050781 C 82.488281 113.191406 85.542969 108.039062 88.113281 105.753906 L 87.527344 105.089844 C 84.761719 107.554688 81.519531 113.09375 79.320312 117.046875 C 78.839844 117.917969 78.386719 118.738281 77.984375 119.476562 C 77.179688 120.953125 76.546875 122.117188 76.210938 122.601562 C 74.882812 124.539062 72.769531 128.53125 72.679688 128.699219 C 72.640625 128.773438 72.625 128.855469 72.628906 128.9375 C 72.820312 131.511719 70.660156 133.613281 67.058594 134.460938 C 67.984375 132.59375 68.304688 130.035156 68.339844 129.160156 L 67.457031 129.121094 C 67.40625 130.285156 66.964844 133.117188 65.914062 134.683594 C 64.964844 134.832031 63.921875 134.898438 62.804688 134.878906 C 61.03125 134.851562 59.214844 134.789062 57.800781 134.554688 C 58.117188 132.597656 59.59375 130.132812 60.472656 129.496094 L 59.953125 128.777344 C 58.828125 129.59375 57.292969 132.265625 56.933594 134.378906 C 55.863281 134.105469 55.175781 133.699219 54.792969 133.109375 C 54.289062 132.332031 54.242188 131.144531 54.644531 129.363281 C 55.105469 127.34375 56.144531 124.625 57.246094 121.746094 C 58.210938 119.21875 59.210938 116.609375 59.972656 114.101562 C 60.726562 111.609375 61.121094 109.605469 61.183594 107.980469 L 60.300781 107.949219 C 60.246094 109.417969 59.894531 111.234375 59.234375 113.480469 C 58.878906 113.425781 58.523438 113.363281 58.183594 113.28125 C 53.796875 112.226562 48.964844 108.527344 44.585938 102.871094 C 41.753906 99.21875 39.382812 95.054688 38.023438 91.371094 C 39.8125 90.804688 41.5 89.851562 43.136719 88.917969 C 47.757812 90.558594 60.585938 87.34375 64.003906 80.339844 L 63.207031 79.953125 C 59.992188 86.550781 47.351562 89.695312 43.269531 88.019531 C 43.144531 87.96875 43 87.980469 42.882812 88.042969 L 42.757812 88.117188 C 41.011719 89.113281 39.207031 90.140625 37.332031 90.65625 C 34.5625 91.414062 32.097656 90.917969 29.582031 89.085938 C 29.480469 89.011719 29.347656 88.980469 29.226562 89.011719 C 25.925781 89.757812 24.300781 87.871094 23.039062 86.042969 C 22.128906 84.726562 23.28125 74.21875 24.417969 71.324219 C 25.5 68.558594 26.015625 67.050781 26.015625 63.054688 C 26.015625 59.855469 28.296875 52.480469 32.839844 49.160156 C 33.207031 48.890625 33.601562 48.648438 34 48.4375 L 34.039062 48.417969 C 38.378906 46.144531 40.769531 44.894531 44.851562 43.785156 C 45.804688 43.527344 46.84375 43.277344 48.027344 43.03125 C 48.222656 42.988281 48.367188 42.824219 48.378906 42.625 C 49.003906 31.855469 51.6875 22.289062 56.136719 14.960938 C 60.902344 7.113281 67.542969 2.28125 75.359375 0.964844 C 78.722656 8.9375 80.203125 24.042969 77.164062 29.554688 C 75.964844 31.722656 73.714844 34.535156 71.332031 37.519531 C 67.421875 42.417969 63.375 47.484375 62.609375 51.222656 C 62.582031 51.355469 62.617188 51.492188 62.703125 51.59375 C 64.195312 53.378906 65.265625 54.925781 66.078125 56.460938 C 67.703125 59.542969 68.265625 62.667969 67.804688 66.019531 L 68.679688 66.140625 C 69.152344 62.710938 68.605469 59.503906 67.011719 56.347656 C 73.828125 49.742188 88.832031 45.78125 100.691406 47.511719 C 108.703125 48.679688 127.945312 53.3125 133.585938 71.050781 C 134.4375 73.726562 134.953125 76.625 135.125 79.660156 C 136.015625 95.507812 133.859375 100.710938 132.277344 104.523438 C 131.5 106.371094 130.84375 107.960938 130.761719 110.246094 Z M 141.785156 99.191406 C 141.625 99.328125 141.582031 99.558594 141.679688 99.742188 C 141.777344 99.925781 141.996094 100.019531 142.195312 99.957031 L 143.878906 99.464844 C 139.789062 103.613281 136.308594 105.234375 133.273438 104.40625 C 134.859375 100.558594 136.863281 95.054688 135.992188 79.621094 C 135.824219 76.574219 135.308594 73.675781 134.472656 70.980469 C 135.351562 69.5 137.757812 68.308594 141.175781 67.660156 C 141.027344 69.925781 142.136719 73.414062 143.210938 76.796875 C 143.628906 78.105469 144.023438 79.34375 144.328125 80.457031 C 144.375 80.640625 144.539062 80.769531 144.730469 80.78125 C 144.925781 80.792969 145.097656 80.679688 145.164062 80.496094 L 145.988281 78.351562 C 149.085938 84.304688 146.375 95.332031 141.785156 99.191406 Z M 141.785156 99.191406 " fill-opacity="1" fill-rule="nonzero"/></g></svg>