<svg xmlns="http://www.w3.org/2000/svg" xmlns:xlink="http://www.w3.org/1999/xlink" width="1080" zoomAndPan="magnify" viewBox="0 0 810 809.999993" height="1080" preserveAspectRatio="xMidYMid meet" version="1.0"><defs><clipPath id="830fee90b2"><path d="M 24 37 L 222 37 L 222 271.5 L 24 271.5 Z M 24 37 " clip-rule="nonzero"/></clipPath><clipPath id="3ac0d91805"><path d="M 170 94 L 246.75 94 L 246.75 135 L 170 135 Z M 170 94 " clip-rule="nonzero"/></clipPath></defs><g clip-path="url(#830fee90b2)"><path fill="#603813" d="M 221.824219 117.800781 C 218.757812 119.84375 214.976562 120.46875 211.410156 121.066406 C 204.226562 122.199219 196.855469 122.300781 189.667969 122.894531 C 186.109375 123.195312 182.605469 123.617188 179.234375 124.320312 L 179.140625 123.589844 C 172.171875 132.417969 162.921875 139.417969 153.609375 145.617188 C 148.671875 148.917969 143.394531 151.945312 138.277344 154.867188 C 130.9375 159.171875 123.800781 163.386719 118.882812 170.074219 C 117.636719 171.835938 116.652344 173.691406 115.949219 175.632812 C 116.074219 177.382812 116.222656 179.128906 116.390625 180.875 C 117.417969 191.679688 119.160156 202.5 121.015625 213.242188 C 122.441406 220.910156 123.652344 229.707031 125.863281 237.566406 C 127.1875 238.175781 128.519531 238.835938 129.855469 239.425781 C 138.796875 243.390625 147.738281 247.347656 156.679688 251.308594 C 159.132812 252.394531 162.070312 254.945312 160.539062 257.152344 C 159.800781 258.21875 158.34375 258.460938 157.054688 258.542969 C 148.40625 259.113281 139.59375 256.839844 132.296875 252.148438 C 137.820312 258.871094 143.648438 265.332031 149.761719 271.515625 C 140.253906 267.914062 131.660156 261.910156 124.996094 254.210938 C 123.226562 260.15625 120.789062 265.898438 117.746094 271.296875 C 117.527344 265.710938 117.722656 260.113281 118.316406 254.558594 C 118.339844 254.34375 118.363281 254.128906 118.390625 253.910156 C 118.226562 254.078125 118.0625 254.25 117.898438 254.414062 C 112.28125 260.207031 106.363281 265.699219 100.164062 270.859375 C 103.523438 264.605469 106.878906 258.355469 110.234375 252.101562 C 99.585938 258.96875 88.492188 266.003906 75.949219 267.722656 C 91.125 265.441406 100.878906 249.761719 110.800781 239.578125 C 109.398438 231.390625 108.945312 222.875 108.21875 214.867188 C 107.449219 205.394531 106.769531 195.933594 106.554688 186.410156 C 105.738281 185.144531 104.648438 183.988281 103.507812 182.84375 C 102.117188 181.460938 100.371094 179.902344 98.878906 178.363281 C 95.347656 174.746094 92.441406 170.519531 90.101562 166.066406 C 86.679688 159.488281 84.398438 152.542969 82.320312 145.539062 C 63.511719 137.375 44.019531 130.589844 24.066406 125.28125 C 43.007812 128.359375 61.800781 132.765625 80.265625 138.476562 C 70.765625 106.003906 49.703125 76.417969 24.375 54.324219 C 44.277344 68.378906 58.902344 88.546875 73.148438 108.335938 C 71.207031 82.664062 80.109375 56.347656 97.230469 37.160156 C 90.34375 47.058594 83.292969 57.328125 80.945312 69.160156 C 78.105469 83.457031 76.746094 99.988281 78.277344 114.53125 C 79.019531 121.589844 82.585938 127.195312 84.984375 133.714844 C 87.433594 140.371094 89.636719 147.121094 92.464844 153.632812 C 95.335938 160.203125 98.867188 166.4375 104.007812 171.414062 C 104.828125 172.1875 105.6875 172.9375 106.558594 173.679688 C 103.101562 170.71875 106.953125 158.765625 107.46875 155.015625 C 108.929688 144.40625 108.410156 132.976562 106.222656 122.507812 C 103.664062 110.261719 99.460938 98.144531 99.699219 85.484375 C 100.742188 92.703125 102.457031 99.824219 104.808594 106.726562 C 105.855469 109.792969 107.066406 112.800781 108.28125 115.804688 C 109.074219 117.777344 112.652344 123.464844 112.246094 125.4375 C 115.941406 107.523438 121.578125 90.015625 129.015625 73.316406 C 120.820312 97.4375 116.226562 122.789062 115.433594 148.261719 C 122.128906 139.914062 129.621094 132.214844 137.777344 125.300781 C 133.195312 130.941406 128.839844 136.765625 124.71875 142.75 C 122.605469 145.816406 114.796875 154.179688 116.210938 158.265625 C 117.613281 162.328125 125.535156 153.480469 127.582031 152.335938 C 132.558594 149.558594 137.789062 147.296875 142.832031 144.648438 C 147.835938 142.019531 152.859375 139.273438 157.691406 136.234375 C 157.765625 117.394531 158.699219 98.5625 160.492188 79.820312 C 160.957031 75.113281 161.5625 70.164062 163.921875 65.957031 C 164.707031 64.566406 165.699219 63.296875 166.882812 62.25 C 164.691406 64.53125 163.480469 67.527344 162.855469 70.582031 C 162.230469 73.632812 162.117188 76.761719 162.078125 79.902344 C 161.9375 92.507812 162.171875 105.117188 162.804688 117.703125 C 163.042969 122.542969 163.347656 127.375 163.707031 132.207031 C 168.863281 128.507812 173.65625 124.347656 177.78125 119.484375 C 178.023438 119.1875 178.261719 118.894531 178.5 118.59375 C 178.660156 118.386719 178.824219 118.179688 178.980469 117.972656 C 185.695312 109.246094 189.785156 98.601562 195.507812 89.152344 C 198.570312 84.078125 202.214844 79.253906 206.816406 75.492188 C 202.5 79.535156 199.242188 84.507812 196.546875 89.734375 C 192.488281 97.601562 189.542969 106.066406 185.363281 113.933594 C 184.679688 115.285156 183.941406 116.597656 183.152344 117.875 C 194.378906 117.921875 205.433594 120.273438 216.652344 119.1875 C 218.425781 118.976562 220.191406 118.578125 221.832031 117.796875 Z M 221.824219 117.800781 " fill-opacity="1" fill-rule="nonzero"/></g><path fill="#000000" d="M 116.128906 256.195312 C 116.101562 256.449219 116.070312 256.703125 116.046875 256.953125 C 115.878906 256.90625 115.714844 256.851562 115.554688 256.789062 C 115.746094 256.59375 115.9375 256.394531 116.128906 256.195312 Z M 116.128906 256.195312 " fill-opacity="1" fill-rule="nonzero"/><path fill="#603813" d="M 61.898438 95.179688 L 61.660156 95.164062 L 61.699219 94.78125 C 61.765625 94.914062 61.832031 95.046875 61.898438 95.179688 Z M 61.898438 95.179688 " fill-opacity="1" fill-rule="nonzero"/><path fill="#000000" d="M 187.042969 97.082031 C 186.859375 97.328125 186.667969 97.566406 186.480469 97.808594 L 186.386719 97.117188 C 186.605469 97.101562 186.828125 97.089844 187.042969 97.082031 Z M 187.042969 97.082031 " fill-opacity="1" fill-rule="nonzero"/><path fill="#39b54a" d="M 29.78125 91.328125 C 25.128906 91.066406 20.082031 93.082031 17.949219 97.238281 C 15.8125 101.390625 17.855469 107.503906 22.398438 108.539062 C 15.636719 107.507812 8.289062 110.570312 4.664062 116.382812 C 1.039062 122.199219 1.667969 130.492188 6.472656 135.371094 C 11.28125 140.25 19.9375 140.835938 25.074219 136.3125 C 24.828125 139.566406 27.011719 142.621094 29.785156 144.328125 C 34.128906 147.003906 40.441406 146.625 43.734375 142.71875 C 47.023438 138.816406 45.703125 131.679688 40.894531 129.988281 C 43.585938 132.625 47.703125 133.835938 51.304688 132.742188 C 54.910156 131.648438 57.742188 128.128906 57.71875 124.355469 C 57.695312 120.578125 54.578125 116.976562 50.820312 116.722656 C 57.523438 118.898438 65.144531 114.179688 67.675781 107.589844 C 68.382812 105.742188 68.777344 103.746094 68.53125 101.78125 C 67.839844 96.175781 62.027344 92.316406 56.398438 92.027344 C 53.597656 91.882812 50.863281 92.453125 48.214844 93.320312 C 46.414062 93.90625 42.460938 96.828125 40.734375 96.617188 C 37.226562 96.1875 34.386719 91.582031 29.773438 91.324219 Z M 29.78125 91.328125 " fill-opacity="1" fill-rule="nonzero"/><path fill="#39b54a" d="M 181.234375 30.269531 C 177.207031 27.914062 171.796875 27.414062 168.011719 30.140625 C 164.226562 32.871094 163.277344 39.246094 166.855469 42.238281 C 161.300781 38.238281 153.367188 37.621094 147.5 41.152344 C 141.632812 44.683594 138.433594 52.351562 140.507812 58.890625 C 142.582031 65.429688 150.023438 69.894531 156.652344 68.199219 C 154.960938 70.988281 155.519531 74.703125 157.21875 77.488281 C 159.875 81.851562 165.671875 84.386719 170.371094 82.40625 C 175.074219 80.429688 177.132812 73.46875 173.613281 69.773438 C 174.820312 73.347656 177.9375 76.300781 181.644531 76.964844 C 185.347656 77.632812 189.460938 75.789062 191.15625 72.414062 C 192.847656 69.042969 191.703125 64.414062 188.472656 62.476562 C 193.457031 67.464844 202.382812 66.730469 207.625 62.015625 C 209.09375 60.695312 210.347656 59.089844 211.023438 57.234375 C 212.949219 51.925781 209.515625 45.835938 204.632812 43.019531 C 202.203125 41.621094 199.507812 40.878906 196.757812 40.445312 C 194.890625 40.152344 190.039062 40.949219 188.597656 39.976562 C 185.671875 37.996094 185.226562 32.601562 181.234375 30.269531 Z M 181.234375 30.269531 " fill-opacity="1" fill-rule="nonzero"/><path fill="#39b54a" d="M 44.167969 14.546875 C 39.515625 14.285156 34.46875 16.300781 32.332031 20.457031 C 30.199219 24.613281 32.242188 30.722656 36.785156 31.761719 C 30.023438 30.726562 22.675781 33.789062 19.050781 39.605469 C 15.425781 45.417969 16.050781 53.714844 20.859375 58.589844 C 25.667969 63.46875 34.320312 64.054688 39.460938 59.53125 C 39.214844 62.785156 41.398438 65.839844 44.171875 67.550781 C 48.515625 70.222656 54.828125 69.84375 58.117188 65.9375 C 61.410156 62.039062 60.089844 54.898438 55.277344 53.207031 C 57.972656 55.84375 62.089844 57.054688 65.691406 55.960938 C 69.296875 54.867188 72.125 51.351562 72.101562 47.574219 C 72.082031 43.800781 68.964844 40.195312 65.207031 39.941406 C 71.90625 42.117188 79.53125 37.398438 82.058594 30.808594 C 82.769531 28.960938 83.160156 26.964844 82.917969 25 C 82.226562 19.394531 76.410156 15.535156 70.785156 15.246094 C 67.984375 15.101562 65.246094 15.671875 62.601562 16.539062 C 60.800781 17.128906 56.84375 20.050781 55.117188 19.835938 C 51.613281 19.40625 48.769531 14.800781 44.160156 14.542969 Z M 44.167969 14.546875 " fill-opacity="1" fill-rule="nonzero"/><path fill="#006837" d="M 30.367188 64.542969 C 26.71875 66.472656 25.871094 72.636719 29.460938 74.679688 C 24.273438 70.894531 15.996094 73.136719 12.984375 78.816406 C 9.972656 84.5 12.367188 92.261719 17.796875 95.691406 C 23.222656 99.125 30.84375 98.195312 35.679688 93.960938 C 34.632812 98.378906 35.859375 103.390625 39.195312 106.460938 C 42.53125 109.53125 47.964844 110.25 51.738281 107.742188 C 55.507812 105.230469 56.878906 99.511719 54.277344 95.792969 C 57.589844 100.554688 62.878906 104.125 68.65625 104.449219 C 74.433594 104.769531 80.488281 101.371094 82.425781 95.90625 C 84.359375 90.441406 81.214844 83.457031 75.601562 82.042969 C 80.085938 77.589844 79.726562 69.25 74.875 65.199219 C 70.027344 61.152344 61.777344 62.3125 58.222656 67.539062 C 58.617188 64.652344 55.414062 62.144531 52.546875 62.625 C 46.382812 63.65625 48.984375 70.667969 45.183594 72.683594 C 41.402344 68.652344 37.699219 60.667969 30.371094 64.542969 Z M 30.367188 64.542969 " fill-opacity="1" fill-rule="nonzero"/><path fill="#39b54a" d="M 136.203125 99.0625 C 132.550781 100.996094 131.707031 107.15625 135.296875 109.203125 C 130.105469 105.414062 121.828125 107.65625 118.816406 113.339844 C 115.804688 119.019531 118.199219 126.78125 123.628906 130.210938 C 129.058594 133.644531 136.679688 132.714844 141.511719 128.484375 C 140.46875 132.902344 141.691406 137.914062 145.03125 140.984375 C 148.367188 144.050781 153.796875 144.769531 157.570312 142.261719 C 161.34375 139.753906 162.710938 134.035156 160.113281 130.316406 C 163.421875 135.074219 168.714844 138.648438 174.492188 138.96875 C 180.269531 139.296875 186.320312 135.894531 188.257812 130.429688 C 190.195312 124.960938 187.046875 117.980469 181.433594 116.5625 C 185.921875 112.113281 185.5625 103.769531 180.710938 99.722656 C 175.859375 95.671875 167.609375 96.832031 164.054688 102.058594 C 164.453125 99.171875 161.25 96.664062 158.378906 97.144531 C 152.21875 98.179688 154.816406 105.191406 151.015625 107.203125 C 147.234375 103.171875 143.53125 95.1875 136.207031 99.0625 Z M 136.203125 99.0625 " fill-opacity="1" fill-rule="nonzero"/><path fill="#006837" d="M 92.769531 73.003906 C 89.117188 74.9375 88.269531 81.097656 91.863281 83.144531 C 86.671875 79.355469 78.394531 81.597656 75.382812 87.28125 C 72.371094 92.960938 74.765625 100.722656 80.195312 104.152344 C 85.621094 107.585938 93.242188 106.65625 98.078125 102.425781 C 97.035156 106.839844 98.257812 111.851562 101.59375 114.925781 C 104.929688 117.992188 110.363281 118.710938 114.136719 116.203125 C 117.90625 113.691406 119.277344 107.972656 116.675781 104.257812 C 119.988281 109.015625 125.28125 112.589844 131.058594 112.910156 C 136.835938 113.234375 142.886719 109.835938 144.824219 104.367188 C 146.757812 98.902344 143.613281 91.921875 138 90.503906 C 142.484375 86.050781 142.125 77.710938 137.277344 73.664062 C 132.425781 69.613281 124.175781 70.773438 120.621094 76 C 121.015625 73.113281 117.8125 70.605469 114.945312 71.085938 C 108.78125 72.117188 111.382812 79.132812 107.582031 81.144531 C 103.800781 77.113281 100.097656 69.128906 92.769531 73.003906 Z M 92.769531 73.003906 " fill-opacity="1" fill-rule="nonzero"/><path fill="#006837" d="M 171.863281 69.789062 C 168.210938 71.722656 167.367188 77.882812 170.957031 79.929688 C 165.769531 76.140625 157.492188 78.382812 154.476562 84.066406 C 151.464844 89.746094 153.863281 97.507812 159.292969 100.9375 C 164.71875 104.371094 172.339844 103.441406 177.175781 99.210938 C 176.128906 103.625 177.355469 108.636719 180.691406 111.710938 C 184.027344 114.777344 189.460938 115.496094 193.230469 112.988281 C 197.003906 110.480469 198.371094 104.757812 195.773438 101.042969 C 199.082031 105.800781 204.375 109.375 210.152344 109.695312 C 215.929688 110.019531 221.984375 106.621094 223.917969 101.152344 C 225.855469 95.6875 222.707031 88.707031 217.09375 87.289062 C 221.582031 82.835938 221.222656 74.496094 216.371094 70.449219 C 211.523438 66.398438 203.273438 67.558594 199.71875 72.785156 C 200.113281 69.898438 196.910156 67.390625 194.039062 67.871094 C 187.878906 68.902344 190.476562 75.917969 186.675781 77.929688 C 182.898438 73.898438 179.195312 65.914062 171.867188 69.789062 Z M 171.863281 69.789062 " fill-opacity="1" fill-rule="nonzero"/><path fill="#006837" d="M 74.773438 31.191406 C 70.121094 30.929688 65.074219 32.945312 62.941406 37.101562 C 60.808594 41.253906 62.847656 47.363281 67.394531 48.402344 C 60.628906 47.371094 53.28125 50.433594 49.65625 56.246094 C 46.03125 62.0625 46.660156 70.355469 51.46875 75.234375 C 56.273438 80.113281 64.929688 80.699219 70.066406 76.171875 C 69.824219 79.425781 72.003906 82.484375 74.78125 84.191406 C 79.121094 86.867188 85.4375 86.488281 88.726562 82.582031 C 92.015625 78.679688 90.695312 71.539062 85.886719 69.851562 C 88.578125 72.488281 92.695312 73.695312 96.300781 72.605469 C 99.90625 71.507812 102.734375 67.992188 102.710938 64.21875 C 102.6875 60.441406 99.570312 56.839844 95.8125 56.582031 C 102.515625 58.757812 110.136719 54.042969 112.667969 47.449219 C 113.375 45.605469 113.769531 43.605469 113.523438 41.644531 C 112.832031 36.039062 107.019531 32.175781 101.390625 31.890625 C 98.589844 31.746094 95.855469 32.316406 93.207031 33.179688 C 91.410156 33.769531 87.453125 36.691406 85.726562 36.480469 C 82.21875 36.050781 79.378906 31.445312 74.769531 31.183594 Z M 74.773438 31.191406 " fill-opacity="1" fill-rule="nonzero"/><path fill="#006837" d="M 129.265625 3.820312 C 124.609375 3.558594 119.566406 5.574219 117.429688 9.730469 C 115.296875 13.882812 117.339844 19.996094 121.882812 21.03125 C 115.121094 20 107.773438 23.0625 104.148438 28.875 C 100.523438 34.691406 101.148438 42.984375 105.957031 47.863281 C 110.765625 52.742188 119.417969 53.328125 124.558594 48.800781 C 124.3125 52.058594 126.496094 55.113281 129.269531 56.820312 C 133.613281 59.496094 139.925781 59.117188 143.214844 55.210938 C 146.507812 51.308594 145.1875 44.171875 140.375 42.480469 C 143.070312 45.117188 147.1875 46.328125 150.789062 45.234375 C 154.394531 44.136719 157.222656 40.621094 157.199219 36.847656 C 157.175781 33.070312 154.0625 29.46875 150.304688 29.210938 C 157.003906 31.390625 164.628906 26.671875 167.15625 20.082031 C 167.867188 18.234375 168.257812 16.234375 168.015625 14.273438 C 167.324219 8.667969 161.507812 4.808594 155.882812 4.519531 C 153.082031 4.375 150.34375 4.945312 147.695312 5.808594 C 145.898438 6.398438 141.941406 9.320312 140.214844 9.109375 C 136.710938 8.679688 133.867188 4.074219 129.257812 3.816406 Z M 129.265625 3.820312 " fill-opacity="1" fill-rule="nonzero"/><path fill="#39b54a" d="M 110.4375 39.652344 C 105.785156 39.390625 100.738281 41.40625 98.605469 45.5625 C 96.472656 49.714844 98.511719 55.828125 103.058594 56.863281 C 96.292969 55.832031 88.945312 58.894531 85.320312 64.707031 C 81.695312 70.523438 82.324219 78.816406 87.132812 83.695312 C 91.9375 88.574219 100.59375 89.160156 105.730469 84.636719 C 105.488281 87.890625 107.667969 90.945312 110.445312 92.652344 C 114.785156 95.328125 121.101562 94.949219 124.390625 91.042969 C 127.679688 87.140625 126.359375 80.003906 121.550781 78.3125 C 124.246094 80.949219 128.359375 82.160156 131.964844 81.066406 C 135.570312 79.972656 138.398438 76.453125 138.375 72.679688 C 138.351562 68.902344 135.234375 65.300781 131.480469 65.046875 C 138.179688 67.222656 145.800781 62.503906 148.332031 55.914062 C 149.039062 54.066406 149.433594 52.070312 149.1875 50.105469 C 148.496094 44.5 142.683594 40.640625 137.054688 40.351562 C 134.253906 40.207031 131.519531 40.777344 128.871094 41.644531 C 127.074219 42.230469 123.117188 45.152344 121.390625 44.941406 C 117.882812 44.511719 115.042969 39.90625 110.433594 39.648438 Z M 110.4375 39.652344 " fill-opacity="1" fill-rule="nonzero"/><path fill="#009245" d="M 51.214844 77.296875 C 53.507812 77.0625 55.871094 76.8125 57.890625 75.703125 C 59.910156 74.589844 61.519531 72.390625 61.207031 70.101562 C 60.835938 67.320312 58.019531 65.652344 55.515625 64.402344 C 59.601562 64.511719 63.863281 63.617188 67.0625 61.0625 C 70.261719 58.507812 72.128906 54.0625 70.894531 50.152344 C 69.589844 46.035156 65.242188 43.488281 60.957031 43.027344 C 56.671875 42.5625 52.398438 43.769531 48.265625 44.996094 C 48.726562 44.433594 49.1875 43.875 49.652344 43.3125 C 45.042969 40.878906 39.402344 39.371094 34.679688 41.578125 C 29.957031 43.789062 27.695312 51.007812 31.648438 54.414062 C 28.914062 51.457031 25.101562 49.324219 21.082031 49.304688 C 17.058594 49.289062 12.941406 51.710938 11.625 55.515625 C 10.304688 59.324219 12.476562 64.179688 16.378906 65.152344 C 12.605469 63.753906 8.136719 64.445312 4.960938 66.921875 C 1.785156 69.394531 0.0117188 73.566406 0.429688 77.574219 C 0.578125 78.972656 0.988281 80.375 1.832031 81.496094 C 4.21875 84.679688 8.933594 84.566406 12.886719 84.144531 C 13.585938 84.070312 14.375 83.9375 14.753906 83.351562 C 15.132812 82.761719 14.496094 81.726562 13.894531 82.085938 C 14.375 85.011719 18.105469 85.910156 21.0625 85.910156 C 23.953125 85.910156 27.523438 85.695312 29.871094 83.769531 C 32.019531 82 31.667969 78.078125 33.617188 76.808594 C 35.808594 75.382812 39.566406 77.367188 42.003906 77.601562 C 45.054688 77.898438 48.175781 77.605469 51.214844 77.296875 Z M 51.214844 77.296875 " fill-opacity="1" fill-rule="nonzero"/><path fill="#009245" d="M 112.507812 37.945312 C 114.800781 37.710938 117.164062 37.460938 119.183594 36.347656 C 121.203125 35.238281 122.8125 33.035156 122.503906 30.746094 C 122.128906 27.96875 119.3125 26.300781 116.808594 25.050781 C 120.898438 25.160156 125.160156 24.265625 128.359375 21.710938 C 131.554688 19.15625 133.421875 14.710938 132.1875 10.800781 C 130.886719 6.679688 126.535156 4.136719 122.25 3.671875 C 117.964844 3.210938 113.695312 4.414062 109.558594 5.644531 C 110.023438 5.082031 110.484375 4.523438 110.949219 3.960938 C 106.339844 1.527344 100.695312 0.0195312 95.976562 2.226562 C 91.253906 4.4375 88.988281 11.65625 92.941406 15.058594 C 90.210938 12.105469 86.398438 9.972656 82.375 9.953125 C 78.355469 9.9375 74.238281 12.355469 72.917969 16.164062 C 71.597656 19.972656 73.769531 24.828125 77.671875 25.800781 C 73.902344 24.402344 69.429688 25.09375 66.253906 27.566406 C 63.078125 30.039062 61.304688 34.210938 61.726562 38.222656 C 61.871094 39.621094 62.28125 41.023438 63.125 42.144531 C 65.515625 45.324219 70.230469 45.214844 74.183594 44.792969 C 74.878906 44.714844 75.667969 44.585938 76.046875 43.996094 C 76.425781 43.410156 75.792969 42.375 75.191406 42.734375 C 75.667969 45.660156 79.402344 46.558594 82.359375 46.558594 C 85.246094 46.558594 88.816406 46.34375 91.164062 44.417969 C 93.316406 42.648438 92.964844 38.726562 94.914062 37.457031 C 97.101562 36.03125 100.863281 38.015625 103.296875 38.25 C 106.351562 38.546875 109.472656 38.253906 112.507812 37.945312 Z M 112.507812 37.945312 " fill-opacity="1" fill-rule="nonzero"/><path fill="#009245" d="M 143.953125 134.519531 C 146.246094 134.285156 148.609375 134.035156 150.628906 132.921875 C 152.648438 131.8125 154.257812 129.609375 153.949219 127.324219 C 153.574219 124.542969 150.757812 122.875 148.253906 121.625 C 152.339844 121.734375 156.605469 120.839844 159.800781 118.285156 C 163 115.730469 164.867188 111.285156 163.632812 107.375 C 162.328125 103.253906 157.980469 100.710938 153.695312 100.25 C 149.410156 99.785156 145.136719 100.988281 141.003906 102.21875 C 141.464844 101.65625 141.929688 101.097656 142.394531 100.535156 C 137.785156 98.101562 132.140625 96.59375 127.417969 98.800781 C 122.699219 101.011719 120.433594 108.230469 124.386719 111.632812 C 121.652344 108.679688 117.839844 106.546875 113.820312 106.527344 C 109.796875 106.511719 105.683594 108.929688 104.363281 112.738281 C 103.042969 116.546875 105.214844 121.402344 109.117188 122.375 C 105.347656 120.976562 100.875 121.667969 97.699219 124.140625 C 94.523438 126.613281 92.75 130.789062 93.167969 134.796875 C 93.316406 136.195312 93.726562 137.597656 94.570312 138.71875 C 96.957031 141.898438 101.675781 141.789062 105.628906 141.367188 C 106.324219 141.289062 107.113281 141.160156 107.492188 140.570312 C 107.871094 139.984375 107.238281 138.949219 106.632812 139.308594 C 107.113281 142.234375 110.84375 143.132812 113.804688 143.132812 C 116.691406 143.132812 120.261719 142.917969 122.609375 140.992188 C 124.761719 139.222656 124.40625 135.300781 126.359375 134.03125 C 128.546875 132.605469 132.308594 134.589844 134.742188 134.824219 C 137.796875 135.121094 140.914062 134.828125 143.953125 134.519531 Z M 143.953125 134.519531 " fill-opacity="1" fill-rule="nonzero"/><g clip-path="url(#3ac0d91805)"><path fill="#009245" d="M 218.539062 133.675781 C 220.765625 134.273438 223.066406 134.871094 225.347656 134.550781 C 227.632812 134.230469 229.910156 132.742188 230.429688 130.492188 C 231.066406 127.757812 229.019531 125.199219 227.121094 123.140625 C 230.902344 124.695312 235.207031 125.371094 239.101562 124.117188 C 242.992188 122.859375 246.3125 119.367188 246.535156 115.273438 C 246.769531 110.957031 243.601562 107.035156 239.757812 105.078125 C 235.914062 103.125 231.496094 102.734375 227.195312 102.417969 C 227.828125 102.058594 228.457031 101.695312 229.089844 101.335938 C 225.636719 97.421875 220.894531 94.007812 215.699219 94.398438 C 210.503906 94.789062 205.835938 100.738281 208.328125 105.324219 C 206.816406 101.589844 204.007812 98.242188 200.25 96.796875 C 196.496094 95.355469 191.792969 96.15625 189.210938 99.25 C 186.628906 102.34375 186.945312 107.65625 190.253906 109.949219 C 187.21875 107.304688 182.792969 106.363281 178.949219 107.546875 C 175.105469 108.734375 171.972656 112.007812 170.949219 115.90625 C 170.59375 117.265625 170.480469 118.722656 170.871094 120.070312 C 171.980469 123.894531 176.433594 125.464844 180.277344 126.472656 C 180.953125 126.648438 181.742188 126.808594 182.304688 126.390625 C 182.863281 125.972656 182.636719 124.785156 181.949219 124.90625 C 181.363281 127.8125 184.535156 129.976562 187.300781 131.027344 C 190.003906 132.054688 193.417969 133.117188 196.292969 132.148438 C 198.929688 131.261719 199.984375 127.464844 202.257812 126.972656 C 204.808594 126.417969 207.625 129.605469 209.820312 130.6875 C 212.570312 132.050781 215.59375 132.882812 218.539062 133.675781 Z M 218.539062 133.675781 " fill-opacity="1" fill-rule="nonzero"/></g><path fill="#009245" d="M 170.652344 89.191406 C 172.628906 90.378906 174.675781 91.589844 176.957031 91.914062 C 179.238281 92.230469 181.839844 91.433594 182.957031 89.414062 C 184.316406 86.960938 183.054688 83.9375 181.792969 81.433594 C 185.003906 83.972656 188.953125 85.8125 193.039062 85.679688 C 197.128906 85.546875 201.277344 83.101562 202.617188 79.230469 C 204.027344 75.144531 202.0625 70.503906 198.902344 67.5625 C 195.746094 64.621094 191.601562 63.027344 187.554688 61.535156 C 188.261719 61.363281 188.964844 61.1875 189.671875 61.015625 C 187.433594 56.300781 183.804688 51.710938 178.703125 50.652344 C 173.601562 49.597656 167.480469 54.023438 168.617188 59.121094 C 168.191406 55.113281 166.40625 51.121094 163.191406 48.695312 C 159.976562 46.273438 155.234375 45.746094 151.90625 48.007812 C 148.574219 50.265625 147.421875 55.460938 149.96875 58.582031 C 147.78125 55.199219 143.78125 53.074219 139.761719 53.15625 C 135.738281 53.234375 131.828125 55.515625 129.773438 58.980469 C 129.058594 60.1875 128.550781 61.558594 128.558594 62.960938 C 128.574219 66.945312 132.421875 69.679688 135.84375 71.710938 C 136.445312 72.066406 137.160156 72.4375 137.8125 72.191406 C 138.464844 71.941406 138.574219 70.738281 137.878906 70.667969 C 136.519531 73.296875 138.972656 76.257812 141.34375 78.027344 C 143.660156 79.761719 146.648438 81.726562 149.683594 81.585938 C 152.460938 81.460938 154.519531 78.101562 156.84375 78.253906 C 159.445312 78.425781 161.28125 82.269531 163.089844 83.914062 C 165.359375 85.980469 168.035156 87.617188 170.652344 89.191406 Z M 170.652344 89.191406 " fill-opacity="1" fill-rule="nonzero"/><path fill="#006837" d="M 32.140625 125.011719 C 29.65625 128.320312 31.503906 134.257812 35.621094 134.578125 C 29.320312 133.363281 22.777344 138.925781 22.464844 145.351562 C 22.152344 151.777344 27.609375 157.777344 33.980469 158.570312 C 40.351562 159.359375 46.851562 155.269531 49.429688 149.378906 C 50.359375 153.820312 53.59375 157.835938 57.917969 159.191406 C 62.242188 160.542969 67.460938 158.878906 69.8125 154.996094 C 72.160156 151.117188 70.96875 145.355469 67.039062 143.101562 C 72.058594 145.996094 78.363281 146.976562 83.730469 144.804688 C 89.097656 142.632812 93.128906 136.976562 92.5625 131.203125 C 91.992188 125.425781 86.183594 120.453125 80.503906 121.5625 C 82.671875 115.621094 78.808594 108.222656 72.699219 106.628906 C 66.59375 105.03125 59.617188 109.597656 58.617188 115.847656 C 57.75 113.066406 53.789062 112.164062 51.394531 113.820312 C 46.257812 117.382812 51.585938 122.617188 49 126.0625 C 43.867188 124.027344 37.128906 118.378906 32.140625 125.011719 Z M 32.140625 125.011719 " fill-opacity="1" fill-rule="nonzero"/><path fill="#006837" d="M 154.757812 112.675781 C 150.710938 113.503906 148.171875 119.179688 151.046875 122.152344 C 147.125 117.058594 138.550781 116.882812 134.070312 121.488281 C 129.589844 126.09375 129.71875 134.214844 133.964844 139.035156 C 138.214844 143.859375 145.789062 145.113281 151.613281 142.410156 C 149.371094 146.355469 149.144531 151.511719 151.488281 155.394531 C 153.828125 159.277344 158.839844 161.5 163.167969 160.148438 C 167.488281 158.800781 170.40625 153.699219 168.953125 149.398438 C 170.800781 154.898438 174.875 159.816406 180.328125 161.753906 C 185.785156 163.691406 192.542969 162.132812 195.933594 157.425781 C 199.324219 152.726562 198.257812 145.136719 193.265625 142.199219 C 198.816406 139.1875 200.8125 131.082031 197.289062 125.828125 C 193.769531 120.578125 185.527344 119.367188 180.652344 123.386719 C 181.839844 120.726562 179.464844 117.417969 176.582031 117.074219 C 170.375 116.332031 170.90625 123.792969 166.695312 124.65625 C 164.195312 119.722656 162.878906 111.019531 154.757812 112.679688 Z M 154.757812 112.675781 " fill-opacity="1" fill-rule="nonzero"/></svg>