<svg xmlns="http://www.w3.org/2000/svg" xmlns:xlink="http://www.w3.org/1999/xlink" width="1080" zoomAndPan="magnify" viewBox="0 0 810 809.999993" height="1080" preserveAspectRatio="xMidYMid meet" version="1.0"><defs><clipPath id="ea118fa591"><path d="M 33 37 L 216 37 L 216 271.5 L 33 271.5 Z M 33 37 " clip-rule="nonzero"/></clipPath></defs><g clip-path="url(#ea118fa591)"><path fill="#603813" d="M 172.316406 137.996094 C 169.457031 139.496094 166.703125 141.191406 164.074219 143.0625 C 163.714844 143.320312 163.933594 143.886719 164.371094 143.832031 C 173.320312 142.710938 182.757812 145.882812 191.296875 148.203125 C 191.296875 148.203125 191.304688 148.203125 191.308594 148.207031 C 191.714844 148.324219 191.71875 148.90625 191.308594 149.027344 C 190.867188 149.15625 190.421875 149.269531 189.976562 149.367188 C 180.609375 151.316406 171.117188 148.582031 161.808594 148.65625 C 160.226562 148.65625 158.617188 148.722656 157.019531 148.890625 C 156.925781 148.902344 156.839844 148.941406 156.769531 149.003906 C 153.871094 151.6875 151.191406 154.601562 148.765625 157.710938 C 143.226562 164.878906 139.085938 172.988281 136.6875 181.433594 L 136.335938 181.3125 C 137.511719 184.230469 138.832031 187.121094 140.042969 190.117188 C 141.800781 194.402344 143.488281 199.324219 144.253906 204.011719 C 145.074219 208.789062 145.234375 213.527344 145.316406 218.136719 C 145.417969 222.542969 145.359375 226.21875 145.8125 229.875 C 145.832031 230.015625 145.917969 230.132812 146.042969 230.199219 C 151.53125 232.992188 157.082031 237.328125 161.292969 239.75 C 170.117188 244.824219 178.894531 249.960938 187.59375 255.242188 C 192.65625 258.308594 197.703125 261.441406 202.328125 265.128906 C 202.601562 265.34375 202.511719 265.769531 202.183594 265.871094 C 195.132812 267.996094 187.398438 266.132812 180.554688 263.300781 C 173.609375 260.433594 167.019531 256.574219 159.753906 254.707031 C 159.503906 254.644531 159.25 254.820312 159.222656 255.078125 C 158.660156 260.34375 158.761719 265.675781 159.519531 270.917969 C 159.5625 271.222656 159.28125 271.476562 158.984375 271.390625 C 152.117188 269.382812 145.953125 265.039062 141.753906 259.234375 C 140.515625 257.519531 138.796875 255.425781 136.773438 256.046875 C 136.082031 256.261719 135.53125 256.777344 135.015625 257.28125 C 131.214844 260.957031 127.671875 264.902344 124.425781 269.078125 C 124.15625 269.425781 123.605469 269.183594 123.675781 268.75 C 124.242188 265.234375 124.605469 261.6875 124.761719 258.125 C 124.777344 257.773438 124.382812 257.554688 124.09375 257.757812 C 118.859375 261.363281 114.226562 265.847656 110.445312 270.960938 C 110.148438 271.363281 109.523438 271.015625 109.710938 270.554688 C 111.816406 265.304688 113.929688 260.054688 116.035156 254.804688 C 116.1875 254.429688 115.773438 254.078125 115.425781 254.28125 C 107.007812 259.277344 98.59375 264.273438 90.179688 269.265625 C 89.738281 269.527344 89.296875 268.933594 89.675781 268.589844 C 94.792969 263.875 99.914062 259.15625 105.03125 254.441406 C 105.355469 254.144531 105.066406 253.609375 104.636719 253.71875 C 91.015625 257.207031 77.105469 259.570312 63.101562 260.769531 C 72.136719 259.859375 83.027344 254.164062 91.421875 250.917969 C 99.957031 247.617188 108.355469 243.898438 116.332031 239.390625 C 117.492188 238.734375 118.738281 237.871094 120.042969 236.914062 C 120.160156 236.828125 120.226562 236.6875 120.21875 236.542969 C 119.765625 229.835938 120.550781 222.941406 121.378906 216.945312 C 121.898438 212.613281 122.382812 208.511719 122.027344 204.332031 C 121.523438 199.746094 120.238281 195.386719 118.992188 190.769531 C 117.648438 185.847656 116.402344 180.589844 116.046875 175.347656 C 115.898438 172.6875 115.898438 170.003906 116.039062 167.296875 C 116.039062 167.257812 116.039062 167.210938 116.027344 167.167969 C 114.941406 163.03125 113.792969 158.933594 112.472656 154.839844 C 110.96875 150.210938 109.296875 145.519531 108.078125 140.691406 C 107.226562 137.363281 106.609375 133.75 106.394531 130.332031 C 106.164062 126.925781 106.164062 123.738281 105.917969 120.773438 C 105.671875 116.832031 104.667969 113.214844 103.371094 109.609375 C 103.292969 109.394531 103.058594 109.28125 102.84375 109.347656 C 94.289062 112.0625 85.207031 112.855469 76.300781 111.90625 C 76.167969 111.894531 76.039062 111.941406 75.949219 112.039062 C 72.363281 115.925781 67.601562 118.691406 62.585938 120.339844 C 57.597656 122 52.34375 122.140625 47.25 122.777344 C 42.742188 123.332031 38.464844 124.570312 33.789062 125.105469 C 33.34375 125.160156 33.128906 124.582031 33.496094 124.332031 C 33.933594 124.035156 34.371094 123.75 34.8125 123.46875 C 37.5 121.765625 40.191406 120.253906 43.1875 119.066406 C 48.9375 116.742188 55.296875 116.679688 61.210938 115.328125 C 64.804688 114.554688 68.308594 113.40625 71.742188 112.0625 C 72.140625 111.90625 72.082031 111.324219 71.664062 111.25 C 59.003906 109.011719 46.976562 103.238281 37.667969 94.425781 C 37.277344 94.058594 37.785156 93.453125 38.214844 93.78125 C 46.234375 99.902344 55.785156 103.929688 65.660156 105.640625 C 70.058594 106.410156 74.550781 106.714844 79.011719 106.546875 C 78.890625 106.429688 78.769531 106.316406 78.652344 106.191406 C 76.59375 104.09375 75.300781 101.386719 74.328125 98.742188 C 72.535156 94.027344 71.410156 88.554688 72.558594 83.480469 C 72.644531 83.101562 73.148438 83.027344 73.34375 83.363281 C 74.457031 85.304688 75.523438 87.828125 76.425781 89.695312 C 77.5 92.011719 78.558594 94.363281 79.46875 96.851562 C 80.6875 100.175781 81.609375 103.371094 83.511719 105.992188 C 83.601562 106.117188 83.757812 106.183594 83.910156 106.167969 C 89.433594 105.511719 94.847656 104.097656 99.910156 101.890625 C 100.125 101.800781 100.222656 101.558594 100.136719 101.34375 C 92.316406 81.679688 82.613281 60.558594 64.515625 49.054688 C 64.058594 48.765625 64.464844 48.070312 64.941406 48.320312 C 78.394531 55.316406 88.675781 67.746094 96.46875 80.734375 C 96.683594 81.089844 97.222656 80.960938 97.253906 80.546875 C 97.710938 74.324219 99.40625 68.160156 102.023438 62.527344 C 105.878906 54.199219 111.589844 46.726562 116.496094 39.125 C 116.796875 38.671875 117.167969 38.082031 117.546875 37.488281 C 117.796875 37.09375 118.414062 37.339844 118.324219 37.796875 C 117.945312 39.757812 117.398438 41.6875 116.757812 43.574219 C 115.054688 48.558594 112.6875 53.3125 110.347656 57.972656 C 106.871094 64.765625 103.78125 71.5625 101.71875 78.9375 C 101.003906 81.386719 100.398438 83.890625 99.859375 86.414062 C 99.835938 86.515625 99.851562 86.621094 99.902344 86.710938 C 102.460938 91.316406 104.847656 95.988281 107.214844 100.628906 C 109.425781 104.96875 111.839844 109.644531 113.25 114.507812 C 115.128906 120.828125 115.035156 127.457031 116.644531 133.566406 C 117.480469 136.761719 118.613281 139.761719 119.878906 142.8125 C 120.035156 143.179688 120.558594 143.15625 120.675781 142.777344 C 124.953125 129.261719 131.757812 116.226562 139.550781 105.121094 C 139.628906 105.015625 139.644531 104.878906 139.605469 104.75 C 137.835938 99.207031 136.878906 93.421875 136.300781 87.644531 C 135.273438 77.253906 135.601562 64.894531 143.890625 57.335938 C 144.339844 56.9375 144.808594 56.5625 145.292969 56.21875 C 145.664062 55.957031 146.132812 56.382812 145.90625 56.777344 C 145.066406 58.242188 144.347656 59.746094 143.765625 61.324219 C 140.660156 69.675781 141.414062 78.609375 141.480469 87.371094 C 141.503906 92.039062 141.519531 96.71875 141.285156 101.394531 C 141.261719 101.8125 141.796875 102.007812 142.046875 101.671875 C 142.78125 100.691406 143.519531 99.726562 144.269531 98.78125 C 151.890625 88.9375 161.441406 80.925781 169.699219 71.710938 C 171.058594 70.171875 172.371094 68.589844 173.621094 66.960938 C 173.941406 66.542969 174.589844 66.964844 174.332031 67.421875 C 173.304688 69.238281 172.207031 71.011719 171.058594 72.753906 C 164.253906 82.917969 155.988281 92.070312 149.910156 102.675781 C 148.671875 104.792969 147.457031 107.007812 146.285156 109.300781 C 146.082031 109.703125 146.554688 110.101562 146.914062 109.839844 C 156.160156 103.148438 164.621094 100.105469 176.148438 97.457031 C 180.644531 96.375 185.066406 95.148438 189.394531 93.5 C 189.777344 93.351562 190.132812 93.796875 189.894531 94.136719 C 184.046875 102.519531 173.421875 105.855469 164.375 109.46875 C 158.726562 111.6875 152.871094 114.332031 146.984375 116.476562 C 145.453125 117.058594 143.914062 117.53125 142.375 118.027344 C 142.257812 118.066406 142.160156 118.152344 142.113281 118.269531 C 136.605469 131.308594 132.742188 145.996094 132.554688 159.753906 C 132.550781 160.167969 133.078125 160.347656 133.320312 160.011719 C 142.507812 147.503906 155.152344 137.707031 169.710938 132.125 C 182.28125 127.316406 196.003906 126.617188 208.421875 121.554688 C 210.601562 120.664062 212.722656 119.609375 214.738281 118.363281 C 215.191406 118.082031 215.640625 118.730469 215.222656 119.0625 C 203.019531 128.765625 185.964844 130.824219 172.320312 138 Z M 172.316406 137.996094 " fill-opacity="1" fill-rule="nonzero"/></g><path fill="#006837" d="M 34.183594 110.214844 C 31.730469 111.753906 30.410156 115.246094 31.925781 117.714844 C 28.476562 114.617188 23.605469 113.378906 18.988281 113.804688 C 14.722656 114.199219 10.285156 116.234375 8.429688 120.101562 C 6.574219 123.964844 8.597656 129.597656 12.828125 130.277344 C 9.503906 131.226562 7.746094 135.449219 9 138.671875 C 10.257812 141.898438 13.941406 143.808594 17.386719 143.488281 C 20.828125 143.164062 23.898438 140.890625 25.726562 137.949219 C 26.105469 142.078125 29.738281 145.664062 33.863281 145.972656 C 37.992188 146.285156 42.125 143.285156 43.109375 139.261719 C 44.113281 144.042969 49.195312 147.332031 54.066406 147.054688 C 58.941406 146.777344 63.316406 143.460938 65.714844 139.207031 C 66.09375 141.613281 69.640625 142.296875 71.539062 140.78125 C 73.4375 139.257812 73.933594 136.574219 73.902344 134.140625 C 73.847656 130.1875 72.125 125.617188 68.289062 124.679688 C 68.859375 124.816406 69.121094 119.371094 69.046875 118.851562 C 68.765625 116.859375 67.902344 114.964844 66.308594 113.6875 C 62.460938 110.59375 59.632812 113.59375 55.820312 114.742188 C 48.277344 117.011719 42.738281 104.859375 34.175781 110.214844 Z M 34.183594 110.214844 " fill-opacity="1" fill-rule="nonzero"/><path fill="#006837" d="M 164.097656 135.238281 C 161.644531 136.777344 160.324219 140.269531 161.839844 142.738281 C 158.390625 139.640625 153.519531 138.398438 148.90625 138.828125 C 144.636719 139.21875 140.203125 141.257812 138.34375 145.121094 C 136.488281 148.988281 138.511719 154.621094 142.742188 155.300781 C 139.417969 156.25 137.660156 160.46875 138.917969 163.695312 C 140.171875 166.921875 143.859375 168.832031 147.300781 168.511719 C 150.746094 168.1875 153.816406 165.914062 155.644531 162.972656 C 156.019531 167.097656 159.652344 170.683594 163.78125 170.996094 C 167.910156 171.308594 172.039062 168.308594 173.027344 164.285156 C 174.027344 169.066406 179.109375 172.355469 183.984375 172.078125 C 188.855469 171.800781 193.234375 168.484375 195.628906 164.230469 C 196.011719 166.636719 199.558594 167.320312 201.457031 165.804688 C 203.355469 164.28125 203.847656 161.597656 203.816406 159.164062 C 203.761719 155.210938 202.039062 150.640625 198.207031 149.703125 C 198.777344 149.839844 199.039062 144.390625 198.964844 143.875 C 198.679688 141.878906 197.820312 139.988281 196.222656 138.710938 C 192.378906 135.613281 189.546875 138.617188 185.738281 139.765625 C 178.195312 142.035156 172.652344 129.878906 164.09375 135.238281 Z M 164.097656 135.238281 " fill-opacity="1" fill-rule="nonzero"/><path fill="#006837" d="M 148.84375 81.367188 C 146.390625 82.902344 145.070312 86.394531 146.585938 88.867188 C 143.136719 85.769531 138.265625 84.527344 133.648438 84.957031 C 129.382812 85.347656 124.945312 87.382812 123.089844 91.25 C 121.234375 95.117188 123.257812 100.746094 127.488281 101.429688 C 124.164062 102.378906 122.40625 106.597656 123.660156 109.824219 C 124.917969 113.050781 128.601562 114.960938 132.046875 114.636719 C 135.488281 114.3125 138.5625 112.039062 140.386719 109.101562 C 140.765625 113.226562 144.398438 116.8125 148.527344 117.125 C 152.652344 117.4375 156.785156 114.4375 157.769531 110.414062 C 158.773438 115.195312 163.855469 118.480469 168.726562 118.207031 C 173.601562 117.929688 177.976562 114.613281 180.375 110.359375 C 180.753906 112.761719 184.300781 113.449219 186.199219 111.929688 C 188.097656 110.410156 188.59375 107.722656 188.5625 105.292969 C 188.507812 101.339844 186.785156 96.769531 182.949219 95.828125 C 183.519531 95.96875 183.78125 90.519531 183.707031 90 C 183.425781 88.007812 182.5625 86.117188 180.96875 84.835938 C 177.121094 81.742188 174.292969 84.742188 170.480469 85.890625 C 162.941406 88.164062 157.398438 76.007812 148.835938 81.367188 Z M 148.84375 81.367188 " fill-opacity="1" fill-rule="nonzero"/><path fill="#006837" d="M 84.621094 56.019531 C 82.167969 57.554688 80.847656 61.050781 82.363281 63.519531 C 78.914062 60.421875 74.042969 59.179688 69.425781 59.609375 C 65.160156 60 60.722656 62.035156 58.867188 65.902344 C 57.011719 69.769531 59.035156 75.398438 63.265625 76.082031 C 59.941406 77.03125 58.183594 81.25 59.4375 84.476562 C 60.695312 87.703125 64.378906 89.613281 67.824219 89.292969 C 71.265625 88.964844 74.339844 86.691406 76.167969 83.753906 C 76.542969 87.878906 80.175781 91.464844 84.304688 91.777344 C 88.429688 92.089844 92.5625 89.089844 93.546875 85.066406 C 94.550781 89.847656 99.632812 93.132812 104.507812 92.859375 C 109.378906 92.582031 113.753906 89.265625 116.152344 85.011719 C 116.53125 87.414062 120.078125 88.101562 121.976562 86.582031 C 123.875 85.0625 124.371094 82.375 124.339844 79.945312 C 124.285156 75.992188 122.5625 71.421875 118.726562 70.480469 C 119.300781 70.621094 119.558594 65.171875 119.484375 64.65625 C 119.203125 62.660156 118.339844 60.769531 116.746094 59.488281 C 112.898438 56.394531 110.070312 59.394531 106.261719 60.542969 C 98.71875 62.816406 93.175781 50.660156 84.613281 56.019531 Z M 84.621094 56.019531 " fill-opacity="1" fill-rule="nonzero"/><path fill="#009245" d="M 24.796875 94.515625 C 21.179688 91.957031 15.519531 92.390625 12.886719 95.957031 C 10.257812 99.519531 12.113281 105.660156 16.449219 106.554688 C 11.480469 105.332031 6.683594 111.132812 7.941406 116.097656 C 9.195312 121.066406 14.910156 124.023438 19.976562 123.277344 C 19.089844 125.835938 20.621094 128.726562 22.835938 130.273438 C 25.054688 131.820312 27.804688 132.335938 30.464844 132.8125 C 31.4375 132.988281 32.453125 133.15625 33.390625 132.847656 C 34.390625 132.519531 35.132812 131.6875 35.757812 130.839844 C 37.949219 127.839844 39.164062 124.136719 39.175781 120.421875 C 41.335938 123.628906 45.820312 125.03125 49.417969 123.625 C 53.019531 122.21875 55.371094 118.152344 54.796875 114.328125 C 58.816406 117.300781 65.257812 116.101562 67.9375 111.878906 C 70.617188 107.65625 68.96875 101.308594 64.574219 98.925781 C 64.910156 101.214844 68.054688 102.273438 70.015625 101.058594 C 71.980469 99.84375 72.625 97.140625 72.019531 94.914062 C 71.410156 92.683594 69.8125 90.863281 68.082031 89.332031 C 65.554688 87.09375 62.597656 85.269531 59.324219 84.4375 C 59.480469 85.394531 59.636719 86.34375 59.796875 87.300781 C 60.539062 85.242188 59.578125 82.707031 57.65625 81.664062 C 55.734375 80.625 53.09375 81.195312 51.777344 82.9375 C 52.394531 82.125 38.632812 74.871094 44.484375 86.652344 C 43.960938 82.351562 39.738281 88.105469 37.867188 88.699219 C 34.855469 89.65625 22.195312 86.660156 24.804688 94.515625 Z M 24.796875 94.515625 " fill-opacity="1" fill-rule="nonzero"/><path fill="#009245" d="M 18.113281 51.003906 C 14.496094 48.445312 8.835938 48.878906 6.207031 52.441406 C 3.574219 56.003906 5.433594 62.144531 9.769531 63.042969 C 4.800781 61.820312 0.00390625 67.621094 1.257812 72.585938 C 2.515625 77.554688 8.230469 80.511719 13.292969 79.765625 C 12.410156 82.320312 13.9375 85.210938 16.15625 86.761719 C 18.371094 88.308594 21.125 88.820312 23.785156 89.300781 C 24.753906 89.472656 25.773438 89.644531 26.707031 89.335938 C 27.707031 89.003906 28.453125 88.175781 29.074219 87.324219 C 31.265625 84.324219 32.480469 80.625 32.492188 76.910156 C 34.65625 80.113281 39.136719 81.515625 42.738281 80.113281 C 46.339844 78.707031 48.691406 74.636719 48.117188 70.8125 C 52.132812 73.789062 58.574219 72.589844 61.253906 68.367188 C 63.9375 64.144531 62.289062 57.796875 57.894531 55.414062 C 58.226562 57.699219 61.371094 58.761719 63.335938 57.546875 C 65.296875 56.332031 65.945312 53.628906 65.335938 51.398438 C 64.730469 49.171875 63.128906 47.351562 61.402344 45.820312 C 58.875 43.582031 55.914062 41.757812 52.640625 40.925781 C 52.800781 41.878906 52.957031 42.832031 53.113281 43.789062 C 53.859375 41.730469 52.894531 39.195312 50.972656 38.152344 C 49.054688 37.109375 46.414062 37.683594 45.097656 39.425781 C 45.710938 38.613281 31.949219 31.355469 37.804688 43.136719 C 37.28125 38.835938 33.054688 44.589844 31.1875 45.1875 C 28.171875 46.144531 15.511719 43.148438 18.125 51.003906 Z M 18.113281 51.003906 " fill-opacity="1" fill-rule="nonzero"/><path fill="#009245" d="M 163.375 118.167969 C 159.757812 115.609375 154.097656 116.042969 151.46875 119.609375 C 148.835938 123.171875 150.695312 129.3125 155.03125 130.207031 C 150.0625 128.984375 145.265625 134.785156 146.519531 139.75 C 147.777344 144.71875 153.492188 147.675781 158.554688 146.929688 C 157.671875 149.488281 159.199219 152.378906 161.417969 153.925781 C 163.632812 155.472656 166.386719 155.988281 169.046875 156.464844 C 170.015625 156.640625 171.035156 156.808594 171.96875 156.5 C 172.96875 156.171875 173.714844 155.339844 174.335938 154.492188 C 176.527344 151.492188 177.742188 147.789062 177.753906 144.074219 C 179.917969 147.28125 184.398438 148.683594 188 147.277344 C 191.601562 145.871094 193.953125 141.804688 193.378906 137.980469 C 197.394531 140.953125 203.835938 139.753906 206.515625 135.53125 C 209.195312 131.308594 207.550781 124.960938 203.15625 122.578125 C 203.488281 124.867188 206.632812 125.925781 208.597656 124.710938 C 210.558594 123.496094 211.207031 120.792969 210.597656 118.566406 C 209.996094 116.335938 208.390625 114.515625 206.664062 112.984375 C 204.136719 110.746094 201.175781 108.921875 197.902344 108.089844 C 198.0625 109.046875 198.21875 109.996094 198.375 110.953125 C 199.121094 108.894531 198.15625 106.359375 196.234375 105.316406 C 194.316406 104.277344 191.675781 104.847656 190.359375 106.589844 C 190.972656 105.777344 177.210938 98.523438 183.066406 110.304688 C 182.542969 106.003906 178.316406 111.757812 176.449219 112.351562 C 173.433594 113.308594 160.773438 110.3125 163.386719 118.167969 Z M 163.375 118.167969 " fill-opacity="1" fill-rule="nonzero"/><path fill="#009245" d="M 81.882812 41.480469 C 78.265625 38.921875 72.605469 39.355469 69.976562 42.917969 C 67.34375 46.484375 69.203125 52.621094 73.539062 53.519531 C 68.570312 52.296875 63.773438 58.097656 65.027344 63.0625 C 66.285156 68.03125 72 70.988281 77.0625 70.242188 C 76.179688 72.796875 77.707031 75.6875 79.925781 77.238281 C 82.140625 78.785156 84.894531 79.296875 87.554688 79.777344 C 88.523438 79.949219 89.542969 80.121094 90.476562 79.8125 C 91.476562 79.480469 92.222656 78.652344 92.84375 77.800781 C 95.035156 74.800781 96.25 71.101562 96.261719 67.386719 C 98.425781 70.589844 102.90625 71.992188 106.507812 70.589844 C 110.109375 69.183594 112.460938 65.113281 111.886719 61.289062 C 115.902344 64.265625 122.34375 63.066406 125.023438 58.84375 C 127.707031 54.621094 126.058594 48.273438 121.664062 45.890625 C 121.996094 48.175781 125.140625 49.238281 127.105469 48.023438 C 129.066406 46.808594 129.714844 44.105469 129.105469 41.875 C 128.5 39.648438 126.898438 37.828125 125.171875 36.296875 C 122.644531 34.058594 119.683594 32.234375 116.410156 31.402344 C 116.570312 32.355469 116.726562 33.308594 116.882812 34.265625 C 117.628906 32.207031 116.664062 29.671875 114.742188 28.628906 C 112.824219 27.585938 110.183594 28.160156 108.863281 29.902344 C 109.480469 29.089844 95.71875 21.832031 101.574219 33.613281 C 101.050781 29.3125 96.824219 35.066406 94.957031 35.664062 C 91.941406 36.621094 79.28125 33.625 81.894531 41.480469 Z M 81.882812 41.480469 " fill-opacity="1" fill-rule="nonzero"/><path fill="#009245" d="M 127.042969 61.769531 C 123.425781 59.210938 117.765625 59.644531 115.136719 63.207031 C 112.503906 66.769531 114.363281 72.910156 118.699219 73.808594 C 113.730469 72.585938 108.933594 78.382812 110.1875 83.351562 C 111.445312 88.320312 117.160156 91.277344 122.222656 90.527344 C 121.339844 93.085938 122.867188 95.976562 125.085938 97.523438 C 127.300781 99.070312 130.054688 99.585938 132.714844 100.066406 C 133.683594 100.238281 134.703125 100.410156 135.636719 100.101562 C 136.636719 99.769531 137.382812 98.941406 138.003906 98.089844 C 140.195312 95.089844 141.410156 91.386719 141.421875 87.671875 C 143.585938 90.878906 148.066406 92.28125 151.667969 90.875 C 155.269531 89.472656 157.621094 85.402344 157.042969 81.578125 C 161.0625 84.554688 167.503906 83.355469 170.183594 79.128906 C 172.867188 74.90625 171.21875 68.5625 166.824219 66.179688 C 167.15625 68.464844 170.300781 69.527344 172.265625 68.3125 C 174.226562 67.09375 174.875 64.394531 174.265625 62.164062 C 173.664062 59.9375 172.058594 58.117188 170.332031 56.585938 C 167.804688 54.347656 164.84375 52.523438 161.570312 51.691406 C 161.726562 52.644531 161.886719 53.597656 162.042969 54.550781 C 162.789062 52.492188 161.824219 49.960938 159.902344 48.917969 C 157.984375 47.875 155.34375 48.449219 154.023438 50.191406 C 154.640625 49.378906 140.878906 42.121094 146.734375 53.902344 C 146.210938 49.601562 141.984375 55.355469 140.117188 55.949219 C 137.101562 56.910156 124.441406 53.910156 127.054688 61.769531 Z M 127.042969 61.769531 " fill-opacity="1" fill-rule="nonzero"/><path fill="#009245" d="M 173.378906 78.417969 C 169.761719 75.855469 164.101562 76.289062 161.472656 79.855469 C 158.835938 83.421875 160.699219 89.558594 165.035156 90.457031 C 160.066406 89.234375 155.269531 95.03125 156.523438 99.996094 C 157.78125 104.96875 163.496094 107.921875 168.558594 107.175781 C 167.675781 109.734375 169.203125 112.625 171.421875 114.171875 C 173.636719 115.71875 176.390625 116.234375 179.050781 116.714844 C 180.019531 116.886719 181.039062 117.058594 181.972656 116.75 C 182.972656 116.417969 183.71875 115.585938 184.339844 114.738281 C 186.53125 111.738281 187.746094 108.035156 187.757812 104.320312 C 189.921875 107.527344 194.402344 108.929688 198.003906 107.523438 C 201.605469 106.117188 203.957031 102.050781 203.378906 98.226562 C 207.398438 101.199219 213.839844 100 216.519531 95.777344 C 219.203125 91.554688 217.554688 85.210938 213.160156 82.828125 C 213.492188 85.113281 216.636719 86.175781 218.601562 84.957031 C 220.5625 83.742188 221.210938 81.042969 220.601562 78.8125 C 220 76.582031 218.394531 74.761719 216.667969 73.230469 C 214.140625 70.992188 211.179688 69.171875 207.90625 68.335938 C 208.0625 69.292969 208.222656 70.246094 208.378906 71.199219 C 209.125 69.140625 208.160156 66.605469 206.238281 65.566406 C 204.320312 64.523438 201.679688 65.09375 200.359375 66.839844 C 200.976562 66.023438 187.214844 58.769531 193.070312 70.550781 C 192.546875 66.25 188.320312 72.003906 186.449219 72.597656 C 183.4375 73.558594 170.777344 70.558594 173.390625 78.417969 Z M 173.378906 78.417969 " fill-opacity="1" fill-rule="nonzero"/><path fill="#8cc63f" d="M 29.695312 68.484375 C 26.167969 70.007812 24.136719 74.46875 25.527344 78.054688 C 23.179688 73.746094 17.601562 71.515625 12.933594 73.015625 C 8.265625 74.519531 5.03125 79.585938 5.628906 84.457031 C 6.226562 89.328125 10.589844 93.460938 15.484375 93.789062 C 13.234375 98.804688 16.105469 105.457031 21.296875 107.25 C 26.488281 109.046875 32.851562 105.59375 34.175781 100.253906 C 36.28125 104.398438 39.867188 108.230469 44.472656 108.78125 C 49.078125 109.332031 54.152344 105.0625 52.988281 100.566406 C 55.417969 103.109375 58.535156 105.15625 62.019531 105.601562 C 65.503906 106.042969 69.347656 104.617188 71.121094 101.582031 C 72.898438 98.550781 71.933594 94.019531 68.765625 92.496094 C 73.160156 89.773438 75.402344 83.992188 73.996094 79.011719 C 72.585938 74.03125 67.65625 70.28125 62.488281 70.261719 C 61.0625 66.691406 57.59375 63.730469 53.753906 63.890625 C 49.914062 64.15625 46.832031 67.804688 47.640625 71.636719 C 43.121094 68.308594 44.113281 71.324219 40.230469 71.046875 C 36.273438 70.757812 34.652344 66.339844 29.691406 68.480469 Z M 29.695312 68.484375 " fill-opacity="1" fill-rule="nonzero"/><path fill="#8cc63f" d="M 206.683594 95.726562 C 202.945312 94.835938 198.65625 97.195312 197.628906 100.90625 C 198.316406 96.046875 195.175781 90.917969 190.539062 89.328125 C 185.898438 87.738281 180.28125 89.863281 177.847656 94.125 C 175.417969 98.386719 176.449219 104.3125 180.175781 107.5 C 175.378906 110.175781 173.710938 117.226562 176.796875 121.773438 C 179.886719 126.324219 187.046875 127.363281 191.296875 123.878906 C 190.511719 128.457031 191.097656 133.675781 194.460938 136.875 C 197.824219 140.074219 204.4375 139.691406 206.191406 135.386719 C 206.617188 138.875 207.894531 142.386719 210.421875 144.828125 C 212.949219 147.269531 216.882812 148.421875 220.121094 147.054688 C 223.355469 145.6875 225.289062 141.476562 223.65625 138.363281 C 228.808594 138.808594 234.054688 135.515625 235.902344 130.683594 C 237.75 125.851562 236.035156 119.890625 231.902344 116.785156 C 232.894531 113.066406 231.882812 108.613281 228.707031 106.445312 C 225.46875 104.363281 220.820312 105.441406 219.179688 108.996094 C 217.542969 103.621094 216.539062 106.636719 213.59375 104.085938 C 210.59375 101.492188 211.933594 96.976562 206.675781 95.726562 Z M 206.683594 95.726562 " fill-opacity="1" fill-rule="nonzero"/><path fill="#006837" d="M 124.214844 27.328125 C 120.609375 28.652344 118.339844 32.996094 119.527344 36.648438 C 117.417969 32.21875 111.96875 29.683594 107.226562 30.925781 C 102.484375 32.167969 98.972656 37.050781 99.304688 41.949219 C 99.636719 46.847656 103.765625 51.210938 108.628906 51.804688 C 106.109375 56.691406 108.613281 63.488281 113.695312 65.570312 C 118.78125 67.652344 125.324219 64.550781 126.941406 59.296875 C 128.8125 63.546875 132.179688 67.570312 136.753906 68.378906 C 141.324219 69.183594 146.621094 65.199219 145.707031 60.644531 C 147.992188 63.316406 150.992188 65.53125 154.445312 66.167969 C 157.898438 66.804688 161.816406 65.589844 163.753906 62.660156 C 165.695312 59.730469 164.980469 55.148438 161.902344 53.457031 C 166.4375 50.980469 168.996094 45.332031 167.867188 40.28125 C 166.738281 35.230469 162.015625 31.214844 156.859375 30.914062 C 155.632812 27.269531 152.328125 24.121094 148.488281 24.066406 C 144.636719 24.121094 141.363281 27.59375 141.957031 31.460938 C 137.625 27.890625 138.453125 30.957031 134.589844 30.460938 C 130.65625 29.957031 129.28125 25.457031 124.210938 27.324219 Z M 124.214844 27.328125 " fill-opacity="1" fill-rule="nonzero"/><path fill="#8cc63f" d="M 102.851562 44.347656 C 104.75 41 103.683594 36.21875 100.417969 34.195312 C 104.886719 36.214844 110.679688 34.628906 113.5 30.617188 C 116.320312 26.601562 115.851562 20.605469 112.445312 17.078125 C 109.035156 13.554688 103.0625 12.886719 98.964844 15.582031 C 97.738281 10.21875 91.445312 6.644531 86.21875 8.34375 C 80.992188 10.042969 77.996094 16.640625 80.148438 21.699219 C 75.976562 19.660156 70.8125 18.765625 66.800781 21.105469 C 62.792969 23.449219 61.316406 29.914062 64.953125 32.800781 C 61.484375 32.238281 57.765625 32.480469 54.71875 34.226562 C 51.667969 35.976562 49.460938 39.4375 49.871094 42.929688 C 50.277344 46.421875 53.777344 49.453125 57.21875 48.757812 C 55.351562 53.582031 57.042969 59.546875 61.160156 62.671875 C 65.277344 65.800781 71.472656 65.816406 75.609375 62.710938 C 78.898438 64.703125 83.449219 64.96875 86.417969 62.527344 C 89.320312 60 89.582031 55.226562 86.632812 52.65625 C 92.246094 52.585938 89.632812 50.777344 92.902344 48.660156 C 96.230469 46.5 100.183594 49.050781 102.851562 44.347656 Z M 102.851562 44.347656 " fill-opacity="1" fill-rule="nonzero"/><path fill="#8cc63f" d="M 153.753906 46.40625 C 157.570312 45.972656 160.804688 42.296875 160.519531 38.464844 C 161.515625 43.269531 166.207031 47.027344 171.109375 46.953125 C 176.011719 46.875 180.578125 42.96875 181.421875 38.132812 C 182.269531 33.300781 179.289062 28.074219 174.707031 26.335938 C 178.316406 22.191406 177.5 14.992188 173.054688 11.757812 C 168.609375 8.527344 161.519531 9.980469 158.699219 14.699219 C 157.890625 10.125 155.574219 5.410156 151.328125 3.542969 C 147.078125 1.671875 140.984375 4.277344 140.789062 8.921875 C 139.207031 5.785156 136.820312 2.917969 133.617188 1.476562 C 130.414062 0.0351562 126.320312 0.285156 123.738281 2.671875 C 121.15625 5.058594 120.765625 9.671875 123.351562 12.050781 C 118.359375 13.378906 114.53125 18.253906 114.429688 23.429688 C 114.328125 28.601562 117.957031 33.628906 122.894531 35.152344 C 123.222656 38.984375 125.679688 42.828125 129.398438 43.792969 C 133.148438 44.65625 137.15625 42.0625 137.5 38.160156 C 140.859375 42.664062 140.785156 39.488281 144.417969 40.886719 C 148.050781 42.285156 148.382812 47.011719 153.753906 46.40625 Z M 153.753906 46.40625 " fill-opacity="1" fill-rule="nonzero"/><path fill="#8cc63f" d="M 190.597656 80.441406 C 193.664062 78.125 194.570312 73.304688 192.371094 70.152344 C 195.675781 73.777344 201.625 74.613281 205.800781 72.046875 C 209.980469 69.476562 211.914062 63.78125 210.179688 59.191406 C 208.441406 54.605469 203.214844 51.632812 198.386719 52.480469 C 199.378906 47.070312 195.007812 41.296875 189.539062 40.789062 C 184.066406 40.28125 178.710938 45.152344 178.691406 50.652344 C 175.664062 47.132812 171.273438 44.261719 166.664062 44.824219 C 162.058594 45.390625 158.148438 50.742188 160.347656 54.835938 C 157.386719 52.945312 153.871094 51.699219 150.382812 52.097656 C 146.890625 52.496094 143.5 54.800781 142.496094 58.171875 C 141.492188 61.542969 143.507812 65.710938 146.945312 66.433594 C 143.324219 70.125 142.523438 76.273438 145.070312 80.777344 C 147.617188 85.28125 153.300781 87.746094 158.328125 86.535156 C 160.5625 89.664062 164.636719 91.710938 168.328125 90.644531 C 171.992188 89.472656 174.117188 85.195312 172.421875 81.664062 C 177.605469 83.824219 175.921875 81.128906 179.757812 80.476562 C 183.667969 79.8125 186.292969 83.714844 190.601562 80.453125 Z M 190.597656 80.441406 " fill-opacity="1" fill-rule="nonzero"/></svg>