<svg xmlns="http://www.w3.org/2000/svg" xmlns:xlink="http://www.w3.org/1999/xlink" width="1080" zoomAndPan="magnify" viewBox="0 0 810 809.999993" height="1080" preserveAspectRatio="xMidYMid meet" version="1.0"><defs><clipPath id="00823d5b59"><path d="M 21 14 L 285 14 L 285 271.5 L 21 271.5 Z M 21 14 " clip-rule="nonzero"/></clipPath></defs><path fill="#000000" d="M 117.042969 142.871094 L 117.113281 142.785156 C 117.113281 142.785156 117.128906 142.785156 117.136719 142.792969 C 117.464844 142.929688 117.230469 142.976562 117.042969 142.871094 Z M 117.042969 142.871094 " fill-opacity="1" fill-rule="nonzero"/><path fill="#000000" d="M 153.640625 81.203125 C 153.609375 81.308594 153.570312 81.402344 153.519531 81.480469 C 153.398438 81.679688 153.355469 81.695312 153.359375 81.613281 C 153.425781 81.457031 153.527344 81.324219 153.640625 81.203125 Z M 153.640625 81.203125 " fill-opacity="1" fill-rule="nonzero"/><path fill="#000000" d="M 107.234375 84 C 107.191406 84.496094 107.144531 84.996094 107.113281 85.492188 C 106.828125 85.933594 106.382812 86.269531 105.835938 86.402344 C 105.683594 86.441406 105.527344 86.464844 105.371094 86.46875 C 105.984375 85.640625 106.605469 84.816406 107.234375 84 Z M 107.234375 84 " fill-opacity="1" fill-rule="nonzero"/><path fill="#000000" d="M 117.042969 142.871094 L 117.113281 142.785156 C 117.113281 142.785156 117.128906 142.785156 117.136719 142.792969 C 117.464844 142.929688 117.230469 142.976562 117.042969 142.871094 Z M 117.042969 142.871094 " fill-opacity="1" fill-rule="nonzero"/><path fill="#000000" d="M 153.640625 81.203125 C 153.609375 81.308594 153.570312 81.402344 153.519531 81.480469 C 153.398438 81.679688 153.355469 81.695312 153.359375 81.613281 C 153.425781 81.457031 153.527344 81.324219 153.640625 81.203125 Z M 153.640625 81.203125 " fill-opacity="1" fill-rule="nonzero"/><path fill="#000000" d="M 107.113281 85.492188 C 106.828125 85.933594 106.382812 86.269531 105.835938 86.402344 C 105.683594 86.441406 105.527344 86.464844 105.371094 86.46875 C 105.984375 85.640625 106.605469 84.816406 107.234375 84 C 107.253906 83.824219 107.269531 83.644531 107.285156 83.464844 C 107.316406 83.585938 107.34375 83.703125 107.375 83.820312 C 107.378906 83.828125 107.378906 83.835938 107.378906 83.847656 C 107.523438 84.429688 107.410156 85.023438 107.113281 85.492188 Z M 107.113281 85.492188 " fill-opacity="1" fill-rule="nonzero"/><path fill="#000000" d="M 107.113281 85.492188 C 106.828125 85.933594 106.382812 86.269531 105.835938 86.402344 C 105.683594 86.441406 105.527344 86.464844 105.371094 86.46875 C 105.984375 85.640625 106.605469 84.816406 107.234375 84 C 107.28125 83.941406 107.324219 83.878906 107.375 83.820312 C 107.378906 83.828125 107.378906 83.835938 107.378906 83.847656 C 107.523438 84.429688 107.410156 85.023438 107.113281 85.492188 Z M 107.113281 85.492188 " fill-opacity="1" fill-rule="nonzero"/><path fill="#000000" d="M 50.625 90.160156 C 50.433594 90.214844 50.238281 90.242188 50.042969 90.242188 C 49.449219 90.242188 48.859375 89.996094 48.441406 89.511719 C 48.425781 89.492188 48.410156 89.476562 48.394531 89.460938 C 49.136719 89.695312 49.882812 89.929688 50.625 90.160156 Z M 50.625 90.160156 " fill-opacity="1" fill-rule="nonzero"/><g clip-path="url(#00823d5b59)"><path fill="#603813" d="M 223.179688 165.371094 C 224.183594 164.78125 224.519531 163.484375 223.921875 162.480469 C 223.332031 161.476562 222.035156 161.140625 221.03125 161.734375 C 213.679688 166.066406 206.636719 171.019531 200.066406 176.480469 C 197.382812 176.101562 194.695312 175.742188 192.003906 175.40625 C 196.644531 169.003906 202.742188 162.6875 206.960938 156.828125 C 208.804688 154.253906 210.648438 151.703125 212.566406 149.222656 C 236.234375 144.28125 260.136719 140.175781 284.199219 136.921875 C 272.894531 137.105469 261.578125 137.476562 250.261719 138.035156 L 270.273438 123.554688 C 271.21875 122.867188 271.429688 121.550781 270.746094 120.605469 C 270.0625 119.660156 268.738281 119.449219 267.792969 120.132812 L 243.972656 137.371094 C 243.601562 137.640625 243.347656 138.007812 243.214844 138.414062 C 235.667969 138.835938 228.125 139.34375 220.578125 139.9375 C 222.257812 138.253906 224.027344 136.636719 225.925781 135.113281 C 241.460938 122.667969 246.648438 105.425781 259.753906 90.515625 C 249.996094 99.679688 239.757812 108.226562 229.042969 116.15625 C 229.800781 105.644531 233.90625 95.324219 240.660156 87.238281 C 241.40625 86.339844 241.285156 85.011719 240.386719 84.261719 C 239.492188 83.519531 238.160156 83.636719 237.410156 84.53125 C 229.359375 94.175781 224.78125 106.757812 224.691406 119.320312 C 223.601562 120.105469 222.503906 120.878906 221.402344 121.648438 C 215.539062 125.804688 209.113281 132.160156 203.042969 137.882812 C 203.796875 134.035156 204.484375 130.339844 204.558594 127.261719 C 204.882812 118.949219 206.808594 102.527344 211.585938 95.375 C 210.003906 96.835938 201.558594 110.464844 200.375 112.328125 C 197.980469 116.046875 196.390625 120.273438 195.050781 124.457031 C 192.46875 132.535156 190.726562 140.839844 189.816406 149.265625 C 184.996094 153.1875 181.175781 156.609375 177.167969 162.835938 C 171.464844 171.703125 165.589844 180.636719 161.332031 190.300781 C 158.144531 184.195312 155.40625 178.574219 153.746094 174.152344 C 150.097656 164.355469 155.617188 156.476562 154.234375 146.203125 C 154.140625 145.519531 154.0625 144.832031 153.996094 144.136719 C 154.9375 143.527344 155.867188 142.902344 156.78125 142.277344 C 162.132812 138.621094 166.539062 134.640625 170.324219 130.480469 C 170.953125 130.496094 171.585938 130.503906 172.214844 130.503906 C 177.648438 130.503906 183.070312 129.988281 188.414062 128.960938 C 189.5625 128.742188 190.3125 127.632812 190.09375 126.492188 C 189.871094 125.34375 188.765625 124.59375 187.617188 124.8125 C 183.09375 125.679688 178.507812 126.164062 173.914062 126.257812 C 182.914062 114.984375 188.261719 102.84375 195.800781 92.699219 C 201.476562 85.054688 186.316406 95.8125 175.988281 104.589844 C 176.125 98.9375 177.800781 93.285156 180.847656 88.582031 C 181.480469 87.601562 181.199219 86.296875 180.222656 85.664062 C 179.242188 85.027344 177.933594 85.308594 177.300781 86.289062 C 173.089844 92.785156 171.191406 100.578125 171.855469 108.234375 C 171.117188 108.921875 170.441406 109.570312 169.855469 110.164062 C 164.835938 115.230469 159.789062 123.441406 154.007812 129.378906 C 154.425781 124.253906 155.195312 119.140625 156.082031 114.320312 C 158.039062 103.925781 151.191406 92.761719 154.507812 82.707031 C 154.820312 81.746094 155.144531 80.792969 155.472656 79.835938 C 169.480469 69.820312 184.402344 61.25 200.140625 54.132812 C 186.242188 57.996094 172.566406 63.03125 159.417969 69.128906 C 162.054688 62.472656 164.992188 55.921875 168.210938 49.558594 C 171.109375 43.78125 174.558594 37.585938 177.957031 32.082031 C 179.132812 30.09375 180.984375 27.304688 182.25 25.3125 L 179.882812 28.554688 L 187.074219 17.292969 C 185.441406 19.628906 176.585938 22.914062 175.046875 25.3125 C 173.832031 27.113281 167.597656 37.171875 166.441406 39.007812 C 164.894531 41.585938 163.097656 44.304688 161.175781 47.113281 L 160.125 36.257812 C 159.449219 29.296875 159.140625 22.664062 162.730469 17.964844 C 163.4375 17.039062 163.257812 15.714844 162.332031 15.007812 C 161.402344 14.300781 160.074219 14.480469 159.367188 15.40625 C 154.855469 21.3125 155.191406 29.148438 155.917969 36.664062 L 157.453125 52.511719 C 151.75 60.742188 145.789062 69.433594 142.671875 77.359375 C 141.613281 80.101562 140.859375 82.988281 140.320312 85.976562 C 139.566406 83.742188 138.898438 81.445312 138.253906 79.125 C 134.835938 67.425781 134.554688 60.609375 136.464844 48.578125 C 134.769531 53.546875 133.046875 58.550781 132.300781 63.960938 C 131.5625 69.324219 129.34375 73.0625 129.71875 78.398438 C 129.839844 80.15625 130.058594 81.988281 130.375 83.863281 C 128.847656 84.054688 127.21875 84.027344 125.535156 84.003906 C 122.269531 83.957031 118.890625 83.90625 115.699219 85.402344 C 114.648438 85.898438 114.191406 87.15625 114.691406 88.210938 C 115.050781 88.972656 115.808594 89.421875 116.605469 89.421875 C 116.902344 89.421875 117.210938 89.359375 117.5 89.222656 C 119.804688 88.140625 122.558594 88.183594 125.472656 88.226562 C 127.363281 88.257812 129.292969 88.28125 131.214844 88.015625 C 132.742188 94.472656 135.34375 101.132812 138.945312 106.703125 C 138.898438 114.144531 138.957031 121.5625 138.003906 128.367188 C 137.28125 133.183594 136.304688 138.21875 135.386719 143.328125 C 130.585938 136.632812 125.605469 129.84375 124.484375 128.644531 C 120.160156 124.09375 115.140625 118.433594 109.785156 112.226562 C 107.679688 105.5625 106.804688 98.605469 106.851562 91.582031 C 112.535156 83.753906 118.722656 76.199219 125.273438 69.097656 C 126.0625 68.238281 126.007812 66.902344 125.152344 66.113281 C 124.289062 65.320312 122.953125 65.378906 122.164062 66.234375 C 116.988281 71.847656 112.035156 77.734375 107.375 83.820312 C 107.378906 83.828125 107.378906 83.835938 107.378906 83.847656 C 107.523438 84.429688 107.410156 85.023438 107.109375 85.492188 C 106.828125 85.933594 106.382812 86.269531 105.835938 86.402344 C 105.683594 86.441406 105.527344 86.464844 105.371094 86.46875 C 105.984375 85.640625 106.605469 84.816406 107.234375 84 C 107.253906 83.824219 107.269531 83.644531 107.285156 83.464844 C 108.25 73.769531 110.714844 64.117188 113.851562 55.097656 C 116.289062 47.980469 119.152344 40.957031 122.101562 33.976562 C 115.632812 44.691406 109.34375 56.222656 104.800781 68.246094 C 104.277344 63.042969 103.992188 57.808594 103.71875 52.667969 C 104.199219 52.078125 104.34375 51.25 104.027344 50.503906 C 103.570312 49.429688 102.328125 48.929688 101.257812 49.386719 C 100.542969 49.691406 99.371094 50.527344 99.492188 52.761719 C 99.925781 60.867188 100.371094 69.183594 101.738281 77.382812 C 99.730469 84.285156 98.402344 91.3125 98.035156 98.417969 C 91.566406 90.734375 84.984375 82.84375 78.835938 75.558594 C 76.917969 71.210938 76.527344 66.265625 76.894531 61.335938 L 76.894531 61.324219 C 76.902344 61.195312 76.910156 61.066406 76.925781 60.9375 L 76.925781 60.929688 C 77.230469 57.191406 77.957031 53.464844 78.777344 50.03125 C 80.261719 43.867188 82.203125 37.847656 85.433594 32.316406 C 82.644531 35.585938 80.328125 39.265625 78.347656 43.085938 C 76.371094 47.007812 74.453125 51.1875 72.960938 55.5 C 72.285156 54.023438 71.835938 52.359375 71.476562 50.761719 C 70.304688 45.523438 69.617188 40.148438 69.4375 34.785156 C 69.398438 33.621094 68.421875 32.710938 67.253906 32.746094 C 66.089844 32.785156 65.171875 33.761719 65.214844 34.925781 C 65.398438 40.554688 66.121094 46.191406 67.355469 51.6875 C 68.027344 54.679688 69.082031 58.210938 71.378906 60.796875 C 70.976562 62.421875 70.652344 64.054688 70.425781 65.695312 C 53.898438 46.546875 43.273438 36.058594 52.183594 55.175781 C 57.988281 67.621094 64.28125 78.714844 70.929688 88.871094 C 64.203125 87.839844 57.480469 86.78125 50.761719 85.699219 C 46.359375 80.277344 43.164062 74.007812 40.601562 68.527344 C 38.636719 64.328125 36.78125 59.867188 37.488281 55.527344 C 37.675781 54.375 36.894531 53.289062 35.746094 53.105469 C 34.589844 52.914062 33.503906 53.699219 33.316406 54.847656 C 32.414062 60.375 34.628906 65.730469 36.773438 70.316406 C 38.898438 74.863281 41.445312 79.929688 44.753906 84.722656 C 36.972656 83.445312 29.199219 82.136719 21.429688 80.792969 C 30.398438 83.730469 39.390625 86.617188 48.394531 89.460938 C 49.136719 89.695312 49.882812 89.929688 50.625 90.160156 C 57.019531 92.175781 63.421875 94.160156 69.828125 96.121094 C 72.054688 96.851562 74.515625 97.535156 76.992188 97.746094 C 85.953125 110.359375 95.449219 121.589844 105.179688 132.378906 C 102.519531 132.507812 99.84375 132.488281 97.125 132.328125 C 90.445312 131.921875 83.886719 130.753906 77.394531 129.167969 C 77.179688 127.332031 76.261719 125.492188 74.734375 123.859375 C 73.707031 122.761719 72.5625 121.886719 71.453125 121.042969 C 70.964844 120.667969 70.503906 120.316406 70.054688 119.953125 C 65.480469 116.195312 62.449219 110.675781 61.738281 104.808594 C 61.597656 103.648438 60.546875 102.828125 59.386719 102.964844 C 58.226562 103.105469 57.402344 104.15625 57.542969 105.316406 C 58.382812 112.25 61.96875 118.777344 67.371094 123.210938 C 67.875 123.628906 68.390625 124.019531 68.890625 124.402344 C 69.90625 125.171875 70.863281 125.902344 71.644531 126.742188 C 72 127.121094 72.300781 127.515625 72.539062 127.910156 C 57.035156 123.667969 41.839844 117.550781 26.179688 114.382812 C 33.996094 117.003906 41.503906 120.320312 48.976562 123.761719 C 60.332031 129.039062 72 134.640625 84.125 138.363281 C 78.128906 143.082031 71.664062 147.21875 64.878906 150.699219 C 63.839844 151.230469 63.429688 152.5 63.964844 153.539062 C 64.335938 154.269531 65.078125 154.6875 65.84375 154.6875 C 66.171875 154.6875 66.5 154.613281 66.808594 154.457031 C 74.5625 150.484375 81.910156 145.671875 88.652344 140.160156 C 88.800781 140.039062 88.925781 139.902344 89.027344 139.753906 C 96.632812 141.734375 104.414062 142.871094 112.417969 142.648438 C 113.015625 142.652344 113.777344 142.605469 114.535156 142.585938 C 119.15625 147.5625 123.804688 152.511719 128.449219 157.527344 C 130.097656 159.308594 131.796875 161.570312 132.796875 163.894531 C 132.574219 169.96875 133.058594 175.859375 134.808594 181.316406 C 140.628906 200.195312 155.84375 229.957031 161.636719 248.773438 C 163.820312 255.964844 153.546875 264.160156 154.234375 271.414062 L 171.015625 268.226562 L 206.960938 271.414062 C 206.039062 265.5625 196.230469 256.371094 194.472656 251.085938 C 193.039062 246.746094 184.496094 236.808594 182.910156 232.601562 C 180.53125 226.253906 175.921875 217.445312 170.980469 208.273438 C 172.777344 199.601562 180.34375 193.636719 185.613281 185.820312 L 185.597656 186.730469 C 192.746094 186.128906 199.921875 185.675781 207.121094 185.378906 C 210.824219 191.941406 215.890625 197.792969 221.859375 202.390625 C 222.242188 202.6875 222.695312 202.828125 223.148438 202.828125 C 223.777344 202.828125 224.40625 202.542969 224.824219 202.007812 C 225.535156 201.082031 225.363281 199.757812 224.4375 199.046875 C 219.5 195.242188 215.226562 190.507812 211.929688 185.203125 C 223.476562 184.835938 235.078125 184.867188 246.699219 185.300781 C 233.21875 182.09375 219.550781 179.425781 205.746094 177.316406 C 211.273438 172.945312 217.113281 168.9375 223.179688 165.371094 Z M 153.640625 81.203125 C 153.609375 81.308594 153.570312 81.402344 153.519531 81.480469 C 153.398438 81.679688 153.355469 81.695312 153.359375 81.613281 C 153.425781 81.457031 153.527344 81.324219 153.640625 81.203125 Z M 117.042969 142.871094 L 117.113281 142.785156 C 117.113281 142.785156 117.128906 142.785156 117.136719 142.792969 C 117.464844 142.929688 117.230469 142.976562 117.042969 142.871094 Z M 117.042969 142.871094 " fill-opacity="1" fill-rule="nonzero"/></g><path fill="#603813" d="M 76.925781 60.9375 C 76.925781 61.066406 76.914062 61.195312 76.894531 61.324219 C 76.902344 61.195312 76.910156 61.066406 76.925781 60.9375 Z M 76.925781 60.9375 " fill-opacity="1" fill-rule="nonzero"/><path fill="#006837" d="M 46.449219 121.414062 C 43.726562 123.855469 43.191406 128.703125 45.953125 131.097656 C 41.597656 131.261719 36.894531 132.277344 34.121094 135.636719 C 30.109375 140.484375 32.203125 148.398438 37.15625 152.277344 C 42.113281 156.15625 48.902344 156.777344 55.164062 156.132812 C 55.382812 159.882812 58.867188 162.699219 62.460938 163.808594 C 67.296875 165.300781 72.898438 164.453125 76.808594 161.238281 C 80.714844 158.019531 82.617188 152.40625 81.054688 147.597656 C 92.859375 148.578125 104.769531 140.246094 107.890625 128.832031 C 108.226562 127.605469 108.464844 126.277344 108.015625 125.089844 C 107.5625 123.898438 106.195312 122.976562 105.011719 123.433594 C 105.519531 119.421875 103.964844 115.199219 100.972656 112.472656 C 97.980469 109.746094 93.628906 108.585938 89.675781 109.457031 C 88.011719 109.824219 86.382812 110.527344 84.683594 110.453125 C 82.644531 110.367188 80.765625 109.167969 78.722656 109.183594 C 76.28125 109.203125 74.136719 111.019531 73.011719 113.183594 C 71.886719 115.347656 71.582031 117.835938 71.289062 120.257812 C 69.515625 118.988281 66.902344 117.5 64.722656 118.605469 C 62.089844 119.941406 63.578125 121.484375 60.464844 121.226562 C 55.382812 120.800781 51.410156 116.964844 46.445312 121.414062 Z M 46.449219 121.414062 " fill-opacity="1" fill-rule="nonzero"/><path fill="#006837" d="M 183.300781 66 C 180.574219 68.441406 180.042969 73.289062 182.804688 75.683594 C 178.449219 75.847656 173.746094 76.863281 170.972656 80.222656 C 166.960938 85.070312 169.054688 92.984375 174.007812 96.863281 C 178.964844 100.742188 185.753906 101.363281 192.015625 100.71875 C 192.234375 104.46875 195.71875 107.285156 199.308594 108.394531 C 204.148438 109.886719 209.75 109.039062 213.65625 105.824219 C 217.566406 102.605469 219.46875 96.992188 217.90625 92.183594 C 229.710938 93.164062 241.621094 84.832031 244.742188 73.417969 C 245.078125 72.191406 245.316406 70.863281 244.863281 69.675781 C 244.417969 68.484375 243.046875 67.5625 241.863281 68.019531 C 242.371094 64.007812 240.816406 59.785156 237.824219 57.058594 C 234.832031 54.332031 230.480469 53.171875 226.527344 54.042969 C 224.863281 54.410156 223.234375 55.113281 221.535156 55.039062 C 219.496094 54.953125 217.617188 53.753906 215.574219 53.769531 C 213.132812 53.789062 210.988281 55.605469 209.863281 57.769531 C 208.738281 59.933594 208.433594 62.421875 208.140625 64.84375 C 206.367188 63.574219 203.753906 62.085938 201.574219 63.1875 C 198.9375 64.527344 200.429688 66.070312 197.316406 65.808594 C 192.234375 65.386719 188.261719 61.550781 183.296875 66 Z M 183.300781 66 " fill-opacity="1" fill-rule="nonzero"/><path fill="#006837" d="M 164.875 86.652344 C 161.253906 87.183594 158.128906 90.925781 159.109375 94.449219 C 155.390625 92.183594 150.90625 90.4375 146.734375 91.703125 C 140.710938 93.535156 138.078125 101.285156 140.066406 107.253906 C 142.054688 113.21875 147.371094 117.484375 152.945312 120.402344 C 151.054688 123.648438 152.398438 127.921875 154.78125 130.828125 C 157.988281 134.742188 163.128906 137.128906 168.164062 136.605469 C 173.195312 136.078125 177.890625 132.449219 179.25 127.578125 C 188.550781 134.910156 203.085938 134.539062 211.996094 126.742188 C 212.953125 125.90625 213.886719 124.929688 214.171875 123.6875 C 214.457031 122.449219 213.824219 120.925781 212.582031 120.65625 C 215.226562 117.585938 216.265625 113.210938 215.277344 109.285156 C 214.289062 105.363281 211.304688 101.996094 207.527344 100.539062 C 205.933594 99.925781 204.191406 99.613281 202.8125 98.617188 C 201.164062 97.417969 200.253906 95.378906 198.546875 94.269531 C 196.5 92.9375 193.710938 93.269531 191.574219 94.449219 C 189.441406 95.632812 187.808594 97.539062 186.230469 99.398438 C 185.453125 97.363281 184.097656 94.679688 181.671875 94.398438 C 178.734375 94.054688 179.125 96.167969 176.671875 94.234375 C 172.664062 91.074219 171.480469 85.6875 164.878906 86.65625 Z M 164.875 86.652344 " fill-opacity="1" fill-rule="nonzero"/><path fill="#006837" d="M 100.5625 56.214844 C 97.839844 58.65625 97.304688 63.503906 100.066406 65.898438 C 95.714844 66.0625 91.007812 67.082031 88.234375 70.4375 C 84.226562 75.285156 86.316406 83.199219 91.273438 87.078125 C 96.226562 90.957031 103.015625 91.578125 109.277344 90.933594 C 109.496094 94.6875 112.980469 97.5 116.574219 98.609375 C 121.410156 100.101562 127.015625 99.253906 130.921875 96.039062 C 134.828125 92.824219 136.730469 87.210938 135.167969 82.398438 C 146.976562 83.378906 158.886719 75.046875 162.003906 63.632812 C 162.339844 62.410156 162.578125 61.078125 162.128906 59.890625 C 161.679688 58.703125 160.3125 57.777344 159.128906 58.238281 C 159.632812 54.222656 158.078125 50 155.085938 47.273438 C 152.09375 44.546875 147.746094 43.386719 143.789062 44.257812 C 142.125 44.625 140.5 45.328125 138.796875 45.253906 C 136.761719 45.167969 134.878906 43.972656 132.839844 43.984375 C 130.394531 44.003906 128.253906 45.820312 127.125 47.984375 C 126 50.152344 125.695312 52.636719 125.40625 55.0625 C 123.628906 53.789062 121.019531 52.300781 118.839844 53.40625 C 116.203125 54.742188 117.695312 56.285156 114.582031 56.027344 C 109.496094 55.605469 105.527344 51.765625 100.558594 56.214844 Z M 100.5625 56.214844 " fill-opacity="1" fill-rule="nonzero"/><path fill="#006837" d="M 37.25 49.257812 C 33.601562 49.535156 30.21875 53.050781 30.949219 56.632812 C 27.398438 54.113281 23.046875 52.058594 18.800781 53.03125 C 12.664062 54.4375 9.492188 61.984375 11.058594 68.074219 C 12.625 74.167969 17.628906 78.792969 22.984375 82.09375 C 20.867188 85.199219 21.914062 89.554688 24.085938 92.621094 C 27.011719 96.75 31.972656 99.488281 37.035156 99.316406 C 42.09375 99.144531 47.023438 95.851562 48.726562 91.085938 C 57.488281 99.046875 72.011719 99.691406 81.449219 92.539062 C 82.460938 91.769531 83.460938 90.863281 83.832031 89.644531 C 84.203125 88.429688 83.679688 86.867188 82.460938 86.507812 C 85.308594 83.636719 86.648438 79.339844 85.941406 75.355469 C 85.230469 71.371094 82.488281 67.804688 78.820312 66.085938 C 77.277344 65.367188 75.558594 64.9375 74.253906 63.839844 C 72.691406 62.53125 71.929688 60.4375 70.300781 59.207031 C 68.351562 57.734375 65.546875 57.867188 63.332031 58.902344 C 61.117188 59.9375 59.359375 61.71875 57.652344 63.46875 C 57.019531 61.375 55.855469 58.609375 53.453125 58.160156 C 50.546875 57.613281 50.789062 59.75 48.476562 57.644531 C 44.703125 54.214844 43.894531 48.757812 37.242188 49.265625 Z M 37.25 49.257812 " fill-opacity="1" fill-rule="nonzero"/><path fill="#006837" d="M 246.832031 108.917969 C 243.1875 109.195312 239.804688 112.714844 240.535156 116.292969 C 236.984375 113.773438 232.632812 111.71875 228.386719 112.691406 C 222.25 114.097656 219.078125 121.648438 220.644531 127.734375 C 222.210938 133.824219 227.214844 138.453125 232.570312 141.753906 C 230.453125 144.863281 231.5 149.214844 233.671875 152.28125 C 236.597656 156.410156 241.558594 159.148438 246.621094 158.976562 C 251.679688 158.804688 256.609375 155.511719 258.308594 150.746094 C 267.070312 158.707031 281.597656 159.355469 291.035156 152.199219 C 292.046875 151.429688 293.046875 150.523438 293.417969 149.308594 C 293.789062 148.089844 293.265625 146.527344 292.042969 146.171875 C 294.894531 143.296875 296.234375 139 295.527344 135.015625 C 294.816406 131.03125 292.074219 127.464844 288.40625 125.75 C 286.863281 125.027344 285.140625 124.597656 283.835938 123.5 C 282.277344 122.191406 281.511719 120.097656 279.886719 118.867188 C 277.933594 117.398438 275.132812 117.53125 272.917969 118.5625 C 270.699219 119.597656 268.945312 121.382812 267.238281 123.128906 C 266.605469 121.039062 265.441406 118.269531 263.039062 117.820312 C 260.132812 117.273438 260.375 119.410156 258.0625 117.308594 C 254.289062 113.878906 253.480469 108.417969 246.828125 108.925781 Z M 246.832031 108.917969 " fill-opacity="1" fill-rule="nonzero"/><path fill="#006837" d="M 221.53125 162.980469 C 217.964844 162.1875 213.703125 164.5625 213.355469 168.199219 C 210.691406 164.753906 207.128906 161.523438 202.785156 161.214844 C 196.503906 160.769531 191.269531 167.070312 190.988281 173.351562 C 190.703125 179.632812 194.140625 185.515625 198.300781 190.234375 C 195.375 192.589844 195.101562 197.058594 196.285156 200.625 C 197.878906 205.425781 201.824219 209.492188 206.714844 210.800781 C 211.605469 212.109375 217.285156 210.398438 220.296875 206.335938 C 226.355469 216.503906 240.0625 221.355469 251.175781 217.257812 C 252.367188 216.816406 253.589844 216.238281 254.296875 215.183594 C 255.003906 214.132812 254.960938 212.480469 253.898438 211.785156 C 257.464844 209.867188 260 206.148438 260.488281 202.128906 C 260.96875 198.113281 259.390625 193.898438 256.382812 191.191406 C 255.117188 190.050781 253.601562 189.136719 252.671875 187.710938 C 251.558594 186.003906 251.441406 183.773438 250.242188 182.128906 C 248.808594 180.152344 246.085938 179.464844 243.667969 179.804688 C 241.25 180.148438 239.042969 181.34375 236.902344 182.515625 C 236.90625 180.332031 236.605469 177.347656 234.4375 176.214844 C 231.816406 174.847656 231.425781 176.960938 229.828125 174.277344 C 227.21875 169.898438 228.035156 164.441406 221.527344 162.988281 Z M 221.53125 162.980469 " fill-opacity="1" fill-rule="nonzero"/><path fill="#009245" d="M 48.394531 95.378906 C 44.589844 94.570312 40.164062 95.625 37.941406 98.8125 C 35.71875 102 36.851562 107.300781 40.550781 108.503906 C 35.164062 107.316406 30.136719 113.265625 30.796875 118.738281 C 31.453125 124.210938 36.167969 128.464844 41.316406 130.441406 C 45.316406 131.980469 50.613281 132.078125 53.085938 128.582031 C 54.777344 132.023438 58.726562 134.101562 62.558594 133.921875 C 66.394531 133.746094 69.984375 131.488281 72.144531 128.320312 C 73.84375 125.832031 74.367188 121.792969 71.742188 120.3125 C 74.679688 122.722656 79.015625 123.082031 82.519531 121.609375 C 86.023438 120.132812 88.691406 117.015625 90.085938 113.480469 C 91.207031 110.636719 91.53125 107.308594 90.144531 104.585938 C 88.753906 101.863281 85.3125 100.089844 82.484375 101.257812 C 83.777344 98.9375 83.492188 95.976562 82.296875 93.601562 C 81.101562 91.230469 79.109375 89.355469 77.019531 87.710938 C 74.957031 86.085938 72.617188 84.585938 69.988281 84.421875 C 66.203125 84.1875 62.726562 86.875 60.882812 90.1875 C 59.171875 93.269531 59.441406 97.492188 57.753906 100.21875 C 54.722656 98.34375 51.992188 96.144531 48.394531 95.378906 Z M 48.394531 95.378906 " fill-opacity="1" fill-rule="nonzero"/><path fill="#009245" d="M 226.753906 40.390625 C 224.265625 37.40625 220.128906 35.503906 216.410156 36.640625 C 212.6875 37.777344 210.308594 42.648438 212.472656 45.875 C 208.964844 41.617188 201.335938 43.199219 198.472656 47.90625 C 195.605469 52.613281 196.683594 58.871094 199.511719 63.601562 C 201.703125 67.277344 205.8125 70.628906 209.917969 69.398438 C 209.121094 73.148438 210.945312 77.21875 214.070312 79.441406 C 217.195312 81.664062 221.410156 82.105469 225.070312 80.949219 C 227.945312 80.042969 230.851562 77.191406 229.707031 74.402344 C 230.527344 78.113281 233.714844 81.070312 237.382812 82.074219 C 241.050781 83.074219 245.078125 82.269531 248.359375 80.347656 C 251 78.804688 253.3125 76.382812 253.90625 73.382812 C 254.496094 70.382812 252.882812 66.867188 249.9375 66.042969 C 252.390625 65.015625 253.996094 62.511719 254.523438 59.90625 C 255.050781 57.300781 254.648438 54.597656 254.019531 52.015625 C 253.402344 49.464844 252.484375 46.839844 250.523438 45.089844 C 247.691406 42.570312 243.292969 42.539062 239.800781 44.007812 C 236.546875 45.375 234.148438 48.867188 231.132812 49.96875 C 229.910156 46.625 229.121094 43.207031 226.761719 40.386719 Z M 226.753906 40.390625 " fill-opacity="1" fill-rule="nonzero"/><path fill="#009245" d="M 243.007812 97.378906 C 239.203125 96.570312 234.773438 97.625 232.550781 100.8125 C 230.332031 104 231.464844 109.300781 235.164062 110.503906 C 229.777344 109.316406 224.75 115.265625 225.410156 120.738281 C 226.066406 126.210938 230.78125 130.460938 235.929688 132.441406 C 239.929688 133.980469 245.226562 134.078125 247.699219 130.582031 C 249.390625 134.023438 253.339844 136.101562 257.171875 135.921875 C 261.007812 135.742188 264.597656 133.488281 266.757812 130.320312 C 268.457031 127.832031 268.980469 123.792969 266.355469 122.308594 C 269.292969 124.722656 273.628906 125.082031 277.132812 123.605469 C 280.632812 122.132812 283.304688 119.015625 284.699219 115.480469 C 285.820312 112.636719 286.144531 109.308594 284.753906 106.585938 C 283.367188 103.859375 279.925781 102.089844 277.097656 103.257812 C 278.386719 100.933594 278.105469 97.976562 276.910156 95.601562 C 275.714844 93.230469 273.722656 91.351562 271.632812 89.710938 C 269.570312 88.085938 267.230469 86.585938 264.601562 86.421875 C 260.816406 86.1875 257.335938 88.875 255.496094 92.1875 C 253.785156 95.269531 254.054688 99.492188 252.363281 102.21875 C 249.335938 100.34375 246.605469 98.144531 243.003906 97.378906 Z M 243.007812 97.378906 " fill-opacity="1" fill-rule="nonzero"/><path fill="#009245" d="M 215.3125 157.859375 C 211.507812 157.050781 207.078125 158.105469 204.855469 161.292969 C 202.632812 164.480469 203.769531 169.785156 207.46875 170.984375 C 202.082031 169.796875 197.054688 175.746094 197.714844 181.21875 C 198.371094 186.691406 203.085938 190.945312 208.234375 192.921875 C 212.234375 194.460938 217.53125 194.558594 220.003906 191.066406 C 221.695312 194.507812 225.644531 196.582031 229.476562 196.402344 C 233.308594 196.226562 236.898438 193.96875 239.0625 190.800781 C 240.761719 188.3125 241.285156 184.277344 238.660156 182.792969 C 241.597656 185.203125 245.933594 185.5625 249.4375 184.089844 C 252.9375 182.613281 255.609375 179.5 257.003906 175.964844 C 258.125 173.121094 258.449219 169.789062 257.058594 167.066406 C 255.671875 164.34375 252.230469 162.570312 249.398438 163.738281 C 250.691406 161.417969 250.410156 158.457031 249.214844 156.085938 C 248.015625 153.710938 246.027344 151.835938 243.9375 150.191406 C 241.875 148.566406 239.53125 147.066406 236.90625 146.902344 C 233.121094 146.667969 229.640625 149.355469 227.800781 152.667969 C 226.089844 155.75 226.359375 159.972656 224.667969 162.703125 C 221.640625 160.824219 218.910156 158.625 215.308594 157.859375 Z M 215.3125 157.859375 " fill-opacity="1" fill-rule="nonzero"/><path fill="#009245" d="M 160.964844 7.988281 C 157.859375 5.644531 153.398438 4.726562 150.035156 6.671875 C 146.671875 8.617188 145.449219 13.902344 148.292969 16.554688 C 143.914062 13.199219 136.835938 16.460938 135.113281 21.699219 C 133.386719 26.933594 135.851562 32.777344 139.675781 36.75 C 142.644531 39.835938 147.402344 42.171875 151.125 40.050781 C 151.195312 43.882812 153.890625 47.4375 157.4375 48.894531 C 160.988281 50.355469 165.195312 49.835938 168.5 47.882812 C 171.09375 46.347656 173.28125 42.914062 171.535156 40.457031 C 173.167969 43.886719 176.945312 46.050781 180.746094 46.195312 C 184.546875 46.34375 188.285156 44.652344 191.046875 42.039062 C 193.269531 39.9375 194.976562 37.0625 194.875 34.007812 C 194.773438 30.949219 192.40625 27.890625 189.347656 27.75 C 191.503906 26.195312 192.5 23.390625 192.425781 20.738281 C 192.355469 18.085938 191.347656 15.542969 190.148438 13.167969 C 188.96875 10.820312 187.484375 8.472656 185.175781 7.214844 C 181.851562 5.398438 177.558594 6.359375 174.484375 8.582031 C 171.625 10.644531 170.082031 14.589844 167.390625 16.34375 C 165.445312 13.363281 163.902344 10.214844 160.964844 8 Z M 160.964844 7.988281 " fill-opacity="1" fill-rule="nonzero"/><path fill="#009245" d="M 183.589844 66.722656 C 181.003906 63.816406 176.8125 62.042969 173.128906 63.296875 C 169.449219 64.550781 167.21875 69.488281 169.484375 72.648438 C 165.847656 68.503906 158.269531 70.320312 155.550781 75.113281 C 152.835938 79.910156 154.109375 86.125 157.082031 90.769531 C 159.390625 94.371094 163.597656 97.59375 167.664062 96.238281 C 166.984375 100.011719 168.929688 104.019531 172.125 106.148438 C 175.320312 108.273438 179.550781 108.582031 183.167969 107.3125 C 186.015625 106.3125 188.832031 103.371094 187.597656 100.621094 C 188.535156 104.304688 191.8125 107.160156 195.507812 108.046875 C 199.207031 108.933594 203.207031 108.003906 206.425781 105.980469 C 209.015625 104.355469 211.25 101.863281 211.75 98.847656 C 212.25 95.832031 210.523438 92.371094 207.554688 91.632812 C 209.972656 90.53125 211.5 87.976562 211.945312 85.359375 C 212.394531 82.738281 211.902344 80.050781 211.195312 77.488281 C 210.492188 74.957031 209.5 72.359375 207.484375 70.679688 C 204.574219 68.246094 200.175781 68.351562 196.730469 69.929688 C 193.523438 71.398438 191.234375 74.964844 188.253906 76.160156 C 186.929688 72.855469 186.03125 69.464844 183.585938 66.71875 Z M 183.589844 66.722656 " fill-opacity="1" fill-rule="nonzero"/><path fill="#009245" d="M 106.671875 25.550781 C 102.871094 24.742188 98.441406 25.792969 96.21875 28.980469 C 93.996094 32.167969 95.132812 37.472656 98.828125 38.671875 C 93.441406 37.488281 88.417969 43.433594 89.074219 48.910156 C 89.734375 54.378906 94.445312 58.632812 99.59375 60.609375 C 103.59375 62.148438 108.894531 62.25 111.367188 58.753906 C 113.054688 62.195312 117.003906 64.269531 120.835938 64.089844 C 124.671875 63.914062 128.261719 61.65625 130.421875 58.492188 C 132.121094 56.003906 132.644531 51.964844 130.023438 50.480469 C 132.960938 52.890625 137.292969 53.25 140.796875 51.777344 C 144.300781 50.300781 146.96875 47.1875 148.363281 43.652344 C 149.488281 40.808594 149.808594 37.476562 148.421875 34.753906 C 147.03125 32.03125 143.589844 30.261719 140.761719 31.425781 C 142.054688 29.105469 141.769531 26.144531 140.574219 23.773438 C 139.378906 21.398438 137.386719 19.523438 135.300781 17.878906 C 133.234375 16.253906 130.894531 14.753906 128.265625 14.589844 C 124.480469 14.355469 121.003906 17.042969 119.160156 20.355469 C 117.449219 23.4375 117.722656 27.660156 116.03125 30.390625 C 113 28.511719 110.269531 26.316406 106.671875 25.550781 Z M 106.671875 25.550781 " fill-opacity="1" fill-rule="nonzero"/><path fill="#009245" d="M 59.214844 32.578125 C 56.34375 29.957031 51.988281 28.621094 48.457031 30.246094 C 44.921875 31.875 43.214844 37.015625 45.792969 39.921875 C 41.75 36.175781 34.398438 38.761719 32.191406 43.8125 C 29.984375 48.863281 31.890625 54.914062 35.324219 59.226562 C 37.996094 62.574219 42.515625 65.34375 46.417969 63.578125 C 46.132812 67.398438 48.484375 71.1875 51.878906 72.972656 C 55.273438 74.757812 59.511719 74.632812 62.980469 72.996094 C 65.707031 71.710938 68.207031 68.492188 66.699219 65.886719 C 68.007812 69.453125 71.5625 71.957031 75.332031 72.457031 C 79.105469 72.957031 82.984375 71.621094 85.976562 69.28125 C 88.386719 67.398438 90.355469 64.691406 90.539062 61.640625 C 90.722656 58.585938 88.652344 55.320312 85.621094 54.894531 C 87.910156 53.546875 89.167969 50.851562 89.34375 48.199219 C 89.519531 45.546875 88.75 42.925781 87.785156 40.449219 C 86.828125 38.003906 85.570312 35.523438 83.390625 34.054688 C 80.25 31.9375 75.882812 32.492188 72.621094 34.417969 C 69.582031 36.207031 67.671875 39.988281 64.828125 41.484375 C 63.167969 38.332031 61.929688 35.054688 59.214844 32.574219 Z M 59.214844 32.578125 " fill-opacity="1" fill-rule="nonzero"/><path fill="#39b54a" d="M 28.679688 84.359375 C 24.378906 82.542969 19.25 81.597656 15.160156 83.851562 C 11.070312 86.105469 9.398438 92.601562 13.050781 95.507812 C 6.753906 93.894531 -0.0078125 99.925781 0.304688 106.414062 C 0.617188 112.898438 7.199219 118.160156 13.683594 117.679688 C 13.011719 119.597656 14.015625 121.796875 15.605469 123.0625 C 17.199219 124.332031 19.257812 124.839844 21.265625 125.167969 C 24.222656 125.648438 27.4375 125.761719 30.019531 124.242188 C 32.601562 122.726562 34.101562 119.082031 32.421875 116.605469 C 36.21875 117.90625 40.328125 118.300781 44.308594 117.742188 C 45.148438 117.625 46.039062 117.429688 46.613281 116.804688 C 47.121094 116.25 47.269531 115.457031 47.394531 114.714844 C 48.015625 111.085938 47.992188 106.269531 44.53125 105.011719 C 49.179688 106.585938 54.796875 104.519531 57.316406 100.308594 C 58.875 97.695312 59.132812 94.027344 57.035156 91.820312 C 55.90625 90.636719 54.292969 90.054688 52.703125 89.660156 C 48.136719 88.535156 44.230469 89.933594 39.804688 89.671875 C 35.792969 89.433594 32.347656 85.902344 28.675781 84.351562 Z M 28.679688 84.359375 " fill-opacity="1" fill-rule="nonzero"/><path fill="#39b54a" d="M 244.027344 73.472656 C 239.722656 71.65625 234.597656 70.710938 230.503906 72.964844 C 226.417969 75.21875 224.746094 81.714844 228.398438 84.617188 C 222.101562 83.003906 215.335938 89.039062 215.652344 95.523438 C 215.964844 102.011719 222.542969 107.273438 229.027344 106.792969 C 228.359375 108.710938 229.359375 110.910156 230.953125 112.175781 C 232.542969 113.441406 234.601562 113.953125 236.609375 114.28125 C 239.570312 114.761719 242.785156 114.871094 245.367188 113.355469 C 247.949219 111.839844 249.449219 108.191406 247.765625 105.714844 C 251.566406 107.019531 255.675781 107.410156 259.652344 106.851562 C 260.492188 106.734375 261.386719 106.542969 261.957031 105.917969 C 262.46875 105.359375 262.617188 104.570312 262.742188 103.824219 C 263.359375 100.199219 263.335938 95.378906 259.875 94.121094 C 264.527344 95.695312 270.140625 93.628906 272.660156 89.421875 C 274.222656 86.808594 274.476562 83.136719 272.378906 80.933594 C 271.25 79.75 269.636719 79.164062 268.050781 78.773438 C 263.480469 77.648438 259.574219 79.042969 255.152344 78.78125 C 251.140625 78.542969 247.695312 75.011719 244.023438 73.460938 Z M 244.027344 73.472656 " fill-opacity="1" fill-rule="nonzero"/><path fill="#39b54a" d="M 183.375 38.929688 C 180.105469 35.597656 175.738281 32.75 171.09375 33.253906 C 166.453125 33.757812 162.398438 39.105469 164.652344 43.195312 C 159.464844 39.28125 150.898438 42.238281 148.679688 48.347656 C 146.464844 54.453125 150.503906 61.839844 156.671875 63.902344 C 155.3125 65.414062 155.390625 67.828125 156.367188 69.609375 C 157.347656 71.394531 159.046875 72.65625 160.777344 73.734375 C 163.316406 75.316406 166.242188 76.65625 169.210938 76.253906 C 172.179688 75.855469 174.972656 73.0625 174.375 70.132812 C 177.375 72.796875 181.015625 74.742188 184.902344 75.761719 C 185.722656 75.972656 186.621094 76.140625 187.386719 75.789062 C 188.074219 75.472656 188.515625 74.796875 188.921875 74.160156 C 190.894531 71.050781 192.730469 66.59375 190.023438 64.101562 C 193.707031 67.347656 199.683594 67.605469 203.632812 64.691406 C 206.082031 62.886719 207.738281 59.59375 206.652344 56.753906 C 206.070312 55.226562 204.804688 54.066406 203.492188 53.089844 C 199.710938 50.292969 195.566406 50.078125 191.585938 48.128906 C 187.976562 46.363281 186.164062 41.777344 183.375 38.933594 Z M 183.375 38.929688 " fill-opacity="1" fill-rule="nonzero"/><path fill="#39b54a" d="M 226.28125 136.226562 C 223.011719 132.894531 218.644531 130.046875 214.003906 130.550781 C 209.359375 131.054688 205.308594 136.402344 207.558594 140.492188 C 202.371094 136.578125 193.804688 139.535156 191.585938 145.644531 C 189.371094 151.75 193.410156 159.136719 199.578125 161.195312 C 198.21875 162.707031 198.296875 165.125 199.273438 166.90625 C 200.253906 168.6875 201.957031 169.953125 203.683594 171.027344 C 206.226562 172.613281 209.148438 173.953125 212.117188 173.550781 C 215.085938 173.148438 217.878906 170.359375 217.28125 167.429688 C 220.28125 170.09375 223.921875 172.039062 227.808594 173.054688 C 228.628906 173.269531 229.527344 173.4375 230.292969 173.082031 C 230.980469 172.765625 231.421875 172.09375 231.828125 171.453125 C 233.800781 168.347656 235.636719 163.890625 232.929688 161.398438 C 236.613281 164.644531 242.589844 164.898438 246.539062 161.988281 C 248.988281 160.179688 250.644531 156.890625 249.558594 154.046875 C 248.976562 152.523438 247.710938 151.359375 246.398438 150.386719 C 242.617188 147.589844 238.472656 147.375 234.492188 145.425781 C 230.882812 143.65625 229.070312 139.074219 226.28125 136.230469 Z M 226.28125 136.226562 " fill-opacity="1" fill-rule="nonzero"/><path fill="#39b54a" d="M 107.523438 2.835938 C 103.21875 1.019531 98.09375 0.0742188 94 2.328125 C 89.914062 4.582031 88.242188 11.078125 91.894531 13.980469 C 85.597656 12.367188 78.832031 18.402344 79.148438 24.886719 C 79.460938 31.375 86.039062 36.636719 92.523438 36.15625 C 91.855469 38.074219 92.855469 40.273438 94.449219 41.539062 C 96.039062 42.808594 98.097656 43.316406 100.105469 43.644531 C 103.066406 44.125 106.28125 44.238281 108.863281 42.71875 C 111.445312 41.203125 112.945312 37.554688 111.261719 35.078125 C 115.0625 36.382812 119.171875 36.773438 123.148438 36.214844 C 123.988281 36.097656 124.882812 35.90625 125.453125 35.28125 C 125.964844 34.722656 126.113281 33.933594 126.238281 33.1875 C 126.855469 29.5625 126.832031 24.742188 123.375 23.484375 C 128.023438 25.058594 133.636719 22.996094 136.15625 18.785156 C 137.71875 16.171875 137.972656 12.5 135.875 10.296875 C 134.746094 9.113281 133.132812 8.527344 131.546875 8.136719 C 126.976562 7.011719 123.070312 8.410156 118.648438 8.144531 C 114.636719 7.90625 111.191406 4.375 107.519531 2.824219 Z M 107.523438 2.835938 " fill-opacity="1" fill-rule="nonzero"/><path fill="#39b54a" d="M 94.839844 22.363281 C 92.21875 18.503906 88.429688 14.921875 83.773438 14.589844 C 79.113281 14.257812 74.171875 18.800781 75.660156 23.222656 C 71.253906 18.445312 62.292969 19.832031 59.023438 25.445312 C 55.753906 31.058594 58.410156 39.046875 64.109375 42.171875 C 62.5 43.417969 62.144531 45.808594 62.792969 47.738281 C 63.4375 49.667969 64.882812 51.210938 66.394531 52.578125 C 68.613281 54.589844 71.25 56.429688 74.242188 56.5625 C 77.238281 56.695312 80.480469 54.453125 80.417969 51.457031 C 82.898438 54.613281 86.128906 57.179688 89.773438 58.871094 C 90.539062 59.226562 91.394531 59.550781 92.214844 59.335938 C 92.945312 59.148438 93.5 58.566406 94.015625 58.011719 C 96.507812 55.304688 99.113281 51.25 96.894531 48.3125 C 99.9375 52.160156 105.777344 53.476562 110.183594 51.3125 C 112.914062 49.96875 115.128906 47.027344 114.570312 44.039062 C 114.265625 42.4375 113.230469 41.066406 112.109375 39.875 C 108.890625 36.449219 104.851562 35.5 101.285156 32.875 C 98.046875 30.492188 97.082031 25.65625 94.84375 22.363281 Z M 94.839844 22.363281 " fill-opacity="1" fill-rule="nonzero"/></svg>